G75*
%MOIN*%
%OFA0B0*%
%FSLAX24Y24*%
%IPPOS*%
%LPD*%
%AMOC8*
5,1,8,0,0,1.08239X$1,22.5*
%
%ADD10OC8,0.0630*%
%ADD11OC8,0.0520*%
%ADD12R,0.0492X0.0591*%
%ADD13R,0.0512X0.0591*%
%ADD14R,0.0394X0.0551*%
%ADD15R,0.0591X0.0512*%
%ADD16OC8,0.0600*%
%ADD17C,0.0050*%
%ADD18R,0.0600X0.0600*%
%ADD19C,0.0600*%
%ADD20C,0.0357*%
%ADD21C,0.0240*%
%ADD22C,0.0100*%
%ADD23C,0.0160*%
%ADD24C,0.0120*%
D10*
X001684Y016282D03*
X001684Y017282D03*
X009739Y021194D03*
X010739Y021194D03*
D11*
X003080Y013967D03*
X003080Y012967D03*
X002080Y012967D03*
X002080Y013967D03*
D12*
X003982Y011049D03*
X004966Y011049D03*
X005950Y011049D03*
D13*
X009966Y011114D03*
X010714Y011114D03*
D14*
X009134Y011987D03*
X008760Y011121D03*
X008386Y011987D03*
D15*
X010640Y011980D03*
X010640Y012728D03*
D16*
X011640Y011194D03*
X012420Y011194D03*
X012880Y011854D03*
X012880Y012594D03*
X012880Y013334D03*
X012880Y014114D03*
X007220Y018634D03*
X006220Y018634D03*
X006620Y016534D03*
X002100Y011194D03*
X001260Y012054D03*
D17*
X004715Y001917D02*
X004715Y000638D01*
X005030Y000638D01*
X005030Y001917D01*
X004715Y001917D01*
X004715Y001904D02*
X005030Y001904D01*
X005030Y001855D02*
X004715Y001855D01*
X004715Y001807D02*
X005030Y001807D01*
X005030Y001758D02*
X004715Y001758D01*
X004715Y001710D02*
X005030Y001710D01*
X005030Y001661D02*
X004715Y001661D01*
X004715Y001613D02*
X005030Y001613D01*
X005030Y001564D02*
X004715Y001564D01*
X004715Y001516D02*
X005030Y001516D01*
X005030Y001467D02*
X004715Y001467D01*
X004715Y001419D02*
X005030Y001419D01*
X005030Y001370D02*
X004715Y001370D01*
X004715Y001322D02*
X005030Y001322D01*
X005030Y001273D02*
X004715Y001273D01*
X004715Y001225D02*
X005030Y001225D01*
X005030Y001176D02*
X004715Y001176D01*
X004715Y001128D02*
X005030Y001128D01*
X005030Y001079D02*
X004715Y001079D01*
X004715Y001031D02*
X005030Y001031D01*
X005030Y000982D02*
X004715Y000982D01*
X004715Y000934D02*
X005030Y000934D01*
X005030Y000885D02*
X004715Y000885D01*
X004715Y000837D02*
X005030Y000837D01*
X005030Y000788D02*
X004715Y000788D01*
X004715Y000740D02*
X005030Y000740D01*
X005030Y000691D02*
X004715Y000691D01*
X004715Y000643D02*
X005030Y000643D01*
X004941Y002035D02*
X004941Y002547D01*
X005296Y002547D01*
X005296Y002035D01*
X004941Y002035D01*
X004941Y002049D02*
X005296Y002049D01*
X005296Y002098D02*
X004941Y002098D01*
X004941Y002146D02*
X005296Y002146D01*
X005296Y002195D02*
X004941Y002195D01*
X004941Y002243D02*
X005296Y002243D01*
X005296Y002292D02*
X004941Y002292D01*
X004941Y002340D02*
X005296Y002340D01*
X005296Y002389D02*
X004941Y002389D01*
X004941Y002437D02*
X005296Y002437D01*
X005296Y002486D02*
X004941Y002486D01*
X004941Y002534D02*
X005296Y002534D01*
X007776Y002534D02*
X008130Y002534D01*
X008130Y002547D02*
X007776Y002547D01*
X007776Y002035D01*
X008130Y002035D01*
X008130Y002547D01*
X008130Y002486D02*
X007776Y002486D01*
X007776Y002437D02*
X008130Y002437D01*
X008130Y002389D02*
X007776Y002389D01*
X007776Y002340D02*
X008130Y002340D01*
X008130Y002292D02*
X007776Y002292D01*
X007776Y002243D02*
X008130Y002243D01*
X008130Y002195D02*
X007776Y002195D01*
X007776Y002146D02*
X008130Y002146D01*
X008130Y002098D02*
X007776Y002098D01*
X007776Y002049D02*
X008130Y002049D01*
X008042Y001917D02*
X008042Y000638D01*
X008357Y000638D01*
X008357Y001917D01*
X008042Y001917D01*
X008042Y001904D02*
X008357Y001904D01*
X008357Y001855D02*
X008042Y001855D01*
X008042Y001807D02*
X008357Y001807D01*
X008357Y001758D02*
X008042Y001758D01*
X008042Y001710D02*
X008357Y001710D01*
X008357Y001661D02*
X008042Y001661D01*
X008042Y001613D02*
X008357Y001613D01*
X008357Y001564D02*
X008042Y001564D01*
X008042Y001516D02*
X008357Y001516D01*
X008357Y001467D02*
X008042Y001467D01*
X008042Y001419D02*
X008357Y001419D01*
X008357Y001370D02*
X008042Y001370D01*
X008042Y001322D02*
X008357Y001322D01*
X008357Y001273D02*
X008042Y001273D01*
X008042Y001225D02*
X008357Y001225D01*
X008357Y001176D02*
X008042Y001176D01*
X008042Y001128D02*
X008357Y001128D01*
X008357Y001079D02*
X008042Y001079D01*
X008042Y001031D02*
X008357Y001031D01*
X008357Y000982D02*
X008042Y000982D01*
X008042Y000934D02*
X008357Y000934D01*
X008357Y000885D02*
X008042Y000885D01*
X008042Y000837D02*
X008357Y000837D01*
X008357Y000788D02*
X008042Y000788D01*
X008042Y000740D02*
X008357Y000740D01*
X008357Y000691D02*
X008042Y000691D01*
X008042Y000643D02*
X008357Y000643D01*
D18*
X008111Y003660D03*
D19*
X007323Y003660D03*
X006536Y003660D03*
X005748Y003660D03*
X004961Y003660D03*
D20*
X002880Y010934D03*
X004860Y011914D03*
X007087Y013577D03*
X007020Y014554D03*
X006680Y015410D03*
X007020Y015714D03*
X007260Y016374D03*
X006260Y018034D03*
X005740Y018014D03*
X005260Y018014D03*
X005080Y018634D03*
X004240Y017994D03*
X003440Y017134D03*
X003080Y017534D03*
X002380Y018034D03*
X001900Y018874D03*
X002380Y019754D03*
X001440Y020694D03*
X001620Y022234D03*
X002720Y016294D03*
X003080Y015734D03*
X003440Y015334D03*
X003920Y016114D03*
X002460Y015274D03*
X001680Y014974D03*
X001580Y015454D03*
X006440Y021214D03*
X006920Y021214D03*
X007460Y021454D03*
X006900Y022234D03*
X006440Y022754D03*
X007880Y020294D03*
X007820Y018932D03*
X009040Y019725D03*
X009020Y021854D03*
X011600Y019725D03*
X013020Y019754D03*
X011220Y016374D03*
X011620Y015694D03*
X010660Y016194D03*
X010180Y016374D03*
X009440Y016394D03*
X009040Y016034D03*
X009480Y015654D03*
X009860Y012054D03*
X011300Y012034D03*
D21*
X011300Y011980D01*
X010640Y011980D01*
X010714Y011980D01*
X010714Y011114D01*
X011300Y012034D02*
X011300Y013354D01*
X008140Y013354D01*
X008140Y011987D01*
X007480Y011987D01*
X007480Y016354D01*
X007260Y016354D01*
X007260Y016374D01*
X007820Y016374D01*
X007820Y018932D01*
X007820Y020294D01*
X007880Y020294D01*
X007460Y019494D02*
X005540Y019494D01*
X005540Y019054D01*
X004720Y019054D01*
X004720Y019074D01*
X004720Y019054D02*
X004720Y018934D01*
X002840Y018934D01*
X002840Y018014D01*
X002820Y018014D01*
X002820Y017874D01*
X002760Y017874D01*
X002760Y017754D01*
X002680Y017754D01*
X002680Y017654D01*
X002620Y017654D01*
X002620Y017474D01*
X002300Y017474D01*
X002300Y017534D01*
X002240Y017534D01*
X002240Y017634D01*
X002140Y017634D01*
X002140Y017694D01*
X002060Y017694D01*
X002060Y017814D01*
X001940Y017814D01*
X001940Y018034D01*
X001280Y018034D01*
X001280Y020694D01*
X001440Y020694D01*
X001684Y016282D02*
X002080Y016282D01*
X002080Y013967D01*
X002580Y013967D01*
X002580Y011914D01*
X002900Y011914D01*
X004860Y011914D01*
X004966Y011914D01*
X004966Y011049D01*
X004966Y011914D02*
X004966Y011987D01*
X007480Y011987D01*
X008140Y011987D02*
X008386Y011987D01*
X008760Y011121D02*
X005950Y011121D01*
X005950Y011049D01*
X008760Y011114D02*
X008760Y011121D01*
X008760Y011114D02*
X009966Y011114D01*
X009860Y012054D02*
X009860Y012728D01*
X010640Y012728D01*
X009860Y012054D02*
X009134Y012054D01*
X009134Y011987D01*
X011620Y015694D02*
X011620Y019705D01*
X011600Y019725D01*
X013020Y019754D02*
X013040Y019754D01*
X013040Y020354D01*
X009739Y020354D01*
X009739Y021194D01*
X009040Y021774D02*
X009040Y019725D01*
X009040Y021774D02*
X009020Y021854D01*
X007460Y021454D02*
X007460Y019494D01*
X007460Y019414D01*
X006920Y021214D02*
X006920Y022234D01*
X006900Y022234D01*
X002900Y011914D02*
X002900Y010934D01*
X002880Y010934D01*
D22*
X002510Y011024D02*
X002510Y011364D01*
X002270Y011604D01*
X002260Y011604D01*
X002260Y012480D01*
X002166Y012574D01*
X001960Y012574D01*
X001960Y012597D01*
X002233Y012597D01*
X002450Y012814D01*
X002450Y013120D01*
X002233Y013337D01*
X001927Y013337D01*
X001820Y013230D01*
X001820Y013647D01*
X001910Y013557D01*
X002050Y013557D01*
X002050Y013937D01*
X002110Y013937D01*
X002110Y013557D01*
X002250Y013557D01*
X002490Y013797D01*
X002490Y013937D01*
X002110Y013937D01*
X002110Y013997D01*
X002490Y013997D01*
X002490Y014137D01*
X002250Y014377D01*
X002110Y014377D01*
X002110Y013997D01*
X002050Y013997D01*
X002050Y014377D01*
X001910Y014377D01*
X001820Y014287D01*
X001820Y014720D01*
X001843Y014730D01*
X001925Y014811D01*
X001968Y014917D01*
X001968Y015032D01*
X001925Y015138D01*
X001843Y015219D01*
X001779Y015245D01*
X001825Y015291D01*
X001868Y015397D01*
X001868Y015512D01*
X001825Y015618D01*
X001743Y015699D01*
X001637Y015743D01*
X001523Y015743D01*
X001417Y015699D01*
X001335Y015618D01*
X001334Y015614D01*
X001094Y015614D01*
X001000Y015520D01*
X001000Y012374D01*
X001000Y022914D01*
X006194Y022914D01*
X006152Y022812D01*
X006152Y022697D01*
X006195Y022591D01*
X006250Y022536D01*
X006250Y021432D01*
X006195Y021378D01*
X006152Y021272D01*
X006152Y021157D01*
X006195Y021051D01*
X006277Y020970D01*
X006383Y020926D01*
X006497Y020926D01*
X006603Y020970D01*
X006685Y021051D01*
X006728Y021157D01*
X006728Y021272D01*
X006685Y021378D01*
X006630Y021432D01*
X006630Y022536D01*
X006685Y022591D01*
X006728Y022697D01*
X006728Y022812D01*
X006686Y022914D01*
X013140Y022914D01*
X013140Y018494D01*
X011850Y018494D01*
X011850Y019575D01*
X011888Y019668D01*
X011888Y019783D01*
X011845Y019889D01*
X011763Y019970D01*
X011657Y020014D01*
X011543Y020014D01*
X011437Y019970D01*
X011355Y019889D01*
X011312Y019783D01*
X011312Y019668D01*
X011355Y019562D01*
X011390Y019527D01*
X011390Y016612D01*
X011383Y016619D01*
X011277Y016663D01*
X011163Y016663D01*
X011057Y016619D01*
X010975Y016538D01*
X010932Y016432D01*
X010932Y016317D01*
X010975Y016211D01*
X011050Y016136D01*
X011050Y014924D01*
X011090Y014884D01*
X010830Y014884D01*
X010830Y015956D01*
X010905Y016031D01*
X010948Y016137D01*
X010948Y016252D01*
X010905Y016358D01*
X010823Y016439D01*
X010717Y016483D01*
X010603Y016483D01*
X010497Y016439D01*
X010468Y016411D01*
X010468Y016432D01*
X010425Y016538D01*
X010343Y016619D01*
X010237Y016663D01*
X010123Y016663D01*
X010017Y016619D01*
X009935Y016538D01*
X009892Y016432D01*
X009892Y016317D01*
X009922Y016244D01*
X009690Y016244D01*
X009728Y016337D01*
X009728Y016452D01*
X009685Y016558D01*
X009603Y016639D01*
X009497Y016683D01*
X009383Y016683D01*
X009277Y016639D01*
X009195Y016558D01*
X009152Y016452D01*
X009152Y016337D01*
X009170Y016293D01*
X009097Y016323D01*
X008983Y016323D01*
X008877Y016279D01*
X008795Y016198D01*
X008752Y016092D01*
X008752Y015977D01*
X008795Y015871D01*
X008870Y015796D01*
X008870Y013594D01*
X008970Y013494D01*
X011390Y013494D01*
X011390Y012224D01*
X011430Y012184D01*
X011430Y011604D01*
X011450Y011584D01*
X011230Y011364D01*
X011230Y011024D01*
X011470Y010784D01*
X011810Y010784D01*
X012030Y011004D01*
X012250Y010784D01*
X012590Y010784D01*
X012830Y011024D01*
X012830Y011364D01*
X012750Y011444D01*
X013050Y011444D01*
X013140Y011534D01*
X013140Y010594D01*
X001000Y010594D01*
X001000Y011734D01*
X001090Y011644D01*
X001430Y011644D01*
X001670Y011884D01*
X001670Y012224D01*
X001430Y012464D01*
X001320Y012464D01*
X001320Y015294D01*
X001334Y015294D01*
X001335Y015291D01*
X001417Y015210D01*
X001481Y015183D01*
X001435Y015138D01*
X001392Y015032D01*
X001392Y014917D01*
X001435Y014811D01*
X001500Y014746D01*
X001500Y012528D01*
X001594Y012434D01*
X001640Y012434D01*
X001640Y012348D01*
X001734Y012254D01*
X001940Y012254D01*
X001940Y011604D01*
X001930Y011604D01*
X001690Y011364D01*
X001690Y011024D01*
X001930Y010784D01*
X002270Y010784D01*
X002510Y011024D01*
X002510Y011035D02*
X003626Y011035D01*
X003626Y010937D02*
X002422Y010937D01*
X002324Y010838D02*
X003626Y010838D01*
X003626Y010740D02*
X001000Y010740D01*
X001000Y010838D02*
X001876Y010838D01*
X001778Y010937D02*
X001000Y010937D01*
X001000Y011035D02*
X001690Y011035D01*
X001690Y011134D02*
X001000Y011134D01*
X001000Y011232D02*
X001690Y011232D01*
X001690Y011331D02*
X001000Y011331D01*
X001000Y011429D02*
X001755Y011429D01*
X001854Y011528D02*
X001000Y011528D01*
X001000Y011626D02*
X001940Y011626D01*
X001940Y011725D02*
X001510Y011725D01*
X001609Y011823D02*
X001940Y011823D01*
X001940Y011922D02*
X001670Y011922D01*
X001670Y012020D02*
X001940Y012020D01*
X001940Y012119D02*
X001670Y012119D01*
X001670Y012217D02*
X001940Y012217D01*
X001800Y012414D02*
X001800Y012594D01*
X001660Y012594D01*
X001660Y014974D01*
X001680Y014974D01*
X001468Y014778D02*
X001320Y014778D01*
X001320Y014680D02*
X001500Y014680D01*
X001500Y014581D02*
X001320Y014581D01*
X001320Y014483D02*
X001500Y014483D01*
X001500Y014384D02*
X001320Y014384D01*
X001320Y014286D02*
X001500Y014286D01*
X001500Y014187D02*
X001320Y014187D01*
X001320Y014089D02*
X001500Y014089D01*
X001500Y013990D02*
X001320Y013990D01*
X001320Y013892D02*
X001500Y013892D01*
X001500Y013793D02*
X001320Y013793D01*
X001320Y013695D02*
X001500Y013695D01*
X001500Y013596D02*
X001320Y013596D01*
X001320Y013498D02*
X001500Y013498D01*
X001500Y013399D02*
X001320Y013399D01*
X001320Y013301D02*
X001500Y013301D01*
X001500Y013202D02*
X001320Y013202D01*
X001320Y013104D02*
X001500Y013104D01*
X001500Y013005D02*
X001320Y013005D01*
X001320Y012907D02*
X001500Y012907D01*
X001500Y012808D02*
X001320Y012808D01*
X001320Y012710D02*
X001500Y012710D01*
X001500Y012611D02*
X001320Y012611D01*
X001320Y012513D02*
X001515Y012513D01*
X001480Y012414D02*
X001640Y012414D01*
X001672Y012316D02*
X001578Y012316D01*
X001800Y012414D02*
X002100Y012414D01*
X002100Y011194D01*
X002346Y011528D02*
X010364Y011528D01*
X010366Y011530D02*
X010338Y011502D01*
X010319Y011468D01*
X010267Y011519D01*
X009665Y011519D01*
X009600Y011455D01*
X009600Y011344D01*
X009067Y011344D01*
X009067Y011442D01*
X009002Y011507D01*
X008518Y011507D01*
X008453Y011442D01*
X008453Y011351D01*
X006306Y011351D01*
X006306Y011390D01*
X006242Y011454D01*
X005659Y011454D01*
X005594Y011390D01*
X005594Y010708D01*
X005659Y010644D01*
X006242Y010644D01*
X006306Y010708D01*
X006306Y010891D01*
X008453Y010891D01*
X008453Y010800D01*
X008518Y010736D01*
X009002Y010736D01*
X009067Y010800D01*
X009067Y010884D01*
X009600Y010884D01*
X009600Y010773D01*
X009665Y010709D01*
X010267Y010709D01*
X010319Y010760D01*
X010338Y010727D01*
X010366Y010699D01*
X010400Y010679D01*
X010438Y010669D01*
X010664Y010669D01*
X010664Y011064D01*
X010764Y011064D01*
X010764Y010669D01*
X010990Y010669D01*
X011028Y010679D01*
X011062Y010699D01*
X011090Y010727D01*
X011110Y010761D01*
X011120Y010799D01*
X011120Y011064D01*
X010764Y011064D01*
X010764Y011164D01*
X011120Y011164D01*
X011120Y011429D01*
X011110Y011467D01*
X011090Y011502D01*
X011062Y011530D01*
X011028Y011549D01*
X010990Y011559D01*
X010764Y011559D01*
X010764Y011164D01*
X010664Y011164D01*
X010664Y011559D01*
X010438Y011559D01*
X010400Y011549D01*
X010366Y011530D01*
X010325Y011574D02*
X010590Y011574D01*
X010590Y011930D01*
X010690Y011930D01*
X010690Y011574D01*
X010955Y011574D01*
X010993Y011585D01*
X011027Y011604D01*
X011055Y011632D01*
X011075Y011666D01*
X011085Y011705D01*
X011085Y011930D01*
X010690Y011930D01*
X010690Y012030D01*
X011085Y012030D01*
X011085Y012256D01*
X011075Y012294D01*
X011055Y012328D01*
X011027Y012356D01*
X010994Y012375D01*
X011045Y012427D01*
X011045Y013030D01*
X010981Y013094D01*
X010299Y013094D01*
X010235Y013030D01*
X010235Y012958D01*
X009765Y012958D01*
X009630Y012823D01*
X009630Y012284D01*
X009441Y012284D01*
X009441Y012308D01*
X009376Y012373D01*
X008892Y012373D01*
X008827Y012308D01*
X008827Y011666D01*
X008892Y011602D01*
X009376Y011602D01*
X009441Y011666D01*
X009441Y011824D01*
X009682Y011824D01*
X009697Y011810D01*
X009803Y011766D01*
X009917Y011766D01*
X010023Y011810D01*
X010105Y011891D01*
X010148Y011997D01*
X010148Y012112D01*
X010105Y012218D01*
X010090Y012232D01*
X010090Y012498D01*
X010235Y012498D01*
X010235Y012427D01*
X010286Y012375D01*
X010253Y012356D01*
X010225Y012328D01*
X010205Y012294D01*
X010195Y012256D01*
X010195Y012030D01*
X010590Y012030D01*
X010590Y011930D01*
X010195Y011930D01*
X010195Y011705D01*
X010205Y011666D01*
X010225Y011632D01*
X010253Y011604D01*
X010287Y011585D01*
X010325Y011574D01*
X010231Y011626D02*
X009401Y011626D01*
X009441Y011725D02*
X010195Y011725D01*
X010195Y011823D02*
X010037Y011823D01*
X010117Y011922D02*
X010195Y011922D01*
X010148Y012020D02*
X010590Y012020D01*
X010590Y011922D02*
X010690Y011922D01*
X010690Y012020D02*
X011430Y012020D01*
X011430Y011922D02*
X011085Y011922D01*
X011085Y011823D02*
X011430Y011823D01*
X011430Y011725D02*
X011085Y011725D01*
X011049Y011626D02*
X011430Y011626D01*
X011394Y011528D02*
X011064Y011528D01*
X011120Y011429D02*
X011295Y011429D01*
X011230Y011331D02*
X011120Y011331D01*
X011120Y011232D02*
X011230Y011232D01*
X011230Y011134D02*
X010764Y011134D01*
X010764Y011232D02*
X010664Y011232D01*
X010664Y011331D02*
X010764Y011331D01*
X010764Y011429D02*
X010664Y011429D01*
X010664Y011528D02*
X010764Y011528D01*
X010690Y011626D02*
X010590Y011626D01*
X010590Y011725D02*
X010690Y011725D01*
X010690Y011823D02*
X010590Y011823D01*
X010195Y012119D02*
X010145Y012119D01*
X010105Y012217D02*
X010195Y012217D01*
X010218Y012316D02*
X010090Y012316D01*
X010090Y012414D02*
X010247Y012414D01*
X010235Y013005D02*
X003450Y013005D01*
X003450Y012907D02*
X009713Y012907D01*
X009630Y012808D02*
X003444Y012808D01*
X003450Y012814D02*
X003233Y012597D01*
X002927Y012597D01*
X002710Y012814D01*
X002710Y013120D01*
X002927Y013337D01*
X003233Y013337D01*
X003450Y013120D01*
X003450Y012814D01*
X003346Y012710D02*
X009630Y012710D01*
X009630Y012611D02*
X003247Y012611D01*
X002913Y012611D02*
X002247Y012611D01*
X002228Y012513D02*
X009630Y012513D01*
X009630Y012414D02*
X002260Y012414D01*
X002260Y012316D02*
X008048Y012316D01*
X008049Y012321D02*
X008039Y012283D01*
X008039Y012036D01*
X008338Y012036D01*
X008338Y012413D01*
X008169Y012413D01*
X008131Y012403D01*
X008097Y012383D01*
X008069Y012355D01*
X008049Y012321D01*
X008039Y012217D02*
X002260Y012217D01*
X002260Y012119D02*
X008039Y012119D01*
X008039Y011939D02*
X008039Y011692D01*
X008049Y011654D01*
X008069Y011620D01*
X008097Y011592D01*
X008131Y011572D01*
X008169Y011562D01*
X008338Y011562D01*
X008338Y011939D01*
X008434Y011939D01*
X008434Y011562D01*
X008603Y011562D01*
X008641Y011572D01*
X008675Y011592D01*
X008703Y011620D01*
X008723Y011654D01*
X008733Y011692D01*
X008733Y011939D01*
X008434Y011939D01*
X008434Y012036D01*
X008338Y012036D01*
X008338Y011939D01*
X008039Y011939D01*
X008039Y011922D02*
X002260Y011922D01*
X002260Y012020D02*
X008338Y012020D01*
X008434Y012020D02*
X008827Y012020D01*
X008733Y012036D02*
X008733Y012283D01*
X008723Y012321D01*
X008703Y012355D01*
X008675Y012383D01*
X008641Y012403D01*
X008603Y012413D01*
X008434Y012413D01*
X008434Y012036D01*
X008733Y012036D01*
X008733Y012119D02*
X008827Y012119D01*
X008827Y012217D02*
X008733Y012217D01*
X008724Y012316D02*
X008834Y012316D01*
X008827Y011922D02*
X008733Y011922D01*
X008733Y011823D02*
X008827Y011823D01*
X008827Y011725D02*
X008733Y011725D01*
X008707Y011626D02*
X008867Y011626D01*
X009067Y011429D02*
X009600Y011429D01*
X009683Y011823D02*
X009441Y011823D01*
X009434Y012316D02*
X009630Y012316D01*
X008966Y013498D02*
X007367Y013498D01*
X007376Y013520D02*
X007376Y013635D01*
X007332Y013741D01*
X007251Y013822D01*
X007145Y013866D01*
X007030Y013866D01*
X006924Y013822D01*
X006843Y013741D01*
X006841Y013736D01*
X006840Y013736D01*
X006840Y014326D01*
X006857Y014310D01*
X006963Y014266D01*
X007077Y014266D01*
X007183Y014310D01*
X007265Y014391D01*
X007308Y014497D01*
X007308Y014612D01*
X007265Y014718D01*
X007183Y014799D01*
X007180Y014800D01*
X007180Y015468D01*
X008870Y015468D01*
X008870Y015566D02*
X007271Y015566D01*
X007265Y015551D02*
X007308Y015657D01*
X007308Y015772D01*
X007265Y015878D01*
X007183Y015959D01*
X007077Y016003D01*
X006963Y016003D01*
X006857Y015959D01*
X006775Y015878D01*
X006732Y015772D01*
X006732Y015699D01*
X006623Y015699D01*
X006517Y015655D01*
X006435Y015574D01*
X006392Y015468D01*
X006260Y015468D01*
X006260Y015566D02*
X006432Y015566D01*
X006392Y015468D02*
X006392Y015353D01*
X006435Y015247D01*
X006517Y015166D01*
X006520Y015164D01*
X006520Y013641D01*
X006520Y013640D01*
X006520Y013574D01*
X006520Y013509D01*
X006520Y013508D01*
X006520Y013508D01*
X006567Y013461D01*
X006614Y013415D01*
X006615Y013415D01*
X006680Y013415D01*
X006746Y013415D01*
X006747Y013415D01*
X006842Y013416D01*
X006843Y013414D01*
X006924Y013333D01*
X007030Y013289D01*
X007145Y013289D01*
X007251Y013333D01*
X007332Y013414D01*
X007376Y013520D01*
X007376Y013596D02*
X008870Y013596D01*
X008870Y013695D02*
X007351Y013695D01*
X007279Y013793D02*
X008870Y013793D01*
X008870Y013892D02*
X006840Y013892D01*
X006840Y013990D02*
X008870Y013990D01*
X008870Y014089D02*
X006840Y014089D01*
X006840Y014187D02*
X008870Y014187D01*
X008870Y014286D02*
X007126Y014286D01*
X007258Y014384D02*
X008870Y014384D01*
X008870Y014483D02*
X007303Y014483D01*
X007308Y014581D02*
X008870Y014581D01*
X008870Y014680D02*
X007280Y014680D01*
X007204Y014778D02*
X008870Y014778D01*
X008870Y014877D02*
X007180Y014877D01*
X007180Y014975D02*
X008870Y014975D01*
X008870Y015074D02*
X007180Y015074D01*
X007180Y015172D02*
X008870Y015172D01*
X008870Y015271D02*
X007180Y015271D01*
X007180Y015369D02*
X008870Y015369D01*
X008870Y015665D02*
X007308Y015665D01*
X007308Y015763D02*
X008870Y015763D01*
X008805Y015862D02*
X007271Y015862D01*
X007180Y015960D02*
X008758Y015960D01*
X008752Y016059D02*
X006260Y016059D01*
X006260Y016157D02*
X006417Y016157D01*
X006450Y016124D02*
X006790Y016124D01*
X007030Y016364D01*
X007030Y016704D01*
X006790Y016944D01*
X006450Y016944D01*
X006260Y016754D01*
X006260Y017726D01*
X006273Y017746D01*
X006317Y017746D01*
X006423Y017790D01*
X006505Y017871D01*
X006548Y017977D01*
X006548Y018092D01*
X006505Y018198D01*
X006434Y018268D01*
X006630Y018464D01*
X006630Y018804D01*
X006390Y019044D01*
X006050Y019044D01*
X005810Y018804D01*
X005810Y018464D01*
X006046Y018228D01*
X006015Y018198D01*
X005996Y018150D01*
X005985Y018178D01*
X005903Y018259D01*
X005797Y018303D01*
X005683Y018303D01*
X005577Y018259D01*
X005500Y018182D01*
X005423Y018259D01*
X005317Y018303D01*
X005203Y018303D01*
X005097Y018259D01*
X005015Y018178D01*
X005014Y018174D01*
X004468Y018174D01*
X004403Y018239D01*
X004297Y018283D01*
X004183Y018283D01*
X004080Y018240D01*
X004080Y018474D01*
X004834Y018474D01*
X004835Y018471D01*
X004917Y018390D01*
X005023Y018346D01*
X005137Y018346D01*
X005243Y018390D01*
X005325Y018471D01*
X005368Y018577D01*
X005368Y018692D01*
X005325Y018798D01*
X005298Y018824D01*
X005635Y018824D01*
X005770Y018959D01*
X005770Y019264D01*
X007285Y019264D01*
X007365Y019184D01*
X007555Y019184D01*
X007690Y019319D01*
X007690Y021276D01*
X007705Y021291D01*
X007748Y021397D01*
X007748Y021512D01*
X007705Y021618D01*
X007623Y021699D01*
X007517Y021743D01*
X007403Y021743D01*
X007297Y021699D01*
X007215Y021618D01*
X007172Y021512D01*
X007172Y021397D01*
X007215Y021291D01*
X007230Y021276D01*
X007230Y019724D01*
X005445Y019724D01*
X005310Y019589D01*
X005310Y019284D01*
X004835Y019284D01*
X004815Y019304D01*
X004625Y019304D01*
X004490Y019169D01*
X004490Y019164D01*
X002745Y019164D01*
X002610Y019029D01*
X002610Y018212D01*
X002570Y018252D01*
X002570Y019536D01*
X002625Y019591D01*
X002668Y019697D01*
X002668Y019812D01*
X002625Y019918D01*
X002543Y019999D01*
X007230Y019999D01*
X007230Y020097D02*
X002060Y020097D01*
X002060Y019999D02*
X002217Y019999D01*
X002135Y019918D01*
X002092Y019812D01*
X002092Y019697D01*
X002135Y019591D01*
X002190Y019536D01*
X002190Y018252D01*
X002135Y018198D01*
X002126Y018174D01*
X002035Y018264D01*
X001510Y018264D01*
X001510Y020411D01*
X001603Y020450D01*
X001685Y020531D01*
X001728Y020637D01*
X001728Y020752D01*
X001685Y020858D01*
X001603Y020939D01*
X001497Y020983D01*
X001383Y020983D01*
X001277Y020939D01*
X001262Y020924D01*
X001185Y020924D01*
X001050Y020789D01*
X001050Y017939D01*
X001185Y017804D01*
X001710Y017804D01*
X001710Y017719D01*
X001722Y017707D01*
X001508Y017707D01*
X001259Y017458D01*
X001259Y017106D01*
X001508Y016857D01*
X001860Y016857D01*
X002109Y017106D01*
X002109Y017340D01*
X002205Y017244D01*
X002715Y017244D01*
X002839Y017368D01*
X002917Y017290D01*
X002920Y017288D01*
X002920Y016502D01*
X002883Y016539D01*
X002777Y016583D01*
X002663Y016583D01*
X002557Y016539D01*
X002475Y016458D01*
X002432Y016352D01*
X002432Y016237D01*
X002475Y016131D01*
X002557Y016050D01*
X002560Y016048D01*
X002560Y015545D01*
X002517Y015563D01*
X002403Y015563D01*
X002297Y015519D01*
X002215Y015438D01*
X002172Y015332D01*
X002172Y015217D01*
X002215Y015111D01*
X002297Y015030D01*
X002300Y015028D01*
X002300Y014908D01*
X002394Y014814D01*
X002620Y014814D01*
X002620Y014668D01*
X002714Y014574D01*
X004206Y014574D01*
X004300Y014668D01*
X004300Y015234D01*
X006166Y015234D01*
X006260Y015328D01*
X006260Y016314D01*
X006450Y016124D01*
X006319Y016256D02*
X006260Y016256D01*
X006260Y015960D02*
X006860Y015960D01*
X006769Y015862D02*
X006260Y015862D01*
X006260Y015763D02*
X006732Y015763D01*
X006541Y015665D02*
X006260Y015665D01*
X006260Y015369D02*
X006392Y015369D01*
X006426Y015271D02*
X006203Y015271D01*
X006100Y015394D02*
X004140Y015394D01*
X004140Y014734D01*
X002780Y014734D01*
X002780Y014974D01*
X002460Y014974D01*
X002460Y015274D01*
X002253Y015074D02*
X001951Y015074D01*
X001968Y014975D02*
X002300Y014975D01*
X002331Y014877D02*
X001952Y014877D01*
X001892Y014778D02*
X002620Y014778D01*
X002620Y014680D02*
X001820Y014680D01*
X001820Y014581D02*
X002707Y014581D01*
X002875Y014286D02*
X002341Y014286D01*
X002440Y014187D02*
X002777Y014187D01*
X002710Y014120D02*
X002710Y013814D01*
X002927Y013597D01*
X003233Y013597D01*
X003450Y013814D01*
X003450Y014120D01*
X003233Y014337D01*
X002927Y014337D01*
X002710Y014120D01*
X002710Y014089D02*
X002490Y014089D01*
X002490Y013892D02*
X002710Y013892D01*
X002710Y013990D02*
X002110Y013990D01*
X002110Y013892D02*
X002050Y013892D01*
X002050Y013793D02*
X002110Y013793D01*
X002110Y013695D02*
X002050Y013695D01*
X002050Y013596D02*
X002110Y013596D01*
X002289Y013596D02*
X006520Y013596D01*
X006520Y013695D02*
X003331Y013695D01*
X003429Y013793D02*
X006520Y013793D01*
X006520Y013892D02*
X003450Y013892D01*
X003450Y013990D02*
X006520Y013990D01*
X006520Y014089D02*
X003450Y014089D01*
X003383Y014187D02*
X006520Y014187D01*
X006520Y014286D02*
X003285Y014286D01*
X003120Y014974D02*
X003120Y015174D01*
X002860Y015174D01*
X002860Y015414D01*
X002780Y015414D01*
X002780Y015554D01*
X002720Y015554D01*
X002720Y016294D01*
X002587Y016551D02*
X002073Y016551D01*
X002149Y016475D02*
X001877Y016747D01*
X001714Y016747D01*
X001714Y016312D01*
X002149Y016312D01*
X002149Y016475D01*
X002149Y016453D02*
X002473Y016453D01*
X002433Y016354D02*
X002149Y016354D01*
X002149Y016252D02*
X001714Y016252D01*
X001714Y015817D01*
X001877Y015817D01*
X002149Y016090D01*
X002149Y016252D01*
X002149Y016157D02*
X002465Y016157D01*
X002432Y016256D02*
X001714Y016256D01*
X001714Y016252D02*
X001714Y016312D01*
X001654Y016312D01*
X001654Y016252D01*
X001714Y016252D01*
X001654Y016252D02*
X001654Y015817D01*
X001491Y015817D01*
X001219Y016090D01*
X001219Y016252D01*
X001654Y016252D01*
X001654Y016256D02*
X001000Y016256D01*
X001000Y016354D02*
X001219Y016354D01*
X001219Y016312D02*
X001654Y016312D01*
X001654Y016747D01*
X001491Y016747D01*
X001219Y016475D01*
X001219Y016312D01*
X001219Y016453D02*
X001000Y016453D01*
X001000Y016551D02*
X001295Y016551D01*
X001394Y016650D02*
X001000Y016650D01*
X001000Y016748D02*
X002920Y016748D01*
X002920Y016650D02*
X001974Y016650D01*
X001948Y016945D02*
X002920Y016945D01*
X002920Y016847D02*
X001000Y016847D01*
X001000Y016945D02*
X001420Y016945D01*
X001321Y017044D02*
X001000Y017044D01*
X001000Y017142D02*
X001259Y017142D01*
X001259Y017241D02*
X001000Y017241D01*
X001000Y017339D02*
X001259Y017339D01*
X001259Y017438D02*
X001000Y017438D01*
X001000Y017536D02*
X001337Y017536D01*
X001435Y017635D02*
X001000Y017635D01*
X001000Y017733D02*
X001710Y017733D01*
X001510Y018324D02*
X002190Y018324D01*
X002190Y018423D02*
X001510Y018423D01*
X001510Y018521D02*
X002190Y018521D01*
X002190Y018620D02*
X002039Y018620D01*
X002063Y018630D02*
X002145Y018711D01*
X002188Y018817D01*
X002188Y018932D01*
X002145Y019038D01*
X002063Y019119D01*
X002060Y019120D01*
X002060Y022300D01*
X001966Y022394D01*
X001866Y022394D01*
X001865Y022398D01*
X001783Y022479D01*
X001677Y022523D01*
X001563Y022523D01*
X001457Y022479D01*
X001375Y022398D01*
X001332Y022292D01*
X001332Y022177D01*
X001375Y022071D01*
X001457Y021990D01*
X001563Y021946D01*
X001677Y021946D01*
X001740Y021972D01*
X001740Y019120D01*
X001737Y019119D01*
X001655Y019038D01*
X001612Y018932D01*
X001612Y018817D01*
X001655Y018711D01*
X001737Y018630D01*
X001843Y018586D01*
X001957Y018586D01*
X002063Y018630D01*
X002148Y018718D02*
X002190Y018718D01*
X002188Y018817D02*
X002190Y018817D01*
X002188Y018915D02*
X002190Y018915D01*
X002190Y019014D02*
X002154Y019014D01*
X002190Y019112D02*
X002070Y019112D01*
X002060Y019211D02*
X002190Y019211D01*
X002190Y019309D02*
X002060Y019309D01*
X002060Y019408D02*
X002190Y019408D01*
X002190Y019506D02*
X002060Y019506D01*
X002060Y019605D02*
X002130Y019605D01*
X002092Y019703D02*
X002060Y019703D01*
X002060Y019802D02*
X002092Y019802D01*
X002060Y019900D02*
X002128Y019900D01*
X002217Y019999D02*
X002323Y020043D01*
X002437Y020043D01*
X002543Y019999D01*
X002632Y019900D02*
X007230Y019900D01*
X007230Y019802D02*
X002668Y019802D01*
X002668Y019703D02*
X005424Y019703D01*
X005325Y019605D02*
X002630Y019605D01*
X002570Y019506D02*
X005310Y019506D01*
X005310Y019408D02*
X002570Y019408D01*
X002570Y019309D02*
X005310Y019309D01*
X005305Y018817D02*
X005823Y018817D01*
X005810Y018718D02*
X005357Y018718D01*
X005368Y018620D02*
X005810Y018620D01*
X005810Y018521D02*
X005345Y018521D01*
X005276Y018423D02*
X005852Y018423D01*
X005950Y018324D02*
X004080Y018324D01*
X004080Y018423D02*
X004884Y018423D01*
X005064Y018226D02*
X004416Y018226D01*
X004240Y018014D02*
X005260Y018014D01*
X005456Y018226D02*
X005544Y018226D01*
X005740Y018014D02*
X005740Y015614D01*
X003880Y015614D01*
X003880Y014974D01*
X003120Y014974D01*
X003440Y015334D02*
X003440Y017134D01*
X003080Y017534D02*
X003080Y015734D01*
X002560Y015763D02*
X001000Y015763D01*
X001000Y015665D02*
X001383Y015665D01*
X001447Y015862D02*
X001000Y015862D01*
X001000Y015960D02*
X001348Y015960D01*
X001250Y016059D02*
X001000Y016059D01*
X001000Y016157D02*
X001219Y016157D01*
X001046Y015566D02*
X001000Y015566D01*
X001000Y015468D02*
X001000Y015468D01*
X001000Y015369D02*
X001000Y015369D01*
X001000Y015271D02*
X001000Y015271D01*
X001000Y015172D02*
X001000Y015172D01*
X001000Y015074D02*
X001000Y015074D01*
X001000Y014975D02*
X001000Y014975D01*
X001000Y014877D02*
X001000Y014877D01*
X001000Y014778D02*
X001000Y014778D01*
X001000Y014680D02*
X001000Y014680D01*
X001000Y014581D02*
X001000Y014581D01*
X001000Y014483D02*
X001000Y014483D01*
X001000Y014384D02*
X001000Y014384D01*
X001000Y014286D02*
X001000Y014286D01*
X001000Y014187D02*
X001000Y014187D01*
X001000Y014089D02*
X001000Y014089D01*
X001000Y013990D02*
X001000Y013990D01*
X001000Y013892D02*
X001000Y013892D01*
X001000Y013793D02*
X001000Y013793D01*
X001000Y013695D02*
X001000Y013695D01*
X001000Y013596D02*
X001000Y013596D01*
X001000Y013498D02*
X001000Y013498D01*
X001000Y013399D02*
X001000Y013399D01*
X001000Y013301D02*
X001000Y013301D01*
X001000Y013202D02*
X001000Y013202D01*
X001000Y013104D02*
X001000Y013104D01*
X001000Y013005D02*
X001000Y013005D01*
X001000Y012907D02*
X001000Y012907D01*
X001000Y012808D02*
X001000Y012808D01*
X001000Y012710D02*
X001000Y012710D01*
X001000Y012611D02*
X001000Y012611D01*
X001000Y012513D02*
X001000Y012513D01*
X001000Y012414D02*
X001000Y012414D01*
X001000Y012374D02*
X001000Y012374D01*
X001160Y012054D02*
X001160Y015454D01*
X001580Y015454D01*
X001356Y015271D02*
X001320Y015271D01*
X001320Y015172D02*
X001470Y015172D01*
X001409Y015074D02*
X001320Y015074D01*
X001320Y014975D02*
X001392Y014975D01*
X001408Y014877D02*
X001320Y014877D01*
X001804Y015271D02*
X002172Y015271D01*
X002187Y015369D02*
X001857Y015369D01*
X001868Y015468D02*
X002246Y015468D01*
X002190Y015172D02*
X001890Y015172D01*
X001846Y015566D02*
X002560Y015566D01*
X002560Y015665D02*
X001777Y015665D01*
X001714Y015862D02*
X001654Y015862D01*
X001654Y015960D02*
X001714Y015960D01*
X001714Y016059D02*
X001654Y016059D01*
X001654Y016157D02*
X001714Y016157D01*
X001714Y016354D02*
X001654Y016354D01*
X001654Y016453D02*
X001714Y016453D01*
X001714Y016551D02*
X001654Y016551D01*
X001654Y016650D02*
X001714Y016650D01*
X002047Y017044D02*
X002920Y017044D01*
X002920Y017142D02*
X002109Y017142D01*
X002109Y017241D02*
X002920Y017241D01*
X002867Y017339D02*
X002810Y017339D01*
X002853Y016551D02*
X002920Y016551D01*
X002548Y016059D02*
X002118Y016059D01*
X002020Y015960D02*
X002560Y015960D01*
X002560Y015862D02*
X001921Y015862D01*
X001820Y014483D02*
X006520Y014483D01*
X006520Y014581D02*
X004213Y014581D01*
X004300Y014680D02*
X006520Y014680D01*
X006520Y014778D02*
X004300Y014778D01*
X004300Y014877D02*
X006520Y014877D01*
X006520Y014975D02*
X004300Y014975D01*
X004300Y015074D02*
X006520Y015074D01*
X006510Y015172D02*
X004300Y015172D01*
X003920Y016114D02*
X003920Y018634D01*
X005080Y018634D01*
X005726Y018915D02*
X005921Y018915D01*
X006020Y019014D02*
X005770Y019014D01*
X005770Y019112D02*
X011390Y019112D01*
X011390Y019014D02*
X007420Y019014D01*
X007390Y019044D02*
X007630Y018804D01*
X007630Y018464D01*
X007390Y018224D01*
X007050Y018224D01*
X006810Y018464D01*
X006810Y018804D01*
X007050Y019044D01*
X007390Y019044D01*
X007338Y019211D02*
X005770Y019211D01*
X005936Y018226D02*
X006044Y018226D01*
X006260Y018034D02*
X006260Y018014D01*
X006100Y017774D01*
X006100Y015394D01*
X006680Y015410D02*
X006680Y013575D01*
X007087Y013577D01*
X006896Y013793D02*
X006840Y013793D01*
X006857Y013399D02*
X001820Y013399D01*
X001820Y013301D02*
X001890Y013301D01*
X001820Y013498D02*
X006530Y013498D01*
X006614Y013415D02*
X006614Y013415D01*
X007001Y013301D02*
X003270Y013301D01*
X003368Y013202D02*
X011390Y013202D01*
X011390Y013104D02*
X003450Y013104D01*
X002890Y013301D02*
X002270Y013301D01*
X002368Y013202D02*
X002792Y013202D01*
X002710Y013104D02*
X002450Y013104D01*
X002450Y013005D02*
X002710Y013005D01*
X002710Y012907D02*
X002450Y012907D01*
X002444Y012808D02*
X002716Y012808D01*
X002814Y012710D02*
X002346Y012710D01*
X002260Y011823D02*
X008039Y011823D01*
X008039Y011725D02*
X002260Y011725D01*
X002260Y011626D02*
X008065Y011626D01*
X008338Y011626D02*
X008434Y011626D01*
X008434Y011725D02*
X008338Y011725D01*
X008338Y011823D02*
X008434Y011823D01*
X008434Y011922D02*
X008338Y011922D01*
X008338Y012119D02*
X008434Y012119D01*
X008434Y012217D02*
X008338Y012217D01*
X008338Y012316D02*
X008434Y012316D01*
X008453Y011429D02*
X006267Y011429D01*
X006306Y010838D02*
X008453Y010838D01*
X008513Y010740D02*
X006306Y010740D01*
X005594Y010740D02*
X005362Y010740D01*
X005362Y010734D02*
X005362Y010999D01*
X005016Y010999D01*
X005016Y011099D01*
X004916Y011099D01*
X004916Y011494D01*
X004700Y011494D01*
X004662Y011484D01*
X004628Y011464D01*
X004600Y011436D01*
X004580Y011402D01*
X004570Y011364D01*
X004570Y011099D01*
X004916Y011099D01*
X004916Y010999D01*
X004570Y010999D01*
X004570Y010734D01*
X004580Y010696D01*
X004600Y010662D01*
X004628Y010634D01*
X004662Y010614D01*
X004700Y010604D01*
X004916Y010604D01*
X004916Y010999D01*
X005016Y010999D01*
X005016Y010604D01*
X005232Y010604D01*
X005270Y010614D01*
X005304Y010634D01*
X005332Y010662D01*
X005352Y010696D01*
X005362Y010734D01*
X005362Y010838D02*
X005594Y010838D01*
X005594Y010937D02*
X005362Y010937D01*
X005362Y011099D02*
X005362Y011364D01*
X005352Y011402D01*
X005332Y011436D01*
X005304Y011464D01*
X005270Y011484D01*
X005232Y011494D01*
X005016Y011494D01*
X005016Y011099D01*
X005362Y011099D01*
X005362Y011134D02*
X005594Y011134D01*
X005594Y011232D02*
X005362Y011232D01*
X005362Y011331D02*
X005594Y011331D01*
X005634Y011429D02*
X005336Y011429D01*
X005016Y011429D02*
X004916Y011429D01*
X004916Y011331D02*
X005016Y011331D01*
X005016Y011232D02*
X004916Y011232D01*
X004916Y011134D02*
X005016Y011134D01*
X005016Y011035D02*
X005594Y011035D01*
X005312Y010641D02*
X013140Y010641D01*
X013140Y010740D02*
X011097Y010740D01*
X011120Y010838D02*
X011416Y010838D01*
X011318Y010937D02*
X011120Y010937D01*
X011120Y011035D02*
X011230Y011035D01*
X010764Y011035D02*
X010664Y011035D01*
X010664Y010937D02*
X010764Y010937D01*
X010764Y010838D02*
X010664Y010838D01*
X010664Y010740D02*
X010764Y010740D01*
X010331Y010740D02*
X010298Y010740D01*
X009634Y010740D02*
X009007Y010740D01*
X009067Y010838D02*
X009600Y010838D01*
X011085Y012119D02*
X011430Y012119D01*
X011397Y012217D02*
X011085Y012217D01*
X011063Y012316D02*
X011390Y012316D01*
X011390Y012414D02*
X011033Y012414D01*
X011045Y012513D02*
X011390Y012513D01*
X011390Y012611D02*
X011045Y012611D01*
X011045Y012710D02*
X011390Y012710D01*
X011390Y012808D02*
X011045Y012808D01*
X011045Y012907D02*
X011390Y012907D01*
X011390Y013005D02*
X011045Y013005D01*
X011390Y013301D02*
X007174Y013301D01*
X007317Y013399D02*
X011390Y013399D01*
X011050Y014975D02*
X010830Y014975D01*
X010830Y015074D02*
X011050Y015074D01*
X011050Y015172D02*
X010830Y015172D01*
X010830Y015271D02*
X011050Y015271D01*
X011050Y015369D02*
X010830Y015369D01*
X010830Y015468D02*
X011050Y015468D01*
X011050Y015566D02*
X010830Y015566D01*
X010830Y015665D02*
X011050Y015665D01*
X011050Y015763D02*
X010830Y015763D01*
X010830Y015862D02*
X011050Y015862D01*
X011050Y015960D02*
X010834Y015960D01*
X010916Y016059D02*
X011050Y016059D01*
X011029Y016157D02*
X010948Y016157D01*
X010947Y016256D02*
X010957Y016256D01*
X010932Y016354D02*
X010906Y016354D01*
X010940Y016453D02*
X010790Y016453D01*
X010989Y016551D02*
X010411Y016551D01*
X010460Y016453D02*
X010530Y016453D01*
X010268Y016650D02*
X011132Y016650D01*
X011308Y016650D02*
X011390Y016650D01*
X011390Y016748D02*
X006986Y016748D01*
X007030Y016650D02*
X009303Y016650D01*
X009193Y016551D02*
X007030Y016551D01*
X007030Y016453D02*
X009152Y016453D01*
X009152Y016354D02*
X007020Y016354D01*
X006921Y016256D02*
X008854Y016256D01*
X008779Y016157D02*
X006823Y016157D01*
X007020Y015714D02*
X007020Y014554D01*
X006914Y014286D02*
X006840Y014286D01*
X006520Y014384D02*
X001820Y014384D01*
X002050Y014286D02*
X002110Y014286D01*
X002110Y014187D02*
X002050Y014187D01*
X002050Y014089D02*
X002110Y014089D01*
X002387Y013695D02*
X002829Y013695D01*
X002731Y013793D02*
X002486Y013793D01*
X001871Y013596D02*
X001820Y013596D01*
X001260Y012054D02*
X001160Y012054D01*
X001010Y011725D02*
X001000Y011725D01*
X001000Y010641D02*
X004620Y010641D01*
X004570Y010740D02*
X004338Y010740D01*
X004338Y010708D02*
X004338Y011390D01*
X004273Y011454D01*
X003690Y011454D01*
X003626Y011390D01*
X003626Y010708D01*
X003690Y010644D01*
X004273Y010644D01*
X004338Y010708D01*
X004338Y010838D02*
X004570Y010838D01*
X004570Y010937D02*
X004338Y010937D01*
X004338Y011035D02*
X004916Y011035D01*
X004916Y010937D02*
X005016Y010937D01*
X005016Y010838D02*
X004916Y010838D01*
X004916Y010740D02*
X005016Y010740D01*
X005016Y010641D02*
X004916Y010641D01*
X004570Y011134D02*
X004338Y011134D01*
X004338Y011232D02*
X004570Y011232D01*
X004570Y011331D02*
X004338Y011331D01*
X004298Y011429D02*
X004596Y011429D01*
X003665Y011429D02*
X002445Y011429D01*
X002510Y011331D02*
X003626Y011331D01*
X003626Y011232D02*
X002510Y011232D01*
X002510Y011134D02*
X003626Y011134D01*
X007180Y015468D02*
X007183Y015470D01*
X007265Y015551D01*
X006887Y016847D02*
X011390Y016847D01*
X011390Y016945D02*
X006260Y016945D01*
X006260Y016847D02*
X006353Y016847D01*
X006260Y017044D02*
X011390Y017044D01*
X011390Y017142D02*
X006260Y017142D01*
X006260Y017241D02*
X011390Y017241D01*
X011390Y017339D02*
X006260Y017339D01*
X006260Y017438D02*
X011390Y017438D01*
X011390Y017536D02*
X006260Y017536D01*
X006260Y017635D02*
X011390Y017635D01*
X011390Y017733D02*
X006265Y017733D01*
X006465Y017832D02*
X011390Y017832D01*
X011390Y017930D02*
X006529Y017930D01*
X006548Y018029D02*
X011390Y018029D01*
X011390Y018127D02*
X006534Y018127D01*
X006476Y018226D02*
X007049Y018226D01*
X006950Y018324D02*
X006490Y018324D01*
X006588Y018423D02*
X006852Y018423D01*
X006810Y018521D02*
X006630Y018521D01*
X006630Y018620D02*
X006810Y018620D01*
X006810Y018718D02*
X006630Y018718D01*
X006617Y018817D02*
X006823Y018817D01*
X006921Y018915D02*
X006519Y018915D01*
X006420Y019014D02*
X007020Y019014D01*
X007519Y018915D02*
X011390Y018915D01*
X011390Y018817D02*
X007617Y018817D01*
X007630Y018718D02*
X011390Y018718D01*
X011390Y018620D02*
X007630Y018620D01*
X007630Y018521D02*
X011390Y018521D01*
X011390Y018423D02*
X007588Y018423D01*
X007490Y018324D02*
X011390Y018324D01*
X011390Y018226D02*
X007391Y018226D01*
X007582Y019211D02*
X011390Y019211D01*
X011390Y019309D02*
X007680Y019309D01*
X007690Y019408D02*
X011390Y019408D01*
X011390Y019506D02*
X009229Y019506D01*
X009203Y019481D02*
X009285Y019562D01*
X009328Y019668D01*
X009328Y019783D01*
X009285Y019889D01*
X009270Y019903D01*
X009270Y021704D01*
X009279Y021725D01*
X009286Y021738D01*
X009285Y021741D01*
X009308Y021797D01*
X009308Y021912D01*
X009265Y022018D01*
X009183Y022099D01*
X009077Y022143D01*
X008963Y022143D01*
X008857Y022099D01*
X008775Y022018D01*
X008732Y021912D01*
X008732Y021797D01*
X008775Y021691D01*
X008810Y021656D01*
X008810Y019903D01*
X008795Y019889D01*
X008752Y019783D01*
X008752Y019668D01*
X008795Y019562D01*
X008877Y019481D01*
X008983Y019437D01*
X009097Y019437D01*
X009203Y019481D01*
X009302Y019605D02*
X011338Y019605D01*
X011312Y019703D02*
X009328Y019703D01*
X009321Y019802D02*
X011319Y019802D01*
X011367Y019900D02*
X009273Y019900D01*
X009270Y019999D02*
X011506Y019999D01*
X011694Y019999D02*
X013140Y019999D01*
X013140Y020097D02*
X009270Y020097D01*
X009270Y020196D02*
X013140Y020196D01*
X013140Y020294D02*
X009270Y020294D01*
X009270Y020393D02*
X013140Y020393D01*
X013140Y020491D02*
X009270Y020491D01*
X009270Y020590D02*
X013140Y020590D01*
X013140Y020688D02*
X009270Y020688D01*
X009270Y020787D02*
X009489Y020787D01*
X009546Y020729D02*
X009709Y020729D01*
X009709Y021164D01*
X009769Y021164D01*
X009769Y020729D01*
X009932Y020729D01*
X010204Y021002D01*
X010204Y021164D01*
X009769Y021164D01*
X009769Y021224D01*
X010204Y021224D01*
X010204Y021387D01*
X009932Y021659D01*
X009769Y021659D01*
X009769Y021224D01*
X009709Y021224D01*
X009709Y021164D01*
X009274Y021164D01*
X009274Y021002D01*
X009546Y020729D01*
X009709Y020787D02*
X009769Y020787D01*
X009769Y020885D02*
X009709Y020885D01*
X009709Y020984D02*
X009769Y020984D01*
X009769Y021082D02*
X009709Y021082D01*
X009709Y021181D02*
X009270Y021181D01*
X009274Y021224D02*
X009709Y021224D01*
X009709Y021659D01*
X009546Y021659D01*
X009274Y021387D01*
X009274Y021224D01*
X009270Y021279D02*
X009274Y021279D01*
X009270Y021378D02*
X009274Y021378D01*
X009270Y021476D02*
X009363Y021476D01*
X009270Y021575D02*
X009462Y021575D01*
X009709Y021575D02*
X009769Y021575D01*
X009769Y021476D02*
X009709Y021476D01*
X009709Y021378D02*
X009769Y021378D01*
X009769Y021279D02*
X009709Y021279D01*
X009769Y021181D02*
X010314Y021181D01*
X010314Y021279D02*
X010204Y021279D01*
X010204Y021378D02*
X010322Y021378D01*
X010314Y021370D02*
X010314Y021018D01*
X010563Y020769D01*
X010915Y020769D01*
X011164Y021018D01*
X011164Y021370D01*
X010915Y021619D01*
X010563Y021619D01*
X010314Y021370D01*
X010420Y021476D02*
X010115Y021476D01*
X010016Y021575D02*
X010519Y021575D01*
X010314Y021082D02*
X010204Y021082D01*
X010186Y020984D02*
X010348Y020984D01*
X010447Y020885D02*
X010088Y020885D01*
X009989Y020787D02*
X010545Y020787D01*
X010933Y020787D02*
X013140Y020787D01*
X013140Y020885D02*
X011031Y020885D01*
X011130Y020984D02*
X013140Y020984D01*
X013140Y021082D02*
X011164Y021082D01*
X011164Y021181D02*
X013140Y021181D01*
X013140Y021279D02*
X011164Y021279D01*
X011156Y021378D02*
X013140Y021378D01*
X013140Y021476D02*
X011058Y021476D01*
X010959Y021575D02*
X013140Y021575D01*
X013140Y021673D02*
X009270Y021673D01*
X009298Y021772D02*
X013140Y021772D01*
X013140Y021870D02*
X009308Y021870D01*
X009285Y021969D02*
X013140Y021969D01*
X013140Y022067D02*
X009215Y022067D01*
X008825Y022067D02*
X006630Y022067D01*
X006630Y021969D02*
X008755Y021969D01*
X008732Y021870D02*
X006630Y021870D01*
X006630Y021772D02*
X008742Y021772D01*
X008793Y021673D02*
X007649Y021673D01*
X007722Y021575D02*
X008810Y021575D01*
X008810Y021476D02*
X007748Y021476D01*
X007741Y021378D02*
X008810Y021378D01*
X008810Y021279D02*
X007693Y021279D01*
X007690Y021181D02*
X008810Y021181D01*
X008810Y021082D02*
X007690Y021082D01*
X007690Y020984D02*
X008810Y020984D01*
X008810Y020885D02*
X007690Y020885D01*
X007690Y020787D02*
X008810Y020787D01*
X008810Y020688D02*
X007690Y020688D01*
X007690Y020590D02*
X008810Y020590D01*
X008810Y020491D02*
X007690Y020491D01*
X007690Y020393D02*
X008810Y020393D01*
X008810Y020294D02*
X007690Y020294D01*
X007690Y020196D02*
X008810Y020196D01*
X008810Y020097D02*
X007690Y020097D01*
X007690Y019999D02*
X008810Y019999D01*
X008807Y019900D02*
X007690Y019900D01*
X007690Y019802D02*
X008759Y019802D01*
X008752Y019703D02*
X007690Y019703D01*
X007690Y019605D02*
X008778Y019605D01*
X008851Y019506D02*
X007690Y019506D01*
X007230Y020196D02*
X002060Y020196D01*
X002060Y020294D02*
X007230Y020294D01*
X007230Y020393D02*
X002060Y020393D01*
X002060Y020491D02*
X007230Y020491D01*
X007230Y020590D02*
X002060Y020590D01*
X002060Y020688D02*
X007230Y020688D01*
X007230Y020787D02*
X002060Y020787D01*
X002060Y020885D02*
X007230Y020885D01*
X007230Y020984D02*
X006617Y020984D01*
X006698Y021082D02*
X007230Y021082D01*
X007230Y021181D02*
X006728Y021181D01*
X006725Y021279D02*
X007227Y021279D01*
X007179Y021378D02*
X006684Y021378D01*
X006630Y021476D02*
X007172Y021476D01*
X007198Y021575D02*
X006630Y021575D01*
X006630Y021673D02*
X007271Y021673D01*
X006712Y022658D02*
X013140Y022658D01*
X013140Y022560D02*
X006653Y022560D01*
X006630Y022461D02*
X013140Y022461D01*
X013140Y022363D02*
X006630Y022363D01*
X006630Y022264D02*
X013140Y022264D01*
X013140Y022166D02*
X006630Y022166D01*
X006250Y022166D02*
X002060Y022166D01*
X002060Y022264D02*
X006250Y022264D01*
X006250Y022363D02*
X001998Y022363D01*
X001900Y022234D02*
X001900Y018874D01*
X001761Y018620D02*
X001510Y018620D01*
X001510Y018718D02*
X001652Y018718D01*
X001612Y018817D02*
X001510Y018817D01*
X001510Y018915D02*
X001612Y018915D01*
X001646Y019014D02*
X001510Y019014D01*
X001510Y019112D02*
X001730Y019112D01*
X001740Y019211D02*
X001510Y019211D01*
X001510Y019309D02*
X001740Y019309D01*
X001740Y019408D02*
X001510Y019408D01*
X001510Y019506D02*
X001740Y019506D01*
X001740Y019605D02*
X001510Y019605D01*
X001510Y019703D02*
X001740Y019703D01*
X001740Y019802D02*
X001510Y019802D01*
X001510Y019900D02*
X001740Y019900D01*
X001740Y019999D02*
X001510Y019999D01*
X001510Y020097D02*
X001740Y020097D01*
X001740Y020196D02*
X001510Y020196D01*
X001510Y020294D02*
X001740Y020294D01*
X001740Y020393D02*
X001510Y020393D01*
X001645Y020491D02*
X001740Y020491D01*
X001740Y020590D02*
X001709Y020590D01*
X001728Y020688D02*
X001740Y020688D01*
X001740Y020787D02*
X001714Y020787D01*
X001740Y020885D02*
X001657Y020885D01*
X001740Y020984D02*
X001000Y020984D01*
X001000Y021082D02*
X001740Y021082D01*
X001740Y021181D02*
X001000Y021181D01*
X001000Y021279D02*
X001740Y021279D01*
X001740Y021378D02*
X001000Y021378D01*
X001000Y021476D02*
X001740Y021476D01*
X001740Y021575D02*
X001000Y021575D01*
X001000Y021673D02*
X001740Y021673D01*
X001740Y021772D02*
X001000Y021772D01*
X001000Y021870D02*
X001740Y021870D01*
X001733Y021969D02*
X001740Y021969D01*
X001620Y022234D02*
X001900Y022234D01*
X002060Y022067D02*
X006250Y022067D01*
X006250Y021969D02*
X002060Y021969D01*
X002060Y021870D02*
X006250Y021870D01*
X006250Y021772D02*
X002060Y021772D01*
X002060Y021673D02*
X006250Y021673D01*
X006250Y021575D02*
X002060Y021575D01*
X002060Y021476D02*
X006250Y021476D01*
X006196Y021378D02*
X002060Y021378D01*
X002060Y021279D02*
X006155Y021279D01*
X006152Y021181D02*
X002060Y021181D01*
X002060Y021082D02*
X006182Y021082D01*
X006263Y020984D02*
X002060Y020984D01*
X001507Y021969D02*
X001000Y021969D01*
X001000Y022067D02*
X001379Y022067D01*
X001336Y022166D02*
X001000Y022166D01*
X001000Y022264D02*
X001332Y022264D01*
X001361Y022363D02*
X001000Y022363D01*
X001000Y022461D02*
X001439Y022461D01*
X001801Y022461D02*
X006250Y022461D01*
X006227Y022560D02*
X001000Y022560D01*
X001000Y022658D02*
X006168Y022658D01*
X006152Y022757D02*
X001000Y022757D01*
X001000Y022855D02*
X006170Y022855D01*
X006710Y022855D02*
X013140Y022855D01*
X013140Y022757D02*
X006728Y022757D01*
X004531Y019211D02*
X002570Y019211D01*
X002570Y019112D02*
X002693Y019112D01*
X002610Y019014D02*
X002570Y019014D01*
X002570Y018915D02*
X002610Y018915D01*
X002610Y018817D02*
X002570Y018817D01*
X002570Y018718D02*
X002610Y018718D01*
X002610Y018620D02*
X002570Y018620D01*
X002570Y018521D02*
X002610Y018521D01*
X002610Y018423D02*
X002570Y018423D01*
X002570Y018324D02*
X002610Y018324D01*
X002596Y018226D02*
X002610Y018226D01*
X002164Y018226D02*
X002074Y018226D01*
X002109Y017339D02*
X002110Y017339D01*
X001157Y017832D02*
X001000Y017832D01*
X001000Y017930D02*
X001059Y017930D01*
X001050Y018029D02*
X001000Y018029D01*
X001000Y018127D02*
X001050Y018127D01*
X001050Y018226D02*
X001000Y018226D01*
X001000Y018324D02*
X001050Y018324D01*
X001050Y018423D02*
X001000Y018423D01*
X001000Y018521D02*
X001050Y018521D01*
X001050Y018620D02*
X001000Y018620D01*
X001000Y018718D02*
X001050Y018718D01*
X001050Y018817D02*
X001000Y018817D01*
X001000Y018915D02*
X001050Y018915D01*
X001050Y019014D02*
X001000Y019014D01*
X001000Y019112D02*
X001050Y019112D01*
X001050Y019211D02*
X001000Y019211D01*
X001000Y019309D02*
X001050Y019309D01*
X001050Y019408D02*
X001000Y019408D01*
X001000Y019506D02*
X001050Y019506D01*
X001050Y019605D02*
X001000Y019605D01*
X001000Y019703D02*
X001050Y019703D01*
X001050Y019802D02*
X001000Y019802D01*
X001000Y019900D02*
X001050Y019900D01*
X001050Y019999D02*
X001000Y019999D01*
X001000Y020097D02*
X001050Y020097D01*
X001050Y020196D02*
X001000Y020196D01*
X001000Y020294D02*
X001050Y020294D01*
X001050Y020393D02*
X001000Y020393D01*
X001000Y020491D02*
X001050Y020491D01*
X001050Y020590D02*
X001000Y020590D01*
X001000Y020688D02*
X001050Y020688D01*
X001050Y020787D02*
X001000Y020787D01*
X001000Y020885D02*
X001146Y020885D01*
X004240Y018014D02*
X004240Y017994D01*
X009270Y020885D02*
X009390Y020885D01*
X009292Y020984D02*
X009270Y020984D01*
X009270Y021082D02*
X009274Y021082D01*
X011833Y019900D02*
X013140Y019900D01*
X013140Y019802D02*
X011881Y019802D01*
X011888Y019703D02*
X013140Y019703D01*
X013140Y019605D02*
X011862Y019605D01*
X011850Y019506D02*
X013140Y019506D01*
X013140Y019408D02*
X011850Y019408D01*
X011850Y019309D02*
X013140Y019309D01*
X013140Y019211D02*
X011850Y019211D01*
X011850Y019112D02*
X013140Y019112D01*
X013140Y019014D02*
X011850Y019014D01*
X011850Y018915D02*
X013140Y018915D01*
X013140Y018817D02*
X011850Y018817D01*
X011850Y018718D02*
X013140Y018718D01*
X013140Y018620D02*
X011850Y018620D01*
X011850Y018521D02*
X013140Y018521D01*
X010092Y016650D02*
X009577Y016650D01*
X009687Y016551D02*
X009949Y016551D01*
X009900Y016453D02*
X009728Y016453D01*
X009728Y016354D02*
X009892Y016354D01*
X009917Y016256D02*
X009695Y016256D01*
X012765Y011429D02*
X013140Y011429D01*
X013140Y011331D02*
X012830Y011331D01*
X012830Y011232D02*
X013140Y011232D01*
X013140Y011134D02*
X012830Y011134D01*
X012830Y011035D02*
X013140Y011035D01*
X013140Y010937D02*
X012742Y010937D01*
X012644Y010838D02*
X013140Y010838D01*
X013133Y011528D02*
X013140Y011528D01*
X012196Y010838D02*
X011864Y010838D01*
X011962Y010937D02*
X012098Y010937D01*
D23*
X006440Y021214D02*
X006440Y022754D01*
X002380Y019754D02*
X002380Y018034D01*
D24*
X009040Y016034D02*
X009040Y013664D01*
X011560Y013664D01*
X011560Y012294D01*
X011600Y012294D01*
X011600Y011674D01*
X011640Y011674D01*
X011640Y011194D01*
X011860Y011634D02*
X011980Y011634D01*
X012420Y011194D01*
X012100Y011874D02*
X012860Y011874D01*
X012880Y011854D01*
X012880Y012594D02*
X012880Y012734D01*
X012200Y012734D01*
X012200Y014474D01*
X010180Y014474D01*
X010180Y016374D01*
X009860Y016074D02*
X009440Y016074D01*
X009440Y016394D01*
X009860Y016074D02*
X009860Y014214D01*
X012000Y014214D01*
X012000Y012574D01*
X012040Y012574D01*
X012040Y011954D01*
X012100Y011954D01*
X012100Y011874D01*
X011860Y011814D02*
X011860Y011634D01*
X011860Y011814D02*
X011820Y011814D01*
X011820Y012434D01*
X011780Y012434D01*
X011780Y013934D01*
X009480Y013934D01*
X009480Y015654D01*
X010660Y016194D02*
X010660Y014714D01*
X012460Y014714D01*
X012460Y013334D01*
X012880Y013334D01*
X012840Y014094D02*
X012840Y014994D01*
X011220Y014994D01*
X011220Y016374D01*
X012840Y014094D02*
X012880Y014114D01*
M02*
