G75*
%MOIN*%
%OFA0B0*%
%FSLAX24Y24*%
%IPPOS*%
%LPD*%
%AMOC8*
5,1,8,0,0,1.08239X$1,22.5*
%
%ADD10C,0.0160*%
%ADD11OC8,0.0710*%
%ADD12OC8,0.0600*%
%ADD13R,0.0572X0.0671*%
%ADD14R,0.0592X0.0671*%
%ADD15R,0.0474X0.0631*%
%ADD16R,0.0671X0.0592*%
%ADD17OC8,0.0680*%
%ADD18R,0.0680X0.0680*%
%ADD19C,0.0680*%
%ADD20C,0.0437*%
D10*
X000470Y000594D02*
X000470Y023444D01*
X013670Y023444D01*
X013670Y000594D01*
X000470Y000594D01*
D11*
X001684Y016282D03*
X001684Y017282D03*
X009739Y021194D03*
X010739Y021194D03*
D12*
X003080Y013967D03*
X003080Y012967D03*
X002080Y012967D03*
X002080Y013967D03*
D13*
X003982Y011049D03*
X004966Y011049D03*
X005950Y011049D03*
D14*
X009966Y011114D03*
X010714Y011114D03*
D15*
X009134Y011987D03*
X008760Y011121D03*
X008386Y011987D03*
D16*
X010640Y011980D03*
X010640Y012728D03*
D17*
X011640Y011194D03*
X012420Y011194D03*
X012880Y011854D03*
X012880Y012594D03*
X012880Y013334D03*
X012880Y014114D03*
X007220Y018634D03*
X006220Y018634D03*
X006620Y016534D03*
X002100Y011194D03*
X001260Y012054D03*
D18*
X008111Y003660D03*
D19*
X007323Y003660D03*
X006536Y003660D03*
X005748Y003660D03*
X004961Y003660D03*
D20*
X002880Y010934D03*
X004860Y011914D03*
X007087Y013577D03*
X007020Y014554D03*
X006680Y015410D03*
X007020Y015714D03*
X007260Y016374D03*
X006260Y018034D03*
X005740Y018014D03*
X005260Y018014D03*
X005080Y018634D03*
X004240Y017994D03*
X003440Y017134D03*
X003080Y017534D03*
X002380Y018034D03*
X001900Y018874D03*
X002380Y019754D03*
X001440Y020694D03*
X001620Y022234D03*
X002720Y016294D03*
X003080Y015734D03*
X003440Y015334D03*
X003920Y016114D03*
X002460Y015274D03*
X001680Y014974D03*
X001580Y015454D03*
X006440Y021214D03*
X006920Y021214D03*
X007460Y021454D03*
X006900Y022234D03*
X006440Y022754D03*
X007880Y020294D03*
X007820Y018932D03*
X009040Y019725D03*
X009020Y021854D03*
X011600Y019725D03*
X013020Y019754D03*
X011220Y016374D03*
X011620Y015694D03*
X010660Y016194D03*
X010180Y016374D03*
X009440Y016394D03*
X009040Y016034D03*
X009480Y015654D03*
X009860Y012054D03*
X011300Y012034D03*
M02*
