%
M48
M72
T01C0.0197
T02C0.0320
T03C0.0400
%
T01
X2880Y10934
X4860Y11914
X7087Y13577
X7020Y14554
X6680Y15410
X7020Y15714
X7260Y16374
X6260Y18034
X5740Y18014
X5260Y18014
X5080Y18634
X4240Y17994
X3440Y17134
X3080Y17534
X2380Y18034
X1900Y18874
X2380Y19754
X1440Y20694
X1620Y22234
X2720Y16294
X3080Y15734
X3440Y15334
X3920Y16114
X2460Y15274
X1680Y14974
X1580Y15454
X6440Y21214
X6920Y21214
X7460Y21454
X6900Y22234
X6440Y22754
X7880Y20294
X7820Y18932
X9040Y19725
X9020Y21854
X11600Y19725
X13020Y19754
X11220Y16374
X11620Y15694
X10660Y16194
X10180Y16374
X9440Y16394
X9040Y16034
X9480Y15654
X9860Y12054
X11300Y12034
T02
X10739Y21194
X9739Y21194
X3080Y13967
X3080Y12967
X2080Y12967
X2080Y13967
X1684Y16282
X1684Y17282
T03
X4961Y3660
X5748Y3660
X6536Y3660
X7323Y3660
X8111Y3660
X11640Y11194
X12420Y11194
X12880Y11854
X12880Y12594
X12880Y13334
X12880Y14114
X7220Y18634
X6220Y18634
X6620Y16534
X2100Y11194
X1260Y12054
M30
