G75*
%MOIN*%
%OFA0B0*%
%FSLAX24Y24*%
%IPPOS*%
%LPD*%
%AMOC8*
5,1,8,0,0,1.08239X$1,22.5*
%
%ADD10C,0.0100*%
%ADD11OC8,0.0710*%
%ADD12OC8,0.0600*%
%ADD13R,0.0572X0.0671*%
%ADD14R,0.0592X0.0671*%
%ADD15R,0.0474X0.0631*%
%ADD16R,0.0671X0.0592*%
%ADD17OC8,0.0680*%
%ADD18C,0.0437*%
D10*
X000470Y000430D02*
X000470Y013630D01*
X013670Y013630D01*
X013670Y000430D01*
X000470Y000430D01*
D11*
X001684Y006468D03*
X001684Y007468D03*
X009739Y011380D03*
X010739Y011380D03*
D12*
X003080Y004153D03*
X002080Y004153D03*
X002080Y003153D03*
X003080Y003153D03*
D13*
X003982Y001235D03*
X004966Y001235D03*
X005950Y001235D03*
D14*
X009966Y001300D03*
X010714Y001300D03*
D15*
X009134Y002173D03*
X008386Y002173D03*
X008760Y001307D03*
D16*
X010640Y002166D03*
X010640Y002914D03*
D17*
X011640Y001380D03*
X012420Y001380D03*
X012880Y002040D03*
X012880Y002780D03*
X012880Y003520D03*
X012880Y004300D03*
X007220Y008820D03*
X006220Y008820D03*
X006620Y006720D03*
X001260Y002240D03*
X002100Y001380D03*
D18*
X002880Y001120D03*
X004860Y002100D03*
X006680Y003860D03*
X007020Y004740D03*
X006680Y005596D03*
X007020Y005900D03*
X007260Y006560D03*
X009040Y006220D03*
X009440Y006580D03*
X010180Y006560D03*
X010660Y006380D03*
X011220Y006560D03*
X011620Y005880D03*
X009480Y005840D03*
X006260Y008220D03*
X005740Y008200D03*
X005260Y008200D03*
X005080Y008820D03*
X004240Y008180D03*
X003440Y007320D03*
X003080Y007720D03*
X002380Y008220D03*
X001900Y009060D03*
X002380Y009940D03*
X001440Y010880D03*
X001620Y012420D03*
X006440Y012940D03*
X006900Y012420D03*
X007460Y011640D03*
X006920Y011400D03*
X006440Y011400D03*
X007880Y010480D03*
X009040Y009911D03*
X007820Y009118D03*
X009020Y012040D03*
X011600Y009911D03*
X013020Y009940D03*
X011300Y002220D03*
X009860Y002240D03*
X003920Y006300D03*
X003440Y005520D03*
X003080Y005920D03*
X002720Y006480D03*
X002460Y005460D03*
X001680Y005160D03*
X001580Y005640D03*
M02*
