G75*
%MOIN*%
%OFA0B0*%
%FSLAX24Y24*%
%IPPOS*%
%LPD*%
%AMOC8*
5,1,8,0,0,1.08239X$1,22.5*
%
%ADD10C,0.0100*%
%ADD11C,0.0050*%
%ADD12C,0.0040*%
D10*
X000470Y000430D02*
X000470Y013630D01*
X013670Y013630D01*
X013670Y000430D01*
X000470Y000430D01*
D11*
X003490Y001719D02*
X006442Y001719D01*
X006442Y004888D01*
X005675Y004888D01*
X005675Y003333D01*
X004257Y003333D01*
X004257Y004888D01*
X005675Y004888D01*
X004257Y004888D02*
X003490Y004888D01*
X003490Y001719D01*
X008169Y001819D02*
X008169Y001464D01*
X008484Y001464D01*
X009036Y001425D02*
X009351Y001425D01*
X009351Y001819D01*
X008878Y002016D02*
X008642Y002016D01*
D12*
X008067Y001743D02*
X007453Y001743D01*
X007530Y001819D02*
X007607Y001896D01*
X007683Y001896D01*
X007760Y001819D01*
X007760Y001666D01*
X007837Y001589D01*
X007914Y001589D01*
X007990Y001666D01*
X007990Y001819D01*
X007914Y001896D01*
X007914Y002050D02*
X007837Y002050D01*
X007760Y002126D01*
X007760Y002357D01*
X007607Y002357D02*
X007914Y002357D01*
X007990Y002280D01*
X007990Y002126D01*
X007914Y002050D01*
X007607Y002050D02*
X007530Y002126D01*
X007530Y002280D01*
X007607Y002357D01*
X007530Y001819D02*
X007530Y001666D01*
X007607Y001589D01*
X007607Y001436D02*
X007990Y001436D01*
X007990Y001129D02*
X007607Y001129D01*
X007530Y001206D01*
X007530Y001359D01*
X007607Y001436D01*
X010053Y002050D02*
X010360Y002050D01*
X010129Y002280D01*
X010129Y001820D01*
X010513Y001897D02*
X010590Y001820D01*
X010743Y001820D01*
X010820Y001897D01*
X010820Y002204D01*
X010743Y002280D01*
X010590Y002280D01*
X010513Y002204D01*
X011160Y002137D02*
X011160Y002290D01*
X011237Y002367D01*
X011237Y002520D02*
X011160Y002597D01*
X011160Y002751D01*
X011237Y002827D01*
X011313Y002827D01*
X011390Y002751D01*
X011390Y002520D01*
X011237Y002520D01*
X011390Y002520D02*
X011544Y002674D01*
X011620Y002827D01*
X011544Y002367D02*
X011620Y002290D01*
X011620Y002137D01*
X011544Y002060D01*
X011237Y002060D01*
X011160Y002137D01*
M02*
