G75*
%MOIN*%
%OFA0B0*%
%FSLAX24Y24*%
%IPPOS*%
%LPD*%
%AMOC8*
5,1,8,0,0,1.08239X$1,22.5*
%
%ADD10R,0.0591X0.0512*%
%ADD11C,0.0094*%
%ADD12R,0.0827X0.0827*%
%ADD13R,0.0394X0.0217*%
%ADD14OC8,0.0630*%
%ADD15R,0.0551X0.0394*%
%ADD16R,0.0394X0.0551*%
%ADD17OC8,0.0520*%
%ADD18R,0.0500X0.1000*%
%ADD19R,0.0560X0.0340*%
%ADD20R,0.0660X0.0340*%
%ADD21R,0.0276X0.0354*%
%ADD22R,0.0354X0.0276*%
%ADD23R,0.0512X0.0591*%
%ADD24C,0.0138*%
%ADD25OC8,0.0600*%
%ADD26R,0.0177X0.0472*%
%ADD27C,0.0050*%
%ADD28R,0.0600X0.0600*%
%ADD29C,0.0600*%
%ADD30C,0.0240*%
%ADD31C,0.0357*%
%ADD32C,0.0100*%
%ADD33C,0.0160*%
%ADD34C,0.0120*%
D10*
X001300Y019144D03*
X001300Y019892D03*
D11*
X004286Y017189D02*
X004334Y017189D01*
X004334Y016992D02*
X004286Y016992D01*
X004286Y016796D02*
X004334Y016796D01*
X004334Y016599D02*
X004286Y016599D01*
X004286Y016402D02*
X004334Y016402D01*
X004334Y016205D02*
X004286Y016205D01*
X004566Y015973D02*
X004566Y015925D01*
X004763Y015925D02*
X004763Y015973D01*
X004960Y015973D02*
X004960Y015925D01*
X005156Y015925D02*
X005156Y015973D01*
X005353Y015973D02*
X005353Y015925D01*
X005550Y015925D02*
X005550Y015973D01*
X005782Y016205D02*
X005830Y016205D01*
X005830Y016402D02*
X005782Y016402D01*
X005782Y016599D02*
X005830Y016599D01*
X005830Y016796D02*
X005782Y016796D01*
X005782Y016992D02*
X005830Y016992D01*
X005830Y017189D02*
X005782Y017189D01*
X005550Y017421D02*
X005550Y017469D01*
X005353Y017469D02*
X005353Y017421D01*
X005156Y017421D02*
X005156Y017469D01*
X004960Y017469D02*
X004960Y017421D01*
X004763Y017421D02*
X004763Y017469D01*
X004566Y017469D02*
X004566Y017421D01*
D12*
X005058Y016697D03*
D13*
X007442Y021852D03*
X007442Y022600D03*
X008504Y022600D03*
X008504Y022226D03*
X008504Y021852D03*
D14*
X009739Y021194D03*
X010739Y021194D03*
X001684Y017282D03*
X001684Y016282D03*
D15*
X003683Y011658D03*
X003683Y010910D03*
X004549Y011284D03*
X011739Y021933D03*
X011739Y022681D03*
X012605Y022307D03*
D16*
X012439Y021241D03*
X012065Y020375D03*
X011691Y021241D03*
D17*
X003080Y013967D03*
X003080Y012967D03*
X002080Y012967D03*
X002080Y013967D03*
D18*
X005949Y012661D03*
X005949Y011261D03*
D19*
X002335Y020219D03*
X002335Y020719D03*
X002335Y021219D03*
X002335Y021719D03*
X002335Y022219D03*
X005867Y022219D03*
X005867Y021719D03*
X005867Y021219D03*
X005867Y020719D03*
D20*
X005817Y020219D03*
D21*
X005830Y019619D03*
X006342Y019619D03*
X003078Y014742D03*
X002566Y014742D03*
X001870Y018384D03*
X001358Y018384D03*
X008602Y012708D03*
X009114Y012708D03*
X009884Y021960D03*
X010396Y021960D03*
D22*
X011132Y020237D03*
X011132Y019725D03*
X013014Y020763D03*
X013014Y021275D03*
X007285Y017629D03*
X007285Y017117D03*
X006539Y017142D03*
X006539Y017654D03*
X006900Y020238D03*
X006900Y020750D03*
X003701Y014429D03*
X003701Y013917D03*
X001189Y013448D03*
X001189Y012936D03*
X001193Y021240D03*
X001193Y021752D03*
D23*
X004346Y012614D03*
X005094Y012614D03*
X007806Y020882D03*
X008554Y020882D03*
D24*
X008797Y019256D02*
X008797Y018608D01*
X008659Y018608D01*
X008659Y019256D01*
X008797Y019256D01*
X008797Y018745D02*
X008659Y018745D01*
X008659Y018882D02*
X008797Y018882D01*
X008797Y019019D02*
X008659Y019019D01*
X008659Y019156D02*
X008797Y019156D01*
X009190Y019256D02*
X009190Y018608D01*
X009052Y018608D01*
X009052Y019256D01*
X009190Y019256D01*
X009190Y018745D02*
X009052Y018745D01*
X009052Y018882D02*
X009190Y018882D01*
X009190Y019019D02*
X009052Y019019D01*
X009052Y019156D02*
X009190Y019156D01*
X009584Y019256D02*
X009584Y018608D01*
X009446Y018608D01*
X009446Y019256D01*
X009584Y019256D01*
X009584Y018745D02*
X009446Y018745D01*
X009446Y018882D02*
X009584Y018882D01*
X009584Y019019D02*
X009446Y019019D01*
X009446Y019156D02*
X009584Y019156D01*
X009978Y019256D02*
X009978Y018608D01*
X009840Y018608D01*
X009840Y019256D01*
X009978Y019256D01*
X009978Y018745D02*
X009840Y018745D01*
X009840Y018882D02*
X009978Y018882D01*
X009978Y019019D02*
X009840Y019019D01*
X009840Y019156D02*
X009978Y019156D01*
X010372Y019256D02*
X010372Y018608D01*
X010234Y018608D01*
X010234Y019256D01*
X010372Y019256D01*
X010372Y018745D02*
X010234Y018745D01*
X010234Y018882D02*
X010372Y018882D01*
X010372Y019019D02*
X010234Y019019D01*
X010234Y019156D02*
X010372Y019156D01*
X010765Y019256D02*
X010765Y018608D01*
X010627Y018608D01*
X010627Y019256D01*
X010765Y019256D01*
X010765Y018745D02*
X010627Y018745D01*
X010627Y018882D02*
X010765Y018882D01*
X010765Y019019D02*
X010627Y019019D01*
X010627Y019156D02*
X010765Y019156D01*
X011159Y019256D02*
X011159Y018608D01*
X011021Y018608D01*
X011021Y019256D01*
X011159Y019256D01*
X011159Y018745D02*
X011021Y018745D01*
X011021Y018882D02*
X011159Y018882D01*
X011159Y019019D02*
X011021Y019019D01*
X011021Y019156D02*
X011159Y019156D01*
X011553Y019256D02*
X011553Y018608D01*
X011415Y018608D01*
X011415Y019256D01*
X011553Y019256D01*
X011553Y018745D02*
X011415Y018745D01*
X011415Y018882D02*
X011553Y018882D01*
X011553Y019019D02*
X011415Y019019D01*
X011415Y019156D02*
X011553Y019156D01*
X011946Y019256D02*
X011946Y018608D01*
X011808Y018608D01*
X011808Y019256D01*
X011946Y019256D01*
X011946Y018745D02*
X011808Y018745D01*
X011808Y018882D02*
X011946Y018882D01*
X011946Y019019D02*
X011808Y019019D01*
X011808Y019156D02*
X011946Y019156D01*
X012340Y019256D02*
X012340Y018608D01*
X012202Y018608D01*
X012202Y019256D01*
X012340Y019256D01*
X012340Y018745D02*
X012202Y018745D01*
X012202Y018882D02*
X012340Y018882D01*
X012340Y019019D02*
X012202Y019019D01*
X012202Y019156D02*
X012340Y019156D01*
X012734Y019256D02*
X012734Y018608D01*
X012596Y018608D01*
X012596Y019256D01*
X012734Y019256D01*
X012734Y018745D02*
X012596Y018745D01*
X012596Y018882D02*
X012734Y018882D01*
X012734Y019019D02*
X012596Y019019D01*
X012596Y019156D02*
X012734Y019156D01*
X013127Y019256D02*
X013127Y018608D01*
X012989Y018608D01*
X012989Y019256D01*
X013127Y019256D01*
X013127Y018745D02*
X012989Y018745D01*
X012989Y018882D02*
X013127Y018882D01*
X013127Y019019D02*
X012989Y019019D01*
X012989Y019156D02*
X013127Y019156D01*
X012989Y015240D02*
X012989Y014592D01*
X012989Y015240D02*
X013127Y015240D01*
X013127Y014592D01*
X012989Y014592D01*
X012989Y014729D02*
X013127Y014729D01*
X013127Y014866D02*
X012989Y014866D01*
X012989Y015003D02*
X013127Y015003D01*
X013127Y015140D02*
X012989Y015140D01*
X012596Y015240D02*
X012596Y014592D01*
X012596Y015240D02*
X012734Y015240D01*
X012734Y014592D01*
X012596Y014592D01*
X012596Y014729D02*
X012734Y014729D01*
X012734Y014866D02*
X012596Y014866D01*
X012596Y015003D02*
X012734Y015003D01*
X012734Y015140D02*
X012596Y015140D01*
X012202Y015240D02*
X012202Y014592D01*
X012202Y015240D02*
X012340Y015240D01*
X012340Y014592D01*
X012202Y014592D01*
X012202Y014729D02*
X012340Y014729D01*
X012340Y014866D02*
X012202Y014866D01*
X012202Y015003D02*
X012340Y015003D01*
X012340Y015140D02*
X012202Y015140D01*
X011808Y015240D02*
X011808Y014592D01*
X011808Y015240D02*
X011946Y015240D01*
X011946Y014592D01*
X011808Y014592D01*
X011808Y014729D02*
X011946Y014729D01*
X011946Y014866D02*
X011808Y014866D01*
X011808Y015003D02*
X011946Y015003D01*
X011946Y015140D02*
X011808Y015140D01*
X011415Y015240D02*
X011415Y014592D01*
X011415Y015240D02*
X011553Y015240D01*
X011553Y014592D01*
X011415Y014592D01*
X011415Y014729D02*
X011553Y014729D01*
X011553Y014866D02*
X011415Y014866D01*
X011415Y015003D02*
X011553Y015003D01*
X011553Y015140D02*
X011415Y015140D01*
X011021Y015240D02*
X011021Y014592D01*
X011021Y015240D02*
X011159Y015240D01*
X011159Y014592D01*
X011021Y014592D01*
X011021Y014729D02*
X011159Y014729D01*
X011159Y014866D02*
X011021Y014866D01*
X011021Y015003D02*
X011159Y015003D01*
X011159Y015140D02*
X011021Y015140D01*
X010627Y015240D02*
X010627Y014592D01*
X010627Y015240D02*
X010765Y015240D01*
X010765Y014592D01*
X010627Y014592D01*
X010627Y014729D02*
X010765Y014729D01*
X010765Y014866D02*
X010627Y014866D01*
X010627Y015003D02*
X010765Y015003D01*
X010765Y015140D02*
X010627Y015140D01*
X010234Y015240D02*
X010234Y014592D01*
X010234Y015240D02*
X010372Y015240D01*
X010372Y014592D01*
X010234Y014592D01*
X010234Y014729D02*
X010372Y014729D01*
X010372Y014866D02*
X010234Y014866D01*
X010234Y015003D02*
X010372Y015003D01*
X010372Y015140D02*
X010234Y015140D01*
X009840Y015240D02*
X009840Y014592D01*
X009840Y015240D02*
X009978Y015240D01*
X009978Y014592D01*
X009840Y014592D01*
X009840Y014729D02*
X009978Y014729D01*
X009978Y014866D02*
X009840Y014866D01*
X009840Y015003D02*
X009978Y015003D01*
X009978Y015140D02*
X009840Y015140D01*
X009446Y015240D02*
X009446Y014592D01*
X009446Y015240D02*
X009584Y015240D01*
X009584Y014592D01*
X009446Y014592D01*
X009446Y014729D02*
X009584Y014729D01*
X009584Y014866D02*
X009446Y014866D01*
X009446Y015003D02*
X009584Y015003D01*
X009584Y015140D02*
X009446Y015140D01*
X009052Y015240D02*
X009052Y014592D01*
X009052Y015240D02*
X009190Y015240D01*
X009190Y014592D01*
X009052Y014592D01*
X009052Y014729D02*
X009190Y014729D01*
X009190Y014866D02*
X009052Y014866D01*
X009052Y015003D02*
X009190Y015003D01*
X009190Y015140D02*
X009052Y015140D01*
X008659Y015240D02*
X008659Y014592D01*
X008659Y015240D02*
X008797Y015240D01*
X008797Y014592D01*
X008659Y014592D01*
X008659Y014729D02*
X008797Y014729D01*
X008797Y014866D02*
X008659Y014866D01*
X008659Y015003D02*
X008797Y015003D01*
X008797Y015140D02*
X008659Y015140D01*
X008265Y015240D02*
X008265Y014592D01*
X008265Y015240D02*
X008403Y015240D01*
X008403Y014592D01*
X008265Y014592D01*
X008265Y014729D02*
X008403Y014729D01*
X008403Y014866D02*
X008265Y014866D01*
X008265Y015003D02*
X008403Y015003D01*
X008403Y015140D02*
X008265Y015140D01*
X008441Y015674D02*
X007793Y015674D01*
X007793Y015812D01*
X008441Y015812D01*
X008441Y015674D01*
X008441Y015811D02*
X007793Y015811D01*
X007793Y016068D02*
X008441Y016068D01*
X007793Y016068D02*
X007793Y016206D01*
X008441Y016206D01*
X008441Y016068D01*
X008441Y016205D02*
X007793Y016205D01*
X007793Y016461D02*
X008441Y016461D01*
X007793Y016461D02*
X007793Y016599D01*
X008441Y016599D01*
X008441Y016461D01*
X008441Y016598D02*
X007793Y016598D01*
X007793Y016855D02*
X008441Y016855D01*
X007793Y016855D02*
X007793Y016993D01*
X008441Y016993D01*
X008441Y016855D01*
X008441Y016992D02*
X007793Y016992D01*
X007793Y017249D02*
X008441Y017249D01*
X007793Y017249D02*
X007793Y017387D01*
X008441Y017387D01*
X008441Y017249D01*
X008441Y017386D02*
X007793Y017386D01*
X007793Y017643D02*
X008441Y017643D01*
X007793Y017643D02*
X007793Y017781D01*
X008441Y017781D01*
X008441Y017643D01*
X008441Y017780D02*
X007793Y017780D01*
X007793Y018036D02*
X008441Y018036D01*
X007793Y018036D02*
X007793Y018174D01*
X008441Y018174D01*
X008441Y018036D01*
X008441Y018173D02*
X007793Y018173D01*
X008403Y018608D02*
X008403Y019256D01*
X008403Y018608D02*
X008265Y018608D01*
X008265Y019256D01*
X008403Y019256D01*
X008403Y018745D02*
X008265Y018745D01*
X008265Y018882D02*
X008403Y018882D01*
X008403Y019019D02*
X008265Y019019D01*
X008265Y019156D02*
X008403Y019156D01*
D25*
X007220Y018634D03*
X006220Y018634D03*
X006620Y016534D03*
X002100Y011194D03*
X001260Y012054D03*
X011640Y011194D03*
X012420Y011194D03*
X012880Y011854D03*
X012880Y012594D03*
X012880Y013334D03*
X012880Y014114D03*
D26*
X007048Y002409D03*
X006792Y002409D03*
X006536Y002409D03*
X006280Y002409D03*
X006024Y002409D03*
D27*
X004715Y001917D02*
X004715Y000638D01*
X005030Y000638D01*
X005030Y001917D01*
X004715Y001917D01*
X004715Y001904D02*
X005030Y001904D01*
X005030Y001855D02*
X004715Y001855D01*
X004715Y001807D02*
X005030Y001807D01*
X005030Y001758D02*
X004715Y001758D01*
X004715Y001710D02*
X005030Y001710D01*
X005030Y001661D02*
X004715Y001661D01*
X004715Y001613D02*
X005030Y001613D01*
X005030Y001564D02*
X004715Y001564D01*
X004715Y001516D02*
X005030Y001516D01*
X005030Y001467D02*
X004715Y001467D01*
X004715Y001419D02*
X005030Y001419D01*
X005030Y001370D02*
X004715Y001370D01*
X004715Y001322D02*
X005030Y001322D01*
X005030Y001273D02*
X004715Y001273D01*
X004715Y001225D02*
X005030Y001225D01*
X005030Y001176D02*
X004715Y001176D01*
X004715Y001128D02*
X005030Y001128D01*
X005030Y001079D02*
X004715Y001079D01*
X004715Y001031D02*
X005030Y001031D01*
X005030Y000982D02*
X004715Y000982D01*
X004715Y000934D02*
X005030Y000934D01*
X005030Y000885D02*
X004715Y000885D01*
X004715Y000837D02*
X005030Y000837D01*
X005030Y000788D02*
X004715Y000788D01*
X004715Y000740D02*
X005030Y000740D01*
X005030Y000691D02*
X004715Y000691D01*
X004715Y000643D02*
X005030Y000643D01*
X004941Y002035D02*
X004941Y002547D01*
X005296Y002547D01*
X005296Y002035D01*
X004941Y002035D01*
X004941Y002049D02*
X005296Y002049D01*
X005296Y002098D02*
X004941Y002098D01*
X004941Y002146D02*
X005296Y002146D01*
X005296Y002195D02*
X004941Y002195D01*
X004941Y002243D02*
X005296Y002243D01*
X005296Y002292D02*
X004941Y002292D01*
X004941Y002340D02*
X005296Y002340D01*
X005296Y002389D02*
X004941Y002389D01*
X004941Y002437D02*
X005296Y002437D01*
X005296Y002486D02*
X004941Y002486D01*
X004941Y002534D02*
X005296Y002534D01*
X007776Y002534D02*
X008130Y002534D01*
X008130Y002547D02*
X007776Y002547D01*
X007776Y002035D01*
X008130Y002035D01*
X008130Y002547D01*
X008130Y002486D02*
X007776Y002486D01*
X007776Y002437D02*
X008130Y002437D01*
X008130Y002389D02*
X007776Y002389D01*
X007776Y002340D02*
X008130Y002340D01*
X008130Y002292D02*
X007776Y002292D01*
X007776Y002243D02*
X008130Y002243D01*
X008130Y002195D02*
X007776Y002195D01*
X007776Y002146D02*
X008130Y002146D01*
X008130Y002098D02*
X007776Y002098D01*
X007776Y002049D02*
X008130Y002049D01*
X008042Y001917D02*
X008042Y000638D01*
X008357Y000638D01*
X008357Y001917D01*
X008042Y001917D01*
X008042Y001904D02*
X008357Y001904D01*
X008357Y001855D02*
X008042Y001855D01*
X008042Y001807D02*
X008357Y001807D01*
X008357Y001758D02*
X008042Y001758D01*
X008042Y001710D02*
X008357Y001710D01*
X008357Y001661D02*
X008042Y001661D01*
X008042Y001613D02*
X008357Y001613D01*
X008357Y001564D02*
X008042Y001564D01*
X008042Y001516D02*
X008357Y001516D01*
X008357Y001467D02*
X008042Y001467D01*
X008042Y001419D02*
X008357Y001419D01*
X008357Y001370D02*
X008042Y001370D01*
X008042Y001322D02*
X008357Y001322D01*
X008357Y001273D02*
X008042Y001273D01*
X008042Y001225D02*
X008357Y001225D01*
X008357Y001176D02*
X008042Y001176D01*
X008042Y001128D02*
X008357Y001128D01*
X008357Y001079D02*
X008042Y001079D01*
X008042Y001031D02*
X008357Y001031D01*
X008357Y000982D02*
X008042Y000982D01*
X008042Y000934D02*
X008357Y000934D01*
X008357Y000885D02*
X008042Y000885D01*
X008042Y000837D02*
X008357Y000837D01*
X008357Y000788D02*
X008042Y000788D01*
X008042Y000740D02*
X008357Y000740D01*
X008357Y000691D02*
X008042Y000691D01*
X008042Y000643D02*
X008357Y000643D01*
D28*
X008111Y003660D03*
D29*
X007323Y003660D03*
X006536Y003660D03*
X005748Y003660D03*
X004961Y003660D03*
D30*
X003683Y010910D02*
X002880Y010910D01*
X002880Y010934D01*
X004346Y012614D02*
X004360Y012614D01*
X004360Y011914D01*
X004860Y011914D01*
X004549Y011284D02*
X004549Y011261D01*
X005949Y011261D01*
X005949Y012614D02*
X005949Y012661D01*
X005949Y012708D01*
X008602Y012708D01*
X009114Y012708D02*
X009860Y012708D01*
X009860Y012054D01*
X009114Y012708D02*
X011877Y012708D01*
X011877Y014916D01*
X011820Y014916D01*
X011820Y015494D01*
X011620Y015494D01*
X011620Y015694D01*
X012271Y014916D02*
X012271Y012034D01*
X011300Y012034D01*
X012271Y014916D02*
X012665Y014916D01*
X013058Y014916D01*
X013058Y018932D02*
X012665Y018932D01*
X012271Y018932D01*
X013020Y018932D01*
X013020Y019754D01*
X013000Y020294D02*
X012500Y020294D01*
X012500Y019754D01*
X011600Y019754D01*
X011600Y019725D01*
X011132Y019725D01*
X009040Y019725D01*
X008360Y019725D01*
X008360Y019594D01*
X007880Y019594D01*
X007880Y019374D01*
X007400Y019374D01*
X007400Y018634D01*
X007220Y018634D01*
X006860Y018174D02*
X006860Y017654D01*
X007285Y017654D01*
X007285Y017629D01*
X007285Y017117D02*
X006539Y017117D01*
X006539Y017142D01*
X006539Y017654D02*
X006860Y017654D01*
X006860Y018174D02*
X006680Y018174D01*
X006680Y018634D01*
X006220Y018634D01*
X006342Y019619D02*
X006800Y019619D01*
X006800Y019874D01*
X006960Y019874D01*
X006960Y019914D01*
X007300Y019914D01*
X007300Y020234D01*
X007880Y020234D01*
X007880Y020294D01*
X008574Y020294D01*
X008554Y020882D01*
X008554Y021394D01*
X008000Y021394D01*
X008000Y022226D01*
X008504Y022226D01*
X008504Y021854D02*
X008504Y021852D01*
X008504Y021854D02*
X009020Y021854D01*
X009020Y022600D01*
X008504Y022600D01*
X008494Y021194D02*
X008554Y020882D01*
X008494Y021194D02*
X009739Y021194D01*
X009740Y021194D01*
X009740Y020574D01*
X011020Y020574D01*
X011020Y020694D01*
X011460Y020694D01*
X011460Y021194D01*
X011691Y021194D01*
X011691Y021241D01*
X011739Y021241D01*
X011739Y021933D01*
X012439Y021241D02*
X013044Y021241D01*
X013014Y021275D01*
X013014Y022297D01*
X012605Y022307D01*
X013000Y020803D02*
X013000Y020294D01*
X013014Y020763D02*
X013000Y020803D01*
X008334Y018932D02*
X007820Y018932D01*
X007300Y020234D02*
X007300Y020514D01*
X007220Y020514D01*
X007220Y020750D01*
X006900Y020750D01*
X006900Y021154D01*
X006920Y021214D01*
X007442Y021374D02*
X007442Y021852D01*
X007442Y021719D02*
X007460Y021719D01*
X007460Y021454D01*
X007442Y021374D01*
X007460Y021454D02*
X007460Y020994D01*
X007806Y020994D01*
X007806Y020934D01*
X007760Y020934D01*
X007760Y020834D01*
X007806Y020882D02*
X007806Y020934D01*
X007442Y021719D02*
X005867Y021719D01*
X005867Y022219D02*
X006900Y022219D01*
X006900Y022234D01*
X007285Y017117D02*
X007285Y016374D01*
X007260Y016374D01*
X007260Y016074D01*
X007480Y016074D01*
X007480Y015374D01*
X007920Y015374D01*
X007920Y014916D01*
X008334Y014916D01*
X005949Y012614D02*
X005094Y012614D01*
X001684Y016282D02*
X001684Y016314D01*
X001040Y016314D01*
X001040Y019154D01*
X001300Y019154D01*
X001300Y019144D01*
X001440Y020694D02*
X001440Y021240D01*
X001193Y021240D01*
D31*
X001440Y020694D03*
X001620Y022234D03*
X002380Y019754D03*
X001900Y018874D03*
X002380Y018034D03*
X003080Y017534D03*
X003440Y017134D03*
X003920Y016114D03*
X003440Y015334D03*
X003080Y015734D03*
X002720Y016294D03*
X002460Y015274D03*
X001680Y014974D03*
X001580Y015454D03*
X004240Y017994D03*
X005080Y018634D03*
X005260Y018014D03*
X005740Y018014D03*
X006260Y018034D03*
X007260Y016374D03*
X007020Y015714D03*
X006680Y015410D03*
X007020Y014554D03*
X007087Y013577D03*
X009040Y016034D03*
X009440Y016394D03*
X009480Y015654D03*
X010180Y016374D03*
X010660Y016194D03*
X011220Y016374D03*
X011620Y015694D03*
X011300Y012034D03*
X009860Y012054D03*
X007820Y018932D03*
X007880Y020294D03*
X007460Y021454D03*
X006920Y021214D03*
X006440Y021214D03*
X006900Y022234D03*
X006440Y022754D03*
X009020Y021854D03*
X009040Y019725D03*
X011600Y019725D03*
X013020Y019754D03*
X004860Y011914D03*
X002880Y010934D03*
D32*
X002510Y011024D02*
X002510Y011364D01*
X002270Y011604D01*
X001930Y011604D01*
X001690Y011364D01*
X001690Y011024D01*
X001930Y010784D01*
X002270Y010784D01*
X002510Y011024D01*
X002510Y011035D02*
X003257Y011035D01*
X003257Y010959D02*
X003257Y011127D01*
X003268Y011165D01*
X003287Y011199D01*
X003315Y011227D01*
X003349Y011247D01*
X003388Y011257D01*
X003635Y011257D01*
X003635Y010959D01*
X003731Y010959D01*
X003731Y011257D01*
X003978Y011257D01*
X004016Y011247D01*
X004051Y011227D01*
X004079Y011199D01*
X004098Y011165D01*
X004109Y011127D01*
X004109Y010959D01*
X003731Y010959D01*
X003731Y010862D01*
X004109Y010862D01*
X004109Y010694D01*
X004098Y010655D01*
X004079Y010621D01*
X004052Y010594D01*
X013140Y010594D01*
X013140Y011534D01*
X013050Y011444D01*
X012750Y011444D01*
X012830Y011364D01*
X012830Y011024D01*
X012590Y010784D01*
X012250Y010784D01*
X012030Y011004D01*
X011810Y010784D01*
X011470Y010784D01*
X011230Y011024D01*
X011230Y011364D01*
X011470Y011604D01*
X011810Y011604D01*
X012030Y011384D01*
X012250Y011604D01*
X012550Y011604D01*
X012470Y011684D01*
X012470Y012024D01*
X012670Y012224D01*
X012470Y012424D01*
X012470Y012764D01*
X012670Y012964D01*
X012470Y013164D01*
X012470Y013504D01*
X012690Y013724D01*
X012470Y013944D01*
X012470Y014284D01*
X012560Y014374D01*
X012511Y014388D01*
X012468Y014413D01*
X012424Y014388D01*
X012369Y014373D01*
X012290Y014373D01*
X012290Y014897D01*
X012252Y014897D01*
X012252Y014373D01*
X012173Y014373D01*
X012118Y014388D01*
X012107Y014393D01*
X012107Y012613D01*
X011973Y012478D01*
X010090Y012478D01*
X010090Y012232D01*
X010105Y012218D01*
X010148Y012112D01*
X010148Y011997D01*
X010105Y011891D01*
X010023Y011810D01*
X009917Y011766D01*
X009803Y011766D01*
X009697Y011810D01*
X009615Y011891D01*
X009572Y011997D01*
X009572Y012112D01*
X009615Y012218D01*
X009630Y012232D01*
X009630Y012478D01*
X009354Y012478D01*
X009297Y012421D01*
X008931Y012421D01*
X008866Y012485D01*
X008866Y012931D01*
X008931Y012995D01*
X009297Y012995D01*
X009354Y012938D01*
X011647Y012938D01*
X011647Y014433D01*
X011644Y014430D01*
X011644Y013641D01*
X011644Y013641D01*
X011644Y013574D01*
X011644Y013509D01*
X011644Y013509D01*
X011644Y013509D01*
X011596Y013461D01*
X011550Y013415D01*
X011550Y013415D01*
X011550Y013415D01*
X011484Y013415D01*
X011417Y013415D01*
X011417Y013415D01*
X007333Y013417D01*
X007332Y013414D01*
X007251Y013333D01*
X007145Y013289D01*
X007030Y013289D01*
X006924Y013333D01*
X006843Y013414D01*
X006799Y013520D01*
X006799Y013635D01*
X006843Y013741D01*
X006905Y013803D01*
X006860Y013848D01*
X006860Y014308D01*
X006857Y014310D01*
X006775Y014391D01*
X006732Y014497D01*
X006732Y014612D01*
X006775Y014718D01*
X006812Y014754D01*
X004696Y014754D01*
X004603Y014848D01*
X004603Y015768D01*
X004501Y015768D01*
X004409Y015860D01*
X004409Y016038D01*
X004501Y016130D01*
X004631Y016130D01*
X004664Y016097D01*
X004698Y016130D01*
X004828Y016130D01*
X004861Y016097D01*
X004894Y016130D01*
X005025Y016130D01*
X005058Y016097D01*
X005091Y016130D01*
X005222Y016130D01*
X005255Y016097D01*
X005288Y016130D01*
X005418Y016130D01*
X005423Y016125D01*
X005429Y016131D01*
X005474Y016157D01*
X005524Y016170D01*
X005550Y016170D01*
X005550Y015949D01*
X006720Y015949D01*
X006720Y016074D01*
X007260Y016074D01*
X007183Y015959D02*
X007077Y016003D01*
X006963Y016003D01*
X006857Y015959D01*
X006775Y015878D01*
X006774Y015874D01*
X005741Y015874D01*
X005747Y015900D01*
X005747Y015949D01*
X005550Y015949D01*
X005550Y015949D01*
X005550Y015949D01*
X005747Y015949D01*
X005747Y015999D01*
X005734Y016048D01*
X005737Y016048D01*
X005740Y016045D01*
X006446Y016045D01*
X006525Y016124D01*
X006790Y016124D01*
X007030Y016364D01*
X007030Y016704D01*
X006829Y016905D01*
X006836Y016912D01*
X006856Y016947D01*
X006866Y016985D01*
X006866Y017123D01*
X006558Y017123D01*
X006558Y016944D01*
X006520Y016944D01*
X006520Y017123D01*
X006558Y017123D01*
X006558Y017161D01*
X006866Y017161D01*
X006866Y017300D01*
X006856Y017338D01*
X006836Y017372D01*
X006808Y017400D01*
X006775Y017419D01*
X006780Y017424D01*
X007019Y017424D01*
X007049Y017394D01*
X007016Y017375D01*
X006988Y017347D01*
X006968Y017313D01*
X006958Y017275D01*
X006958Y017136D01*
X007266Y017136D01*
X007266Y017098D01*
X007304Y017098D01*
X007304Y016829D01*
X007482Y016829D01*
X007520Y016840D01*
X007554Y016859D01*
X007582Y016887D01*
X007602Y016922D01*
X007612Y016960D01*
X007612Y017098D01*
X007304Y017098D01*
X007304Y017136D01*
X007612Y017136D01*
X007612Y017275D01*
X007602Y017313D01*
X007582Y017347D01*
X007554Y017375D01*
X007521Y017394D01*
X007572Y017446D01*
X007572Y017812D01*
X007508Y017877D01*
X007387Y017877D01*
X007380Y017884D01*
X007090Y017884D01*
X007090Y018224D01*
X007390Y018224D01*
X007630Y018464D01*
X007630Y019144D01*
X007975Y019144D01*
X008046Y019215D01*
X008046Y018951D01*
X008315Y018951D01*
X008315Y018913D01*
X008353Y018913D01*
X008353Y018388D01*
X008432Y018388D01*
X008487Y018403D01*
X008537Y018432D01*
X008559Y018454D01*
X008585Y018428D01*
X008871Y018428D01*
X008925Y018482D01*
X008978Y018428D01*
X009264Y018428D01*
X009318Y018482D01*
X009372Y018428D01*
X009658Y018428D01*
X009712Y018482D01*
X009766Y018428D01*
X010052Y018428D01*
X010106Y018482D01*
X010160Y018428D01*
X010446Y018428D01*
X010499Y018482D01*
X010553Y018428D01*
X010839Y018428D01*
X010893Y018482D01*
X010947Y018428D01*
X011233Y018428D01*
X011287Y018482D01*
X011341Y018428D01*
X011627Y018428D01*
X011680Y018482D01*
X011734Y018428D01*
X011820Y018428D01*
X011820Y015902D01*
X011783Y015939D01*
X011677Y015983D01*
X011563Y015983D01*
X011457Y015939D01*
X011390Y015872D01*
X011390Y016136D01*
X011465Y016211D01*
X011508Y016317D01*
X011508Y016432D01*
X011465Y016538D01*
X011383Y016619D01*
X011277Y016663D01*
X011163Y016663D01*
X011057Y016619D01*
X010975Y016538D01*
X010932Y016432D01*
X010932Y016364D01*
X010898Y016364D01*
X010823Y016439D01*
X010717Y016483D01*
X010603Y016483D01*
X010497Y016439D01*
X010468Y016411D01*
X010468Y016432D01*
X010425Y016538D01*
X010343Y016619D01*
X010237Y016663D01*
X010123Y016663D01*
X010017Y016619D01*
X009935Y016538D01*
X009892Y016432D01*
X009892Y016317D01*
X009935Y016211D01*
X009962Y016184D01*
X009638Y016184D01*
X009685Y016231D01*
X009728Y016337D01*
X009728Y016452D01*
X009685Y016558D01*
X009603Y016639D01*
X009497Y016683D01*
X009383Y016683D01*
X009277Y016639D01*
X009195Y016558D01*
X009152Y016452D01*
X009152Y016337D01*
X009170Y016293D01*
X009097Y016323D01*
X008983Y016323D01*
X008877Y016279D01*
X008822Y016224D01*
X008649Y016224D01*
X008621Y016196D01*
X008621Y016280D01*
X008567Y016334D01*
X008621Y016387D01*
X008621Y016673D01*
X008567Y016727D01*
X008621Y016781D01*
X008621Y017067D01*
X008567Y017121D01*
X008621Y017175D01*
X008621Y017461D01*
X008567Y017515D01*
X008621Y017569D01*
X008621Y017855D01*
X008567Y017908D01*
X008621Y017962D01*
X008621Y018248D01*
X008516Y018353D01*
X007719Y018353D01*
X007614Y018248D01*
X007614Y017962D01*
X007668Y017908D01*
X007614Y017855D01*
X007614Y017569D01*
X007668Y017515D01*
X007614Y017461D01*
X007614Y017175D01*
X007668Y017121D01*
X007614Y017067D01*
X007614Y016781D01*
X007668Y016727D01*
X007614Y016673D01*
X007614Y016387D01*
X007668Y016334D01*
X007614Y016280D01*
X007614Y015994D01*
X007668Y015940D01*
X007614Y015886D01*
X007614Y015600D01*
X007719Y015495D01*
X008516Y015495D01*
X008538Y015517D01*
X008538Y015416D01*
X008537Y015416D01*
X008487Y015445D01*
X008432Y015460D01*
X008353Y015460D01*
X008353Y014935D01*
X008315Y014935D01*
X008315Y014897D01*
X008046Y014897D01*
X008046Y014563D01*
X008054Y014534D01*
X007800Y014534D01*
X007800Y015180D01*
X007706Y015274D01*
X006936Y015274D01*
X006968Y015353D01*
X006968Y015426D01*
X007077Y015426D01*
X007183Y015470D01*
X007265Y015551D01*
X007308Y015657D01*
X007308Y015772D01*
X007265Y015878D01*
X007183Y015959D01*
X007180Y015960D02*
X007647Y015960D01*
X007614Y015862D02*
X007271Y015862D01*
X007308Y015763D02*
X007614Y015763D01*
X007614Y015665D02*
X007308Y015665D01*
X007271Y015566D02*
X007648Y015566D01*
X007710Y015271D02*
X008046Y015271D01*
X008046Y015270D02*
X008046Y014935D01*
X008315Y014935D01*
X008315Y015460D01*
X008236Y015460D01*
X008181Y015445D01*
X008131Y015416D01*
X008090Y015376D01*
X008061Y015326D01*
X008046Y015270D01*
X008046Y015172D02*
X007800Y015172D01*
X007800Y015074D02*
X008046Y015074D01*
X008046Y014975D02*
X007800Y014975D01*
X007800Y014877D02*
X008046Y014877D01*
X008046Y014778D02*
X007800Y014778D01*
X007800Y014680D02*
X008046Y014680D01*
X008046Y014581D02*
X007800Y014581D01*
X007640Y014374D02*
X010310Y014374D01*
X010310Y014916D01*
X010303Y014916D01*
X010696Y014916D02*
X010700Y014916D01*
X010700Y014134D01*
X007360Y014134D01*
X007360Y014914D01*
X004763Y014914D01*
X004763Y015949D01*
X004603Y015763D02*
X003897Y015763D01*
X003940Y015720D02*
X003846Y015814D01*
X003780Y015814D01*
X003780Y015860D01*
X003863Y015826D01*
X003977Y015826D01*
X004083Y015870D01*
X004165Y015951D01*
X004208Y016057D01*
X004208Y016061D01*
X004221Y016048D01*
X004399Y016048D01*
X004491Y016140D01*
X004491Y016270D01*
X004458Y016303D01*
X004491Y016337D01*
X004491Y016467D01*
X004458Y016500D01*
X004491Y016534D01*
X004491Y016664D01*
X004458Y016697D01*
X004491Y016730D01*
X004491Y016861D01*
X004458Y016894D01*
X004491Y016927D01*
X004491Y017058D01*
X004458Y017091D01*
X004491Y017124D01*
X004491Y017254D01*
X004399Y017347D01*
X004379Y017347D01*
X004376Y017349D01*
X004020Y017349D01*
X004020Y017600D01*
X003926Y017694D01*
X003326Y017694D01*
X003325Y017698D01*
X003243Y017779D01*
X003137Y017823D01*
X003023Y017823D01*
X002917Y017779D01*
X002860Y017722D01*
X002860Y017834D01*
X003994Y017834D01*
X003995Y017831D01*
X004077Y017750D01*
X004183Y017706D01*
X004297Y017706D01*
X004403Y017750D01*
X004406Y017752D01*
X004406Y017379D01*
X004409Y017376D01*
X004409Y017356D01*
X004501Y017264D01*
X004631Y017264D01*
X004664Y017298D01*
X004698Y017264D01*
X004828Y017264D01*
X004861Y017298D01*
X004894Y017264D01*
X005025Y017264D01*
X005058Y017298D01*
X005091Y017264D01*
X005222Y017264D01*
X005255Y017298D01*
X005288Y017264D01*
X005418Y017264D01*
X005452Y017298D01*
X005485Y017264D01*
X005615Y017264D01*
X005636Y017285D01*
X005656Y017285D01*
X005625Y017254D01*
X005625Y017124D01*
X005630Y017119D01*
X005625Y017114D01*
X005599Y017069D01*
X005585Y017018D01*
X005585Y016992D01*
X005585Y016967D01*
X005599Y016916D01*
X005625Y016871D01*
X005630Y016866D01*
X005625Y016861D01*
X005625Y016730D01*
X005658Y016697D01*
X005625Y016664D01*
X005625Y016534D01*
X005658Y016500D01*
X005625Y016467D01*
X005625Y016337D01*
X005658Y016303D01*
X005625Y016270D01*
X005625Y016157D01*
X005576Y016170D01*
X005550Y016170D01*
X005550Y015949D01*
X005550Y015960D02*
X005550Y015960D01*
X005550Y016059D02*
X005550Y016059D01*
X005550Y016157D02*
X005550Y016157D01*
X005517Y016174D02*
X005581Y016238D01*
X005581Y017156D01*
X005517Y017221D01*
X004599Y017221D01*
X004535Y017156D01*
X004535Y016238D01*
X004599Y016174D01*
X005517Y016174D01*
X005476Y016157D02*
X004491Y016157D01*
X004491Y016256D02*
X004535Y016256D01*
X004535Y016354D02*
X004491Y016354D01*
X004491Y016453D02*
X004535Y016453D01*
X004535Y016551D02*
X004491Y016551D01*
X004491Y016650D02*
X004535Y016650D01*
X004535Y016748D02*
X004491Y016748D01*
X004491Y016847D02*
X004535Y016847D01*
X004535Y016945D02*
X004491Y016945D01*
X004491Y017044D02*
X004535Y017044D01*
X004535Y017142D02*
X004491Y017142D01*
X004491Y017241D02*
X005625Y017241D01*
X005625Y017142D02*
X005581Y017142D01*
X005581Y017044D02*
X005592Y017044D01*
X005585Y016992D02*
X005806Y016992D01*
X005585Y016992D01*
X005581Y016945D02*
X005591Y016945D01*
X005581Y016847D02*
X005625Y016847D01*
X005625Y016748D02*
X005581Y016748D01*
X005581Y016650D02*
X005625Y016650D01*
X005625Y016551D02*
X005581Y016551D01*
X005581Y016453D02*
X005625Y016453D01*
X005625Y016354D02*
X005581Y016354D01*
X005581Y016256D02*
X005625Y016256D01*
X005624Y016157D02*
X005625Y016157D01*
X005747Y015960D02*
X006860Y015960D01*
X006823Y016157D02*
X007614Y016157D01*
X007614Y016059D02*
X006460Y016059D01*
X006380Y016205D02*
X006380Y016374D01*
X006620Y016374D01*
X006620Y016534D01*
X006558Y016945D02*
X006520Y016945D01*
X006539Y016992D02*
X006539Y017142D01*
X006558Y017142D02*
X006958Y017142D01*
X006958Y017098D02*
X006958Y016960D01*
X006968Y016922D01*
X006988Y016887D01*
X007016Y016859D01*
X007050Y016840D01*
X007088Y016829D01*
X007266Y016829D01*
X007266Y017098D01*
X006958Y017098D01*
X006958Y017044D02*
X006866Y017044D01*
X006855Y016945D02*
X006962Y016945D01*
X006887Y016847D02*
X007038Y016847D01*
X006986Y016748D02*
X007647Y016748D01*
X007614Y016650D02*
X007030Y016650D01*
X007030Y016551D02*
X007614Y016551D01*
X007614Y016453D02*
X007030Y016453D01*
X007020Y016354D02*
X007647Y016354D01*
X007614Y016256D02*
X006921Y016256D01*
X007020Y015714D02*
X005353Y015714D01*
X005353Y015949D01*
X005156Y015949D02*
X005158Y015410D01*
X006680Y015410D01*
X006968Y015369D02*
X008086Y015369D01*
X008315Y015369D02*
X008353Y015369D01*
X008353Y015271D02*
X008315Y015271D01*
X008315Y015172D02*
X008353Y015172D01*
X008353Y015074D02*
X008315Y015074D01*
X008315Y014975D02*
X008353Y014975D01*
X008538Y015468D02*
X007179Y015468D01*
X007640Y015114D02*
X007640Y014374D01*
X007640Y015114D02*
X004960Y015114D01*
X004960Y015949D01*
X004603Y015665D02*
X003940Y015665D01*
X003940Y015720D02*
X003940Y015014D01*
X004146Y015014D01*
X004240Y014920D01*
X004240Y013488D01*
X004146Y013394D01*
X003843Y013394D01*
X003843Y011965D01*
X004004Y011965D01*
X004069Y011901D01*
X004069Y011416D01*
X004004Y011351D01*
X003362Y011351D01*
X003297Y011416D01*
X003297Y011901D01*
X003362Y011965D01*
X003523Y011965D01*
X003523Y013620D01*
X003572Y013669D01*
X003478Y013669D01*
X003414Y013734D01*
X003414Y013777D01*
X003413Y013777D01*
X003233Y013597D01*
X002927Y013597D01*
X002756Y013768D01*
X002756Y013167D01*
X002927Y013337D01*
X003233Y013337D01*
X003450Y013120D01*
X003450Y012814D01*
X003233Y012597D01*
X002927Y012597D01*
X002747Y012777D01*
X002487Y012777D01*
X002450Y012815D01*
X002450Y012814D01*
X002233Y012597D01*
X001927Y012597D01*
X001778Y012746D01*
X001470Y012746D01*
X001412Y012689D01*
X001000Y012689D01*
X001000Y012374D01*
X001090Y012464D01*
X001430Y012464D01*
X001670Y012224D01*
X001670Y011884D01*
X001430Y011644D01*
X001090Y011644D01*
X001000Y011734D01*
X001000Y010594D01*
X003314Y010594D01*
X003287Y010621D01*
X003268Y010655D01*
X003257Y010694D01*
X003257Y010862D01*
X003634Y010862D01*
X003634Y010959D01*
X003257Y010959D01*
X003257Y010838D02*
X002324Y010838D01*
X002422Y010937D02*
X003634Y010937D01*
X003731Y010937D02*
X005589Y010937D01*
X005589Y011031D02*
X005589Y010716D01*
X005653Y010651D01*
X006245Y010651D01*
X006309Y010716D01*
X006309Y011807D01*
X006245Y011871D01*
X005653Y011871D01*
X005589Y011807D01*
X005589Y011491D01*
X004935Y011491D01*
X004935Y011527D01*
X004870Y011591D01*
X004228Y011591D01*
X004163Y011527D01*
X004163Y011042D01*
X004228Y010977D01*
X004870Y010977D01*
X004924Y011031D01*
X005589Y011031D01*
X005589Y010838D02*
X004109Y010838D01*
X004109Y010740D02*
X005589Y010740D01*
X005589Y011528D02*
X004934Y011528D01*
X004660Y012179D02*
X004694Y012199D01*
X004722Y012227D01*
X004741Y012260D01*
X004793Y012209D01*
X005395Y012209D01*
X005460Y012273D01*
X005460Y012384D01*
X005589Y012384D01*
X005589Y012116D01*
X005653Y012051D01*
X006245Y012051D01*
X006309Y012116D01*
X006309Y012478D01*
X008362Y012478D01*
X008419Y012421D01*
X008785Y012421D01*
X008850Y012485D01*
X008850Y012931D01*
X008785Y012995D01*
X008419Y012995D01*
X008362Y012938D01*
X006309Y012938D01*
X006309Y013207D01*
X006245Y013271D01*
X005653Y013271D01*
X005589Y013207D01*
X005589Y012844D01*
X005460Y012844D01*
X005460Y012955D01*
X005395Y013019D01*
X004793Y013019D01*
X004741Y012968D01*
X004722Y013002D01*
X004694Y013030D01*
X004660Y013049D01*
X004622Y013059D01*
X004396Y013059D01*
X004396Y012664D01*
X004296Y012664D01*
X004296Y012564D01*
X004396Y012564D01*
X004396Y012169D01*
X004622Y012169D01*
X004660Y012179D01*
X004712Y012217D02*
X004784Y012217D01*
X004396Y012217D02*
X004296Y012217D01*
X004296Y012169D02*
X004070Y012169D01*
X004032Y012179D01*
X003998Y012199D01*
X003970Y012227D01*
X003950Y012261D01*
X003940Y012299D01*
X003940Y012564D01*
X004296Y012564D01*
X004296Y012169D01*
X004296Y012316D02*
X004396Y012316D01*
X004396Y012414D02*
X004296Y012414D01*
X004296Y012513D02*
X004396Y012513D01*
X004296Y012611D02*
X003843Y012611D01*
X003843Y012513D02*
X003940Y012513D01*
X003940Y012414D02*
X003843Y012414D01*
X003843Y012316D02*
X003940Y012316D01*
X003980Y012217D02*
X003843Y012217D01*
X003843Y012119D02*
X005589Y012119D01*
X005589Y012217D02*
X005404Y012217D01*
X005460Y012316D02*
X005589Y012316D01*
X005605Y011823D02*
X004069Y011823D01*
X004069Y011725D02*
X005589Y011725D01*
X005589Y011626D02*
X004069Y011626D01*
X004069Y011528D02*
X004165Y011528D01*
X004163Y011429D02*
X004069Y011429D01*
X004163Y011331D02*
X002510Y011331D01*
X002510Y011232D02*
X003324Y011232D01*
X003259Y011134D02*
X002510Y011134D01*
X002445Y011429D02*
X003297Y011429D01*
X003297Y011528D02*
X002346Y011528D01*
X001854Y011528D02*
X001000Y011528D01*
X001000Y011626D02*
X003297Y011626D01*
X003297Y011725D02*
X001510Y011725D01*
X001609Y011823D02*
X003297Y011823D01*
X003318Y011922D02*
X001670Y011922D01*
X001670Y012020D02*
X003523Y012020D01*
X003523Y012119D02*
X001670Y012119D01*
X001670Y012217D02*
X003523Y012217D01*
X003523Y012316D02*
X001578Y012316D01*
X001480Y012414D02*
X003523Y012414D01*
X003523Y012513D02*
X001000Y012513D01*
X001000Y012611D02*
X001913Y012611D01*
X001814Y012710D02*
X001433Y012710D01*
X001470Y013126D02*
X001412Y013184D01*
X001000Y013184D01*
X001000Y013200D01*
X001412Y013200D01*
X001476Y013265D01*
X001476Y013631D01*
X001412Y013696D01*
X001349Y013696D01*
X001349Y015277D01*
X001417Y015210D01*
X001481Y015183D01*
X001435Y015138D01*
X001392Y015032D01*
X001392Y014917D01*
X001435Y014811D01*
X001517Y014730D01*
X001623Y014686D01*
X001737Y014686D01*
X001843Y014730D01*
X001925Y014811D01*
X001926Y014814D01*
X002166Y014814D01*
X002260Y014908D01*
X002260Y015066D01*
X002297Y015030D01*
X002358Y015004D01*
X002318Y014965D01*
X002318Y014519D01*
X002376Y014462D01*
X002376Y014251D01*
X002250Y014377D01*
X002110Y014377D01*
X002110Y013997D01*
X002050Y013997D01*
X002050Y013937D01*
X002110Y013937D01*
X002110Y013557D01*
X002250Y013557D01*
X002376Y013683D01*
X002376Y013194D01*
X002233Y013337D01*
X001927Y013337D01*
X001716Y013126D01*
X001470Y013126D01*
X001414Y013202D02*
X001792Y013202D01*
X001890Y013301D02*
X001476Y013301D01*
X001476Y013399D02*
X002376Y013399D01*
X002376Y013301D02*
X002270Y013301D01*
X002368Y013202D02*
X002376Y013202D01*
X002376Y013498D02*
X001476Y013498D01*
X001476Y013596D02*
X001871Y013596D01*
X001910Y013557D02*
X001670Y013797D01*
X001670Y013937D01*
X002050Y013937D01*
X002050Y013557D01*
X001910Y013557D01*
X002050Y013596D02*
X002110Y013596D01*
X002110Y013695D02*
X002050Y013695D01*
X002050Y013793D02*
X002110Y013793D01*
X002110Y013892D02*
X002050Y013892D01*
X002050Y013990D02*
X001349Y013990D01*
X001349Y013892D02*
X001670Y013892D01*
X001674Y013793D02*
X001349Y013793D01*
X001413Y013695D02*
X001773Y013695D01*
X001670Y013997D02*
X002050Y013997D01*
X002050Y014377D01*
X001910Y014377D01*
X001670Y014137D01*
X001670Y013997D01*
X001670Y014089D02*
X001349Y014089D01*
X001349Y014187D02*
X001720Y014187D01*
X001819Y014286D02*
X001349Y014286D01*
X001349Y014384D02*
X002376Y014384D01*
X002376Y014286D02*
X002341Y014286D01*
X002355Y014483D02*
X001349Y014483D01*
X001349Y014581D02*
X002318Y014581D01*
X002318Y014680D02*
X001349Y014680D01*
X001349Y014778D02*
X001468Y014778D01*
X001408Y014877D02*
X001349Y014877D01*
X001349Y014975D02*
X001392Y014975D01*
X001409Y015074D02*
X001349Y015074D01*
X001349Y015172D02*
X001470Y015172D01*
X001356Y015271D02*
X001349Y015271D01*
X001580Y015454D02*
X001580Y015614D01*
X002540Y015614D01*
X002540Y016294D01*
X002720Y016294D01*
X002380Y015814D02*
X002380Y016796D01*
X004310Y016796D01*
X004310Y016992D02*
X003440Y016992D01*
X003440Y017134D01*
X003211Y016956D02*
X002314Y016956D01*
X002220Y016862D01*
X002220Y015974D01*
X002034Y015974D01*
X002149Y016090D01*
X002149Y016252D01*
X001714Y016252D01*
X001714Y016312D01*
X002149Y016312D01*
X002149Y016475D01*
X001877Y016747D01*
X001714Y016747D01*
X001714Y016312D01*
X001654Y016312D01*
X001654Y016252D01*
X001219Y016252D01*
X001219Y016090D01*
X001334Y015974D01*
X001123Y015974D01*
X001029Y015880D01*
X001029Y013696D01*
X001000Y013696D01*
X001000Y018738D01*
X001250Y018738D01*
X001250Y019094D01*
X001350Y019094D01*
X001350Y018738D01*
X001615Y018738D01*
X001641Y018745D01*
X001655Y018711D01*
X001695Y018671D01*
X001687Y018671D01*
X001622Y018607D01*
X001622Y018161D01*
X001680Y018104D01*
X001680Y017955D01*
X001791Y017844D01*
X002162Y017844D01*
X002192Y017814D01*
X001618Y017814D01*
X001548Y017745D01*
X001548Y018104D01*
X001606Y018161D01*
X001606Y018607D01*
X001541Y018671D01*
X001175Y018671D01*
X001110Y018607D01*
X001110Y018161D01*
X001168Y018104D01*
X001168Y017203D01*
X001259Y017113D01*
X001259Y017106D01*
X001508Y016857D01*
X001860Y016857D01*
X002109Y017106D01*
X002109Y017458D01*
X002073Y017494D01*
X002766Y017494D01*
X002792Y017520D01*
X002792Y017477D01*
X002835Y017371D01*
X002917Y017290D01*
X003023Y017246D01*
X003137Y017246D01*
X003182Y017264D01*
X003152Y017192D01*
X003152Y017077D01*
X003195Y016971D01*
X003211Y016956D01*
X003165Y017044D02*
X002047Y017044D01*
X002109Y017142D02*
X003152Y017142D01*
X003172Y017241D02*
X002109Y017241D01*
X002109Y017339D02*
X002867Y017339D01*
X002808Y017438D02*
X002109Y017438D01*
X002175Y017832D02*
X001548Y017832D01*
X001548Y017930D02*
X001705Y017930D01*
X001680Y018029D02*
X001548Y018029D01*
X001572Y018127D02*
X001656Y018127D01*
X001622Y018226D02*
X001606Y018226D01*
X001606Y018324D02*
X001622Y018324D01*
X001622Y018423D02*
X001606Y018423D01*
X001606Y018521D02*
X001622Y018521D01*
X001635Y018620D02*
X001593Y018620D01*
X001652Y018718D02*
X001000Y018718D01*
X001000Y018620D02*
X001123Y018620D01*
X001110Y018521D02*
X001000Y018521D01*
X001000Y018423D02*
X001110Y018423D01*
X001110Y018324D02*
X001000Y018324D01*
X001000Y018226D02*
X001110Y018226D01*
X001145Y018127D02*
X001000Y018127D01*
X001000Y018029D02*
X001168Y018029D01*
X001168Y017930D02*
X001000Y017930D01*
X001000Y017832D02*
X001168Y017832D01*
X001168Y017733D02*
X001000Y017733D01*
X001000Y017635D02*
X001168Y017635D01*
X001168Y017536D02*
X001000Y017536D01*
X001000Y017438D02*
X001168Y017438D01*
X001168Y017339D02*
X001000Y017339D01*
X001000Y017241D02*
X001168Y017241D01*
X001229Y017142D02*
X001000Y017142D01*
X001000Y017044D02*
X001321Y017044D01*
X001420Y016945D02*
X001000Y016945D01*
X001000Y016847D02*
X002220Y016847D01*
X002220Y016748D02*
X001000Y016748D01*
X001000Y016650D02*
X001394Y016650D01*
X001491Y016747D02*
X001219Y016475D01*
X001219Y016312D01*
X001654Y016312D01*
X001654Y016747D01*
X001491Y016747D01*
X001654Y016650D02*
X001714Y016650D01*
X001714Y016551D02*
X001654Y016551D01*
X001654Y016453D02*
X001714Y016453D01*
X001714Y016354D02*
X001654Y016354D01*
X001654Y016256D02*
X001000Y016256D01*
X001000Y016354D02*
X001219Y016354D01*
X001219Y016453D02*
X001000Y016453D01*
X001000Y016551D02*
X001295Y016551D01*
X001219Y016157D02*
X001000Y016157D01*
X001000Y016059D02*
X001250Y016059D01*
X001109Y015960D02*
X001000Y015960D01*
X001000Y015862D02*
X001029Y015862D01*
X001029Y015763D02*
X001000Y015763D01*
X001000Y015665D02*
X001029Y015665D01*
X001029Y015566D02*
X001000Y015566D01*
X001000Y015468D02*
X001029Y015468D01*
X001029Y015369D02*
X001000Y015369D01*
X001000Y015271D02*
X001029Y015271D01*
X001029Y015172D02*
X001000Y015172D01*
X001000Y015074D02*
X001029Y015074D01*
X001029Y014975D02*
X001000Y014975D01*
X001000Y014877D02*
X001029Y014877D01*
X001029Y014778D02*
X001000Y014778D01*
X001000Y014680D02*
X001029Y014680D01*
X001029Y014581D02*
X001000Y014581D01*
X001000Y014483D02*
X001029Y014483D01*
X001029Y014384D02*
X001000Y014384D01*
X001000Y014286D02*
X001029Y014286D01*
X001029Y014187D02*
X001000Y014187D01*
X001000Y014089D02*
X001029Y014089D01*
X001029Y013990D02*
X001000Y013990D01*
X001000Y013892D02*
X001029Y013892D01*
X001029Y013793D02*
X001000Y013793D01*
X001189Y013448D02*
X001189Y015814D01*
X002380Y015814D01*
X002220Y016059D02*
X002118Y016059D01*
X002149Y016157D02*
X002220Y016157D01*
X002220Y016256D02*
X001714Y016256D01*
X001974Y016650D02*
X002220Y016650D01*
X002220Y016551D02*
X002073Y016551D01*
X002149Y016453D02*
X002220Y016453D01*
X002220Y016354D02*
X002149Y016354D01*
X002303Y016945D02*
X001948Y016945D01*
X001684Y017282D02*
X001684Y017654D01*
X002700Y017654D01*
X002700Y017994D01*
X004240Y017994D01*
X004116Y017733D02*
X003289Y017733D01*
X003080Y017534D02*
X003860Y017534D01*
X003860Y017189D01*
X004310Y017189D01*
X004406Y017339D02*
X004426Y017339D01*
X004406Y017438D02*
X004020Y017438D01*
X004020Y017536D02*
X004406Y017536D01*
X004406Y017635D02*
X003986Y017635D01*
X003995Y017832D02*
X002860Y017832D01*
X002860Y017733D02*
X002871Y017733D01*
X002400Y018654D02*
X004763Y018654D01*
X004763Y017445D01*
X004566Y017445D02*
X004566Y018414D01*
X002180Y018414D01*
X002180Y018874D01*
X001900Y018874D01*
X002060Y019154D02*
X002220Y019154D01*
X002220Y019114D01*
X002400Y019114D01*
X002400Y018654D01*
X002060Y019154D02*
X002060Y019214D01*
X001800Y019214D01*
X001800Y021219D01*
X002335Y021219D01*
X002335Y022219D02*
X001620Y022219D01*
X001620Y022234D01*
X001250Y019194D02*
X001000Y019194D01*
X001000Y019094D01*
X001250Y019094D01*
X001250Y019194D01*
X001250Y019112D02*
X001000Y019112D01*
X001250Y019014D02*
X001350Y019014D01*
X001350Y018915D02*
X001250Y018915D01*
X001250Y018817D02*
X001350Y018817D01*
X003078Y015734D02*
X003080Y015734D01*
X003078Y015734D02*
X003078Y014742D01*
X003440Y014429D02*
X003440Y015334D01*
X003620Y015654D02*
X003620Y016599D01*
X004310Y016599D01*
X004310Y016402D02*
X003920Y016402D01*
X003920Y016114D01*
X004064Y015862D02*
X004409Y015862D01*
X004409Y015960D02*
X004168Y015960D01*
X004208Y016059D02*
X004210Y016059D01*
X004410Y016059D02*
X004429Y016059D01*
X004603Y015566D02*
X003940Y015566D01*
X003940Y015468D02*
X004603Y015468D01*
X004603Y015369D02*
X003940Y015369D01*
X003940Y015271D02*
X004603Y015271D01*
X004603Y015172D02*
X003940Y015172D01*
X003940Y015074D02*
X004603Y015074D01*
X004603Y014975D02*
X004185Y014975D01*
X004240Y014877D02*
X004603Y014877D01*
X004672Y014778D02*
X004240Y014778D01*
X004240Y014680D02*
X006760Y014680D01*
X006732Y014581D02*
X004240Y014581D01*
X004240Y014483D02*
X006737Y014483D01*
X006782Y014384D02*
X004240Y014384D01*
X004240Y014286D02*
X006860Y014286D01*
X006860Y014187D02*
X004240Y014187D01*
X004240Y014089D02*
X006860Y014089D01*
X006860Y013990D02*
X004240Y013990D01*
X004240Y013892D02*
X006860Y013892D01*
X006896Y013793D02*
X004240Y013793D01*
X004240Y013695D02*
X006824Y013695D01*
X006799Y013596D02*
X004240Y013596D01*
X004240Y013498D02*
X006808Y013498D01*
X006857Y013399D02*
X004151Y013399D01*
X004080Y013554D02*
X004080Y014854D01*
X003780Y014854D01*
X003780Y015654D01*
X003620Y015654D01*
X003701Y014429D02*
X003440Y014429D01*
X003453Y013695D02*
X003331Y013695D01*
X003523Y013596D02*
X002756Y013596D01*
X002756Y013498D02*
X003523Y013498D01*
X003523Y013399D02*
X002756Y013399D01*
X002756Y013301D02*
X002890Y013301D01*
X002792Y013202D02*
X002756Y013202D01*
X002756Y013695D02*
X002829Y013695D01*
X002376Y013596D02*
X002289Y013596D01*
X002110Y014089D02*
X002050Y014089D01*
X002050Y014187D02*
X002110Y014187D01*
X002110Y014286D02*
X002050Y014286D01*
X001892Y014778D02*
X002318Y014778D01*
X002318Y014877D02*
X002229Y014877D01*
X002260Y014975D02*
X002329Y014975D01*
X002460Y015274D02*
X002100Y015274D01*
X002100Y014974D01*
X001680Y014974D01*
X001680Y014994D01*
X002444Y012808D02*
X002456Y012808D01*
X002346Y012710D02*
X002814Y012710D01*
X002913Y012611D02*
X002247Y012611D01*
X001755Y011429D02*
X001000Y011429D01*
X001000Y011331D02*
X001690Y011331D01*
X001690Y011232D02*
X001000Y011232D01*
X001000Y011134D02*
X001690Y011134D01*
X001690Y011035D02*
X001000Y011035D01*
X001000Y010937D02*
X001778Y010937D01*
X001876Y010838D02*
X001000Y010838D01*
X001000Y010740D02*
X003257Y010740D01*
X003276Y010641D02*
X001000Y010641D01*
X001000Y011725D02*
X001010Y011725D01*
X001000Y012414D02*
X001040Y012414D01*
X003247Y012611D02*
X003523Y012611D01*
X003523Y012710D02*
X003346Y012710D01*
X003444Y012808D02*
X003523Y012808D01*
X003523Y012907D02*
X003450Y012907D01*
X003450Y013005D02*
X003523Y013005D01*
X003523Y013104D02*
X003450Y013104D01*
X003523Y013202D02*
X003368Y013202D01*
X003270Y013301D02*
X003523Y013301D01*
X003683Y013554D02*
X004080Y013554D01*
X003843Y013301D02*
X007001Y013301D01*
X007174Y013301D02*
X011647Y013301D01*
X011647Y013399D02*
X007317Y013399D01*
X007087Y013577D02*
X011484Y013575D01*
X011484Y014916D01*
X011644Y014384D02*
X011647Y014384D01*
X011644Y014286D02*
X011647Y014286D01*
X011644Y014187D02*
X011647Y014187D01*
X011644Y014089D02*
X011647Y014089D01*
X011644Y013990D02*
X011647Y013990D01*
X011644Y013892D02*
X011647Y013892D01*
X011644Y013793D02*
X011647Y013793D01*
X011644Y013695D02*
X011647Y013695D01*
X011644Y013596D02*
X011647Y013596D01*
X011633Y013498D02*
X011647Y013498D01*
X011647Y013202D02*
X006309Y013202D01*
X006309Y013104D02*
X011647Y013104D01*
X011647Y013005D02*
X006309Y013005D01*
X006309Y012414D02*
X009630Y012414D01*
X009630Y012316D02*
X006309Y012316D01*
X006309Y012217D02*
X009615Y012217D01*
X009575Y012119D02*
X006309Y012119D01*
X006293Y011823D02*
X009683Y011823D01*
X009603Y011922D02*
X004047Y011922D01*
X003843Y012020D02*
X009572Y012020D01*
X010037Y011823D02*
X012470Y011823D01*
X012470Y011725D02*
X006309Y011725D01*
X006309Y011626D02*
X012528Y011626D01*
X012470Y011922D02*
X010117Y011922D01*
X010148Y012020D02*
X012470Y012020D01*
X012565Y012119D02*
X010145Y012119D01*
X010105Y012217D02*
X012663Y012217D01*
X012579Y012316D02*
X010090Y012316D01*
X010090Y012414D02*
X012480Y012414D01*
X012470Y012513D02*
X012007Y012513D01*
X012106Y012611D02*
X012470Y012611D01*
X012470Y012710D02*
X012107Y012710D01*
X012107Y012808D02*
X012514Y012808D01*
X012613Y012907D02*
X012107Y012907D01*
X012107Y013005D02*
X012629Y013005D01*
X012531Y013104D02*
X012107Y013104D01*
X012107Y013202D02*
X012470Y013202D01*
X012470Y013301D02*
X012107Y013301D01*
X012107Y013399D02*
X012470Y013399D01*
X012470Y013498D02*
X012107Y013498D01*
X012107Y013596D02*
X012562Y013596D01*
X012661Y013695D02*
X012107Y013695D01*
X012107Y013793D02*
X012621Y013793D01*
X012523Y013892D02*
X012107Y013892D01*
X012107Y013990D02*
X012470Y013990D01*
X012470Y014089D02*
X012107Y014089D01*
X012107Y014187D02*
X012470Y014187D01*
X012472Y014286D02*
X012107Y014286D01*
X012107Y014384D02*
X012130Y014384D01*
X012252Y014384D02*
X012290Y014384D01*
X012290Y014483D02*
X012252Y014483D01*
X012252Y014581D02*
X012290Y014581D01*
X012290Y014680D02*
X012252Y014680D01*
X012252Y014778D02*
X012290Y014778D01*
X012290Y014877D02*
X012252Y014877D01*
X012290Y014897D02*
X012290Y014935D01*
X012646Y014935D01*
X012646Y014897D01*
X012377Y014897D01*
X012290Y014897D01*
X012412Y014384D02*
X012524Y014384D01*
X012684Y014897D02*
X012684Y014935D01*
X013040Y014935D01*
X013040Y014897D01*
X012953Y014897D01*
X012684Y014897D01*
X011820Y015960D02*
X011731Y015960D01*
X011820Y016059D02*
X011390Y016059D01*
X011390Y015960D02*
X011509Y015960D01*
X011411Y016157D02*
X011820Y016157D01*
X011820Y016256D02*
X011483Y016256D01*
X011508Y016354D02*
X011820Y016354D01*
X011820Y016453D02*
X011500Y016453D01*
X011451Y016551D02*
X011820Y016551D01*
X011820Y016650D02*
X011308Y016650D01*
X011132Y016650D02*
X010268Y016650D01*
X010411Y016551D02*
X010989Y016551D01*
X010940Y016453D02*
X010790Y016453D01*
X010530Y016453D02*
X010460Y016453D01*
X010092Y016650D02*
X009577Y016650D01*
X009687Y016551D02*
X009949Y016551D01*
X009900Y016453D02*
X009728Y016453D01*
X009728Y016354D02*
X009892Y016354D01*
X009917Y016256D02*
X009695Y016256D01*
X009303Y016650D02*
X008621Y016650D01*
X008621Y016551D02*
X009193Y016551D01*
X009152Y016453D02*
X008621Y016453D01*
X008588Y016354D02*
X009152Y016354D01*
X008854Y016256D02*
X008621Y016256D01*
X008588Y016748D02*
X011820Y016748D01*
X011820Y016847D02*
X008621Y016847D01*
X008621Y016945D02*
X011820Y016945D01*
X011820Y017044D02*
X008621Y017044D01*
X008589Y017142D02*
X011820Y017142D01*
X011820Y017241D02*
X008621Y017241D01*
X008621Y017339D02*
X011820Y017339D01*
X011820Y017438D02*
X008621Y017438D01*
X008589Y017536D02*
X011820Y017536D01*
X011820Y017635D02*
X008621Y017635D01*
X008621Y017733D02*
X011820Y017733D01*
X011820Y017832D02*
X008621Y017832D01*
X008589Y017930D02*
X011820Y017930D01*
X011820Y018029D02*
X008621Y018029D01*
X008621Y018127D02*
X011820Y018127D01*
X011820Y018226D02*
X008621Y018226D01*
X008545Y018324D02*
X011820Y018324D01*
X011820Y018423D02*
X008521Y018423D01*
X008353Y018423D02*
X008315Y018423D01*
X008315Y018388D02*
X008315Y018913D01*
X008046Y018913D01*
X008046Y018578D01*
X008061Y018523D01*
X008090Y018473D01*
X008131Y018432D01*
X008181Y018403D01*
X008236Y018388D01*
X008315Y018388D01*
X008315Y018521D02*
X008353Y018521D01*
X008353Y018620D02*
X008315Y018620D01*
X008315Y018718D02*
X008353Y018718D01*
X008353Y018817D02*
X008315Y018817D01*
X008315Y018915D02*
X007630Y018915D01*
X007630Y018817D02*
X008046Y018817D01*
X008046Y018718D02*
X007630Y018718D01*
X007630Y018620D02*
X008046Y018620D01*
X008062Y018521D02*
X007630Y018521D01*
X007588Y018423D02*
X008147Y018423D01*
X007690Y018324D02*
X007490Y018324D01*
X007391Y018226D02*
X007614Y018226D01*
X007614Y018127D02*
X007090Y018127D01*
X007090Y018029D02*
X007614Y018029D01*
X007646Y017930D02*
X007090Y017930D01*
X006983Y017339D02*
X006855Y017339D01*
X006866Y017241D02*
X006958Y017241D01*
X006558Y017044D02*
X006520Y017044D01*
X006539Y016992D02*
X005806Y016992D01*
X005806Y016992D01*
X005806Y016992D01*
X006027Y016992D01*
X006027Y016967D01*
X006013Y016916D01*
X005987Y016871D01*
X005982Y016866D01*
X005987Y016861D01*
X005987Y016730D01*
X005954Y016697D01*
X005987Y016664D01*
X005987Y016534D01*
X005954Y016500D01*
X005987Y016467D01*
X005987Y016365D01*
X006210Y016365D01*
X006210Y016704D01*
X006360Y016854D01*
X006342Y016854D01*
X006304Y016865D01*
X006270Y016884D01*
X006242Y016912D01*
X006222Y016947D01*
X006212Y016985D01*
X006212Y017035D01*
X006206Y017029D01*
X006024Y017029D01*
X006027Y017018D01*
X006027Y016992D01*
X005806Y016992D01*
X005806Y017189D02*
X006140Y017189D01*
X006140Y017654D01*
X006539Y017654D01*
X006539Y017654D01*
X006240Y017994D02*
X006240Y018014D01*
X006260Y018034D01*
X006240Y017994D02*
X005920Y017674D01*
X005920Y017445D01*
X005550Y017445D01*
X005680Y017674D02*
X005680Y017854D01*
X005740Y017854D01*
X005740Y018014D01*
X005680Y017674D02*
X005353Y017674D01*
X005353Y017445D01*
X005156Y017445D02*
X005156Y018014D01*
X005260Y018014D01*
X005440Y018334D02*
X005440Y018614D01*
X005760Y018614D01*
X005760Y019254D01*
X007140Y019254D01*
X007140Y019634D01*
X006980Y019525D02*
X006980Y019414D01*
X006628Y019414D01*
X006630Y019422D01*
X006630Y019600D01*
X006361Y019600D01*
X006361Y019638D01*
X006630Y019638D01*
X006630Y019816D01*
X006619Y019854D01*
X006600Y019888D01*
X006572Y019916D01*
X006538Y019936D01*
X006499Y019946D01*
X006361Y019946D01*
X006361Y019638D01*
X006323Y019638D01*
X006323Y019946D01*
X006199Y019946D01*
X006257Y020004D01*
X006257Y020435D01*
X006222Y020469D01*
X006257Y020504D01*
X006257Y020529D01*
X006290Y020529D01*
X006290Y020135D01*
X006401Y020024D01*
X006644Y020024D01*
X006677Y019990D01*
X007123Y019990D01*
X007187Y020055D01*
X007187Y020422D01*
X007136Y020473D01*
X007169Y020492D01*
X007197Y020520D01*
X007217Y020554D01*
X007227Y020593D01*
X007227Y020731D01*
X006919Y020731D01*
X006919Y020769D01*
X007227Y020769D01*
X007227Y020908D01*
X007217Y020946D01*
X007197Y020980D01*
X007169Y021008D01*
X007135Y021028D01*
X007097Y021038D01*
X006919Y021038D01*
X006919Y020769D01*
X006881Y020769D01*
X006881Y021038D01*
X006703Y021038D01*
X006665Y021028D01*
X006656Y021023D01*
X006685Y021051D01*
X006728Y021157D01*
X006728Y021272D01*
X006685Y021378D01*
X006603Y021459D01*
X006530Y021489D01*
X007172Y021489D01*
X007172Y021397D01*
X007197Y021336D01*
X007196Y021333D01*
X007202Y021324D01*
X007212Y021300D01*
X007212Y021279D01*
X007230Y021260D01*
X007230Y020899D01*
X007365Y020764D01*
X007440Y020764D01*
X007440Y020541D01*
X007505Y020477D01*
X008107Y020477D01*
X008159Y020528D01*
X008178Y020495D01*
X008206Y020467D01*
X008240Y020447D01*
X008278Y020437D01*
X008504Y020437D01*
X008504Y020832D01*
X008604Y020832D01*
X008604Y020437D01*
X008830Y020437D01*
X008868Y020447D01*
X008902Y020467D01*
X008930Y020495D01*
X008950Y020529D01*
X008960Y020567D01*
X008960Y020832D01*
X008604Y020832D01*
X008604Y020932D01*
X008960Y020932D01*
X008960Y021197D01*
X008950Y021235D01*
X008930Y021270D01*
X008902Y021298D01*
X008868Y021317D01*
X008830Y021327D01*
X008604Y021327D01*
X008604Y020932D01*
X008504Y020932D01*
X008504Y021327D01*
X008278Y021327D01*
X008240Y021317D01*
X008206Y021298D01*
X008178Y021270D01*
X008159Y021236D01*
X008107Y021287D01*
X007701Y021287D01*
X007705Y021291D01*
X007748Y021397D01*
X007748Y021512D01*
X007705Y021618D01*
X007690Y021632D01*
X007690Y021640D01*
X007748Y021698D01*
X007748Y022006D01*
X007684Y022070D01*
X007549Y022070D01*
X007537Y022082D01*
X007346Y022082D01*
X007335Y022070D01*
X007199Y022070D01*
X007135Y022006D01*
X007135Y021949D01*
X006259Y021949D01*
X006267Y021957D01*
X006286Y021991D01*
X006297Y022029D01*
X006297Y022184D01*
X005902Y022184D01*
X005902Y022254D01*
X006297Y022254D01*
X006297Y022409D01*
X006286Y022447D01*
X006267Y022481D01*
X006239Y022509D01*
X006205Y022529D01*
X006166Y022539D01*
X005902Y022539D01*
X005902Y022254D01*
X005832Y022254D01*
X005832Y022184D01*
X005437Y022184D01*
X005437Y022029D01*
X005447Y021991D01*
X005467Y021957D01*
X005483Y021941D01*
X005477Y021935D01*
X005477Y021504D01*
X005511Y021469D01*
X005477Y021435D01*
X005477Y021004D01*
X005511Y020969D01*
X005477Y020935D01*
X005477Y020504D01*
X005481Y020499D01*
X005441Y020499D01*
X005377Y020435D01*
X005377Y020004D01*
X005441Y019939D01*
X005640Y019939D01*
X005640Y019900D01*
X005340Y019900D01*
X005340Y019802D02*
X005434Y019802D01*
X005441Y019809D02*
X005340Y019708D01*
X005340Y022914D01*
X006194Y022914D01*
X006152Y022812D01*
X006152Y022697D01*
X006195Y022591D01*
X006277Y022510D01*
X006383Y022466D01*
X006497Y022466D01*
X006603Y022510D01*
X006658Y022564D01*
X006719Y022564D01*
X006830Y022675D01*
X006830Y022684D01*
X007135Y022684D01*
X007135Y022446D01*
X007199Y022382D01*
X007684Y022382D01*
X007748Y022446D01*
X007748Y022684D01*
X008198Y022684D01*
X008198Y022446D01*
X008203Y022441D01*
X008188Y022427D01*
X008168Y022392D01*
X008158Y022354D01*
X008158Y022230D01*
X008500Y022230D01*
X008500Y022222D01*
X008158Y022222D01*
X008158Y022098D01*
X008168Y022060D01*
X008188Y022026D01*
X008203Y022011D01*
X008198Y022006D01*
X008198Y021698D01*
X008262Y021634D01*
X008397Y021634D01*
X008409Y021622D01*
X008600Y021622D01*
X008602Y021624D01*
X008842Y021624D01*
X008857Y021610D01*
X008963Y021566D01*
X009077Y021566D01*
X009183Y021610D01*
X009265Y021691D01*
X009308Y021797D01*
X009308Y021912D01*
X009265Y022018D01*
X009250Y022032D01*
X009250Y022684D01*
X009670Y022684D01*
X009670Y022217D01*
X009636Y022183D01*
X009636Y021737D01*
X009701Y021673D01*
X010067Y021673D01*
X010132Y021737D01*
X010132Y022183D01*
X010067Y022247D01*
X010050Y022247D01*
X010050Y022914D01*
X011353Y022914D01*
X011353Y022871D01*
X010760Y022871D01*
X010649Y022760D01*
X010649Y022150D01*
X010644Y022150D01*
X010644Y022183D01*
X010579Y022247D01*
X010213Y022247D01*
X010148Y022183D01*
X010148Y021737D01*
X010213Y021673D01*
X010579Y021673D01*
X010590Y021684D01*
X010590Y021619D01*
X010563Y021619D01*
X010314Y021370D01*
X010314Y021018D01*
X010563Y020769D01*
X010915Y020769D01*
X011164Y021018D01*
X011164Y021370D01*
X010970Y021564D01*
X010970Y021822D01*
X011029Y021881D01*
X011029Y022491D01*
X011353Y022491D01*
X011353Y022439D01*
X011418Y022374D01*
X012060Y022374D01*
X012125Y022439D01*
X012125Y022914D01*
X013140Y022914D01*
X013140Y022498D01*
X013115Y022525D01*
X013112Y022525D01*
X013109Y022527D01*
X013017Y022527D01*
X012991Y022528D01*
X012991Y022550D01*
X012926Y022614D01*
X012284Y022614D01*
X012219Y022550D01*
X012219Y022065D01*
X012284Y022000D01*
X012784Y022000D01*
X012784Y021516D01*
X012746Y021477D01*
X012746Y021562D01*
X012681Y021627D01*
X012197Y021627D01*
X012132Y021562D01*
X012132Y020920D01*
X012197Y020856D01*
X012681Y020856D01*
X012727Y020901D01*
X012727Y020580D01*
X012770Y020537D01*
X012770Y020524D01*
X012405Y020524D01*
X012372Y020491D01*
X012372Y020696D01*
X012307Y020761D01*
X011823Y020761D01*
X011758Y020696D01*
X011758Y020565D01*
X011323Y020565D01*
X011317Y020570D01*
X011245Y020565D01*
X011173Y020565D01*
X011168Y020560D01*
X011160Y020559D01*
X011113Y020505D01*
X011093Y020485D01*
X010909Y020485D01*
X010851Y020427D01*
X009361Y020427D01*
X009258Y020324D01*
X008721Y020324D01*
X008610Y020213D01*
X008610Y020204D01*
X008021Y020204D01*
X007910Y020093D01*
X007910Y020064D01*
X007654Y020064D01*
X007651Y020067D01*
X007576Y020064D01*
X007501Y020064D01*
X007498Y020061D01*
X007493Y020061D01*
X007443Y020006D01*
X007390Y019953D01*
X007390Y019948D01*
X007387Y019945D01*
X007390Y019870D01*
X007390Y019824D01*
X007061Y019824D01*
X006950Y019713D01*
X006950Y019555D01*
X006980Y019525D01*
X006980Y019506D02*
X006630Y019506D01*
X006630Y019703D02*
X006950Y019703D01*
X006950Y019605D02*
X006361Y019605D01*
X006361Y019703D02*
X006323Y019703D01*
X006323Y019802D02*
X006361Y019802D01*
X006361Y019900D02*
X006323Y019900D01*
X006252Y019999D02*
X006669Y019999D01*
X006588Y019900D02*
X007389Y019900D01*
X007436Y019999D02*
X007131Y019999D01*
X007187Y020097D02*
X007914Y020097D01*
X008013Y020196D02*
X007187Y020196D01*
X007187Y020294D02*
X008691Y020294D01*
X008604Y020491D02*
X008504Y020491D01*
X008504Y020590D02*
X008604Y020590D01*
X008604Y020688D02*
X008504Y020688D01*
X008504Y020787D02*
X008604Y020787D01*
X008604Y020885D02*
X009390Y020885D01*
X009292Y020984D02*
X008960Y020984D01*
X008960Y021082D02*
X009274Y021082D01*
X009274Y021002D02*
X009274Y021164D01*
X009709Y021164D01*
X009769Y021164D01*
X009769Y020729D01*
X009932Y020729D01*
X010204Y021002D01*
X010204Y021164D01*
X009769Y021164D01*
X009769Y021224D01*
X010204Y021224D01*
X010204Y021387D01*
X009932Y021659D01*
X009769Y021659D01*
X009769Y021224D01*
X009709Y021224D01*
X009709Y021164D01*
X009709Y020729D01*
X009546Y020729D01*
X009274Y021002D01*
X009274Y021224D02*
X009709Y021224D01*
X009709Y021659D01*
X009546Y021659D01*
X009274Y021387D01*
X009274Y021224D01*
X009274Y021279D02*
X008920Y021279D01*
X008960Y021181D02*
X009709Y021181D01*
X009769Y021181D02*
X010314Y021181D01*
X010314Y021279D02*
X010204Y021279D01*
X010204Y021378D02*
X010322Y021378D01*
X010420Y021476D02*
X010115Y021476D01*
X010016Y021575D02*
X010519Y021575D01*
X010579Y021673D02*
X010590Y021673D01*
X010970Y021673D02*
X011327Y021673D01*
X011324Y021678D02*
X011343Y021644D01*
X011371Y021616D01*
X011378Y021613D01*
X011374Y021609D01*
X011354Y021575D01*
X011344Y021537D01*
X011344Y021290D01*
X011643Y021290D01*
X011643Y021586D01*
X011691Y021586D01*
X011691Y021885D01*
X011787Y021885D01*
X011787Y021667D01*
X011739Y021667D01*
X011739Y021290D01*
X011643Y021290D01*
X011643Y021193D01*
X011739Y021193D01*
X011739Y020816D01*
X011908Y020816D01*
X011946Y020826D01*
X011980Y020846D01*
X012008Y020874D01*
X012028Y020908D01*
X012038Y020946D01*
X012038Y021193D01*
X011739Y021193D01*
X011739Y021290D01*
X012038Y021290D01*
X012038Y021537D01*
X012028Y021575D01*
X012021Y021586D01*
X012034Y021586D01*
X012072Y021597D01*
X012107Y021616D01*
X012135Y021644D01*
X012154Y021678D01*
X012165Y021717D01*
X012165Y021885D01*
X011787Y021885D01*
X011787Y021982D01*
X011691Y021982D01*
X011691Y022280D01*
X011444Y022280D01*
X011405Y022270D01*
X011371Y022250D01*
X011343Y022222D01*
X011324Y022188D01*
X011313Y022150D01*
X011313Y021982D01*
X011690Y021982D01*
X011690Y021885D01*
X011313Y021885D01*
X011313Y021717D01*
X011324Y021678D01*
X011313Y021772D02*
X010970Y021772D01*
X011018Y021870D02*
X011313Y021870D01*
X011313Y022067D02*
X011029Y022067D01*
X011029Y021969D02*
X011690Y021969D01*
X011787Y021969D02*
X012784Y021969D01*
X012784Y021870D02*
X012165Y021870D01*
X012165Y021772D02*
X012784Y021772D01*
X012784Y021673D02*
X012151Y021673D01*
X012144Y021575D02*
X012028Y021575D01*
X012038Y021476D02*
X012132Y021476D01*
X012132Y021378D02*
X012038Y021378D01*
X012132Y021279D02*
X011739Y021279D01*
X011643Y021279D02*
X011164Y021279D01*
X011164Y021181D02*
X011344Y021181D01*
X011344Y021193D02*
X011344Y020946D01*
X011354Y020908D01*
X011374Y020874D01*
X011402Y020846D01*
X011436Y020826D01*
X011474Y020816D01*
X011643Y020816D01*
X011643Y021193D01*
X011344Y021193D01*
X011344Y021082D02*
X011164Y021082D01*
X011130Y020984D02*
X011344Y020984D01*
X011367Y020885D02*
X011031Y020885D01*
X010933Y020787D02*
X012727Y020787D01*
X012727Y020885D02*
X012711Y020885D01*
X012727Y020688D02*
X012372Y020688D01*
X012372Y020590D02*
X012727Y020590D01*
X012730Y020064D02*
X012730Y019849D01*
X012730Y019659D01*
X012595Y019524D01*
X011807Y019524D01*
X011763Y019481D01*
X011657Y019437D01*
X011543Y019437D01*
X011437Y019481D01*
X011422Y019495D01*
X011373Y019495D01*
X011355Y019477D01*
X010909Y019477D01*
X010891Y019495D01*
X009218Y019495D01*
X009203Y019481D01*
X009097Y019437D01*
X008983Y019437D01*
X008877Y019481D01*
X008862Y019495D01*
X008586Y019495D01*
X008528Y019437D01*
X008537Y019432D01*
X008559Y019410D01*
X008585Y019436D01*
X008871Y019436D01*
X008925Y019382D01*
X008978Y019436D01*
X009264Y019436D01*
X009318Y019382D01*
X009372Y019436D01*
X009658Y019436D01*
X009712Y019382D01*
X009766Y019436D01*
X010052Y019436D01*
X010106Y019382D01*
X010160Y019436D01*
X010446Y019436D01*
X010499Y019382D01*
X010553Y019436D01*
X010839Y019436D01*
X010893Y019382D01*
X010947Y019436D01*
X011233Y019436D01*
X011287Y019382D01*
X011341Y019436D01*
X011627Y019436D01*
X011680Y019382D01*
X011734Y019436D01*
X012020Y019436D01*
X012046Y019410D01*
X012068Y019432D01*
X012118Y019461D01*
X012173Y019476D01*
X012252Y019476D01*
X012252Y018951D01*
X012290Y018951D01*
X012646Y018951D01*
X012646Y019476D01*
X012567Y019476D01*
X012511Y019461D01*
X012468Y019436D01*
X012424Y019461D01*
X012369Y019476D01*
X012290Y019476D01*
X012290Y018951D01*
X012290Y018913D01*
X012559Y018913D01*
X012646Y018913D01*
X012646Y018951D01*
X012684Y018951D01*
X013040Y018951D01*
X013040Y019476D01*
X012961Y019476D01*
X012905Y019461D01*
X012862Y019436D01*
X012818Y019461D01*
X012762Y019476D01*
X012684Y019476D01*
X012684Y018951D01*
X012684Y018913D01*
X012771Y018913D01*
X013040Y018913D01*
X013040Y018951D01*
X013077Y018951D01*
X013077Y019476D01*
X013140Y019476D01*
X013140Y020109D01*
X013095Y020064D01*
X012730Y020064D01*
X012730Y019999D02*
X013140Y019999D01*
X013128Y020097D02*
X013140Y020097D01*
X013140Y019900D02*
X012730Y019900D01*
X012730Y019802D02*
X013140Y019802D01*
X013140Y019703D02*
X012730Y019703D01*
X012676Y019605D02*
X013140Y019605D01*
X013140Y019506D02*
X011789Y019506D01*
X011706Y019408D02*
X011655Y019408D01*
X011313Y019408D02*
X011261Y019408D01*
X010919Y019408D02*
X010867Y019408D01*
X010525Y019408D02*
X010474Y019408D01*
X010131Y019408D02*
X010080Y019408D01*
X009738Y019408D02*
X009686Y019408D01*
X009344Y019408D02*
X009292Y019408D01*
X008950Y019408D02*
X008899Y019408D01*
X009327Y020393D02*
X007187Y020393D01*
X007167Y020491D02*
X007490Y020491D01*
X007440Y020590D02*
X007226Y020590D01*
X007227Y020688D02*
X007440Y020688D01*
X007342Y020787D02*
X007227Y020787D01*
X007227Y020885D02*
X007244Y020885D01*
X007230Y020984D02*
X007193Y020984D01*
X007230Y021082D02*
X006698Y021082D01*
X006728Y021181D02*
X007230Y021181D01*
X007212Y021279D02*
X006725Y021279D01*
X006684Y021378D02*
X007179Y021378D01*
X007172Y021476D02*
X006561Y021476D01*
X006273Y021969D02*
X007135Y021969D01*
X007196Y022067D02*
X006297Y022067D01*
X006297Y022166D02*
X008158Y022166D01*
X008158Y022264D02*
X006297Y022264D01*
X006297Y022363D02*
X008160Y022363D01*
X008198Y022461D02*
X007748Y022461D01*
X007748Y022560D02*
X008198Y022560D01*
X008198Y022658D02*
X007748Y022658D01*
X007687Y022067D02*
X008166Y022067D01*
X008198Y021969D02*
X007748Y021969D01*
X007748Y021870D02*
X008198Y021870D01*
X008198Y021772D02*
X007748Y021772D01*
X007723Y021673D02*
X008223Y021673D01*
X008188Y021279D02*
X008116Y021279D01*
X007741Y021378D02*
X009274Y021378D01*
X009363Y021476D02*
X007748Y021476D01*
X007722Y021575D02*
X008941Y021575D01*
X009099Y021575D02*
X009462Y021575D01*
X009247Y021673D02*
X009701Y021673D01*
X009709Y021575D02*
X009769Y021575D01*
X009769Y021476D02*
X009709Y021476D01*
X009709Y021378D02*
X009769Y021378D01*
X009769Y021279D02*
X009709Y021279D01*
X009709Y021082D02*
X009769Y021082D01*
X009769Y020984D02*
X009709Y020984D01*
X009709Y020885D02*
X009769Y020885D01*
X009769Y020787D02*
X009709Y020787D01*
X009489Y020787D02*
X008960Y020787D01*
X008960Y020688D02*
X011758Y020688D01*
X011758Y020590D02*
X008960Y020590D01*
X008926Y020491D02*
X011099Y020491D01*
X010545Y020787D02*
X009989Y020787D01*
X010088Y020885D02*
X010447Y020885D01*
X010348Y020984D02*
X010186Y020984D01*
X010204Y021082D02*
X010314Y021082D01*
X010212Y021673D02*
X010068Y021673D01*
X010132Y021772D02*
X010148Y021772D01*
X010148Y021870D02*
X010132Y021870D01*
X010132Y021969D02*
X010148Y021969D01*
X010148Y022067D02*
X010132Y022067D01*
X010132Y022166D02*
X010148Y022166D01*
X010050Y022264D02*
X010649Y022264D01*
X010644Y022166D02*
X010649Y022166D01*
X010649Y022363D02*
X010050Y022363D01*
X010050Y022461D02*
X010649Y022461D01*
X010649Y022560D02*
X010050Y022560D01*
X010050Y022658D02*
X010649Y022658D01*
X010649Y022757D02*
X010050Y022757D01*
X010050Y022855D02*
X010744Y022855D01*
X011029Y022461D02*
X011353Y022461D01*
X011396Y022264D02*
X011029Y022264D01*
X011029Y022166D02*
X011318Y022166D01*
X011029Y022363D02*
X012219Y022363D01*
X012219Y022461D02*
X012125Y022461D01*
X012125Y022560D02*
X012230Y022560D01*
X012125Y022658D02*
X013140Y022658D01*
X013140Y022560D02*
X012981Y022560D01*
X013140Y022757D02*
X012125Y022757D01*
X012125Y022855D02*
X013140Y022855D01*
X012784Y021575D02*
X012734Y021575D01*
X012219Y022067D02*
X012165Y022067D01*
X012165Y022150D02*
X012154Y022188D01*
X012135Y022222D01*
X012107Y022250D01*
X012072Y022270D01*
X012034Y022280D01*
X011787Y022280D01*
X011787Y021982D01*
X012165Y021982D01*
X012165Y022150D01*
X012160Y022166D02*
X012219Y022166D01*
X012219Y022264D02*
X012082Y022264D01*
X011787Y022264D02*
X011691Y022264D01*
X011691Y022166D02*
X011787Y022166D01*
X011787Y022067D02*
X011691Y022067D01*
X011691Y021870D02*
X011787Y021870D01*
X011787Y021772D02*
X011691Y021772D01*
X011691Y021673D02*
X011787Y021673D01*
X011739Y021575D02*
X011643Y021575D01*
X011643Y021476D02*
X011739Y021476D01*
X011739Y021378D02*
X011643Y021378D01*
X011643Y021181D02*
X011739Y021181D01*
X011739Y021082D02*
X011643Y021082D01*
X011643Y020984D02*
X011739Y020984D01*
X011739Y020885D02*
X011643Y020885D01*
X012015Y020885D02*
X012167Y020885D01*
X012132Y020984D02*
X012038Y020984D01*
X012038Y021082D02*
X012132Y021082D01*
X012132Y021181D02*
X012038Y021181D01*
X011344Y021378D02*
X011156Y021378D01*
X011058Y021476D02*
X011344Y021476D01*
X011354Y021575D02*
X010970Y021575D01*
X009636Y021772D02*
X009298Y021772D01*
X009308Y021870D02*
X009636Y021870D01*
X009636Y021969D02*
X009285Y021969D01*
X009250Y022067D02*
X009636Y022067D01*
X009636Y022166D02*
X009250Y022166D01*
X009250Y022264D02*
X009670Y022264D01*
X009670Y022363D02*
X009250Y022363D01*
X009250Y022461D02*
X009670Y022461D01*
X009670Y022560D02*
X009250Y022560D01*
X009250Y022658D02*
X009670Y022658D01*
X008604Y021279D02*
X008504Y021279D01*
X008504Y021181D02*
X008604Y021181D01*
X008604Y021082D02*
X008504Y021082D01*
X008504Y020984D02*
X008604Y020984D01*
X008182Y020491D02*
X008122Y020491D01*
X008042Y019211D02*
X008046Y019211D01*
X008046Y019112D02*
X007630Y019112D01*
X007630Y019014D02*
X008046Y019014D01*
X007614Y017832D02*
X007553Y017832D01*
X007572Y017733D02*
X007614Y017733D01*
X007614Y017635D02*
X007572Y017635D01*
X007572Y017536D02*
X007646Y017536D01*
X007614Y017438D02*
X007564Y017438D01*
X007587Y017339D02*
X007614Y017339D01*
X007612Y017241D02*
X007614Y017241D01*
X007612Y017142D02*
X007646Y017142D01*
X007612Y017044D02*
X007614Y017044D01*
X007608Y016945D02*
X007614Y016945D01*
X007614Y016847D02*
X007532Y016847D01*
X007304Y016847D02*
X007266Y016847D01*
X007266Y016945D02*
X007304Y016945D01*
X007304Y017044D02*
X007266Y017044D01*
X006380Y016205D02*
X005806Y016205D01*
X005987Y016453D02*
X006210Y016453D01*
X006210Y016551D02*
X005987Y016551D01*
X005987Y016650D02*
X006210Y016650D01*
X006254Y016748D02*
X005987Y016748D01*
X005987Y016847D02*
X006353Y016847D01*
X006223Y016945D02*
X006021Y016945D01*
X005440Y018334D02*
X004960Y018334D01*
X004960Y017445D01*
X004406Y017733D02*
X004364Y017733D01*
X005441Y019809D02*
X005582Y019809D01*
X005582Y019842D01*
X005640Y019900D01*
X005382Y019999D02*
X005340Y019999D01*
X005340Y020097D02*
X005377Y020097D01*
X005377Y020196D02*
X005340Y020196D01*
X005340Y020294D02*
X005377Y020294D01*
X005377Y020393D02*
X005340Y020393D01*
X005340Y020491D02*
X005433Y020491D01*
X005477Y020590D02*
X005340Y020590D01*
X005340Y020688D02*
X005477Y020688D01*
X005477Y020787D02*
X005340Y020787D01*
X005340Y020885D02*
X005477Y020885D01*
X005497Y020984D02*
X005340Y020984D01*
X005340Y021082D02*
X005477Y021082D01*
X005477Y021181D02*
X005340Y021181D01*
X005340Y021279D02*
X005477Y021279D01*
X005477Y021378D02*
X005340Y021378D01*
X005340Y021476D02*
X005504Y021476D01*
X005477Y021575D02*
X005340Y021575D01*
X005340Y021673D02*
X005477Y021673D01*
X005477Y021772D02*
X005340Y021772D01*
X005340Y021870D02*
X005477Y021870D01*
X005460Y021969D02*
X005340Y021969D01*
X005340Y022067D02*
X005437Y022067D01*
X005437Y022166D02*
X005340Y022166D01*
X005340Y022264D02*
X005437Y022264D01*
X005437Y022254D02*
X005437Y022409D01*
X005447Y022447D01*
X005467Y022481D01*
X005495Y022509D01*
X005529Y022529D01*
X005567Y022539D01*
X005832Y022539D01*
X005832Y022254D01*
X005437Y022254D01*
X005437Y022363D02*
X005340Y022363D01*
X005340Y022461D02*
X005455Y022461D01*
X005340Y022560D02*
X006227Y022560D01*
X006278Y022461D02*
X007135Y022461D01*
X007135Y022560D02*
X006653Y022560D01*
X006813Y022658D02*
X007135Y022658D01*
X006168Y022658D02*
X005340Y022658D01*
X005340Y022757D02*
X006152Y022757D01*
X006170Y022855D02*
X005340Y022855D01*
X005832Y022461D02*
X005902Y022461D01*
X005902Y022363D02*
X005832Y022363D01*
X005832Y022264D02*
X005902Y022264D01*
X006881Y020984D02*
X006919Y020984D01*
X006919Y020885D02*
X006881Y020885D01*
X006881Y020787D02*
X006919Y020787D01*
X006290Y020491D02*
X006244Y020491D01*
X006257Y020393D02*
X006290Y020393D01*
X006290Y020294D02*
X006257Y020294D01*
X006257Y020196D02*
X006290Y020196D01*
X006257Y020097D02*
X006328Y020097D01*
X006630Y019802D02*
X007039Y019802D01*
X007020Y014554D02*
X007020Y013914D01*
X011090Y013914D01*
X011090Y014916D01*
X011394Y011528D02*
X006309Y011528D01*
X006309Y011429D02*
X011295Y011429D01*
X011230Y011331D02*
X006309Y011331D01*
X006309Y011232D02*
X011230Y011232D01*
X011230Y011134D02*
X006309Y011134D01*
X006309Y011035D02*
X011230Y011035D01*
X011318Y010937D02*
X006309Y010937D01*
X006309Y010838D02*
X011416Y010838D01*
X011864Y010838D02*
X012196Y010838D01*
X012098Y010937D02*
X011962Y010937D01*
X011985Y011429D02*
X012075Y011429D01*
X012174Y011528D02*
X011886Y011528D01*
X012644Y010838D02*
X013140Y010838D01*
X013140Y010740D02*
X006309Y010740D01*
X005589Y012907D02*
X005460Y012907D01*
X005410Y013005D02*
X005589Y013005D01*
X005589Y013104D02*
X003843Y013104D01*
X003843Y013202D02*
X005589Y013202D01*
X004778Y013005D02*
X004718Y013005D01*
X004396Y013005D02*
X004296Y013005D01*
X004296Y013059D02*
X004070Y013059D01*
X004032Y013049D01*
X003998Y013030D01*
X003970Y013002D01*
X003950Y012967D01*
X003940Y012929D01*
X003940Y012664D01*
X004296Y012664D01*
X004296Y013059D01*
X004296Y012907D02*
X004396Y012907D01*
X004396Y012808D02*
X004296Y012808D01*
X004296Y012710D02*
X004396Y012710D01*
X003940Y012710D02*
X003843Y012710D01*
X003843Y012808D02*
X003940Y012808D01*
X003940Y012907D02*
X003843Y012907D01*
X003843Y013005D02*
X003974Y013005D01*
X003683Y013554D02*
X003683Y011658D01*
X003635Y011232D02*
X003731Y011232D01*
X003731Y011134D02*
X003635Y011134D01*
X003635Y011035D02*
X003731Y011035D01*
X004042Y011232D02*
X004163Y011232D01*
X004163Y011134D02*
X004107Y011134D01*
X004109Y011035D02*
X004170Y011035D01*
X004090Y010641D02*
X013140Y010641D01*
X013140Y010937D02*
X012742Y010937D01*
X012830Y011035D02*
X013140Y011035D01*
X013140Y011134D02*
X012830Y011134D01*
X012830Y011232D02*
X013140Y011232D01*
X013140Y011331D02*
X012830Y011331D01*
X012765Y011429D02*
X013140Y011429D01*
X013133Y011528D02*
X013140Y011528D01*
X008866Y012513D02*
X008850Y012513D01*
X008850Y012611D02*
X008866Y012611D01*
X008866Y012710D02*
X008850Y012710D01*
X008850Y012808D02*
X008866Y012808D01*
X008866Y012907D02*
X008850Y012907D01*
X012290Y018915D02*
X012646Y018915D01*
X012684Y018915D02*
X013040Y018915D01*
X013040Y019014D02*
X013077Y019014D01*
X013077Y019112D02*
X013040Y019112D01*
X013040Y019211D02*
X013077Y019211D01*
X013077Y019309D02*
X013040Y019309D01*
X013040Y019408D02*
X013077Y019408D01*
X012684Y019408D02*
X012646Y019408D01*
X012646Y019309D02*
X012684Y019309D01*
X012684Y019211D02*
X012646Y019211D01*
X012646Y019112D02*
X012684Y019112D01*
X012684Y019014D02*
X012646Y019014D01*
X012290Y019014D02*
X012252Y019014D01*
X012252Y019112D02*
X012290Y019112D01*
X012290Y019211D02*
X012252Y019211D01*
X012252Y019309D02*
X012290Y019309D01*
X012290Y019408D02*
X012252Y019408D01*
D33*
X012065Y020375D02*
X011252Y020375D01*
X011132Y020237D01*
X009440Y020237D01*
X009440Y020134D01*
X008800Y020134D01*
X008800Y020014D01*
X008100Y020014D01*
X008100Y019874D01*
X007580Y019874D01*
X007590Y019634D01*
X007140Y019634D01*
X006900Y020214D02*
X006900Y020238D01*
X006900Y020214D02*
X006480Y020214D01*
X006480Y020719D01*
X005867Y020719D01*
X005887Y021214D02*
X005867Y021219D01*
X005887Y021214D02*
X006440Y021214D01*
X005817Y020219D02*
X005830Y019979D01*
X005830Y019619D01*
X005520Y019619D01*
X005520Y018854D01*
X005080Y018854D01*
X005080Y018634D01*
X007442Y021719D02*
X007442Y021852D01*
X006640Y022754D02*
X006440Y022754D01*
X006640Y022754D02*
X006640Y022874D01*
X009860Y022874D01*
X009860Y021960D01*
X009884Y021960D01*
X010396Y021960D02*
X010780Y021960D01*
X010780Y021194D01*
X010739Y021194D01*
X010780Y021960D02*
X010839Y021960D01*
X010839Y022681D01*
X011739Y022681D01*
X009040Y016034D02*
X008728Y016034D01*
X008728Y014916D01*
X009121Y014916D02*
X009121Y015654D01*
X009480Y015654D01*
X003701Y013967D02*
X003701Y013917D01*
X003701Y013967D02*
X003080Y013967D01*
X002566Y014742D02*
X002566Y012967D01*
X003080Y012967D01*
X002080Y012936D02*
X002080Y012967D01*
X002080Y012936D02*
X001189Y012936D01*
X001358Y017282D02*
X001684Y017282D01*
X001358Y017282D02*
X001358Y018384D01*
X001870Y018384D02*
X001870Y018034D01*
X002380Y018034D01*
X002380Y019754D02*
X002380Y019979D01*
X002335Y020219D01*
X002335Y021719D02*
X002335Y021752D01*
X001193Y021752D01*
X001193Y021240D02*
X001193Y020960D01*
X001080Y020960D01*
X001080Y020294D01*
X001260Y020294D01*
X001300Y019892D01*
X004961Y003660D02*
X004961Y002820D01*
X006024Y002820D01*
X006024Y002409D01*
X006280Y002409D02*
X006280Y003100D01*
X005748Y003100D01*
X005748Y003660D01*
X006536Y003660D02*
X006536Y002409D01*
X006792Y002409D02*
X006792Y003060D01*
X007323Y003060D01*
X007323Y003660D01*
X007048Y002780D02*
X008111Y002780D01*
X008111Y003660D01*
X007048Y002780D02*
X007048Y002409D01*
D34*
X010303Y014916D02*
X010303Y015534D01*
X009920Y015534D01*
X009920Y016014D01*
X009440Y016014D01*
X009440Y016394D01*
X010180Y016374D02*
X010220Y016374D01*
X010220Y015834D01*
X010696Y015834D01*
X010696Y014916D01*
X010960Y015514D02*
X011090Y015514D01*
X011090Y014916D01*
X011380Y015294D02*
X011380Y015434D01*
X011300Y015434D01*
X011300Y015654D01*
X011260Y015654D01*
X011260Y015714D01*
X011220Y015714D01*
X011220Y016374D01*
X010960Y016194D02*
X010960Y015514D01*
X011380Y015294D02*
X011484Y015294D01*
X011484Y014916D01*
X010960Y016194D02*
X010660Y016194D01*
M02*
