G75*
%MOIN*%
%OFA0B0*%
%FSLAX24Y24*%
%IPPOS*%
%LPD*%
%AMOC8*
5,1,8,0,0,1.08239X$1,22.5*
%
%ADD10C,0.0010*%
%ADD11C,0.0160*%
%ADD12C,0.0060*%
%ADD13C,0.0070*%
%ADD14C,0.0030*%
%ADD15C,0.0040*%
%ADD16R,0.0571X0.0295*%
%ADD17C,0.0080*%
%ADD18C,0.0100*%
%ADD19C,0.0050*%
%ADD20R,0.0230X0.0180*%
%ADD21R,0.0180X0.0230*%
%ADD22R,0.0100X0.0450*%
%ADD23R,0.0100X0.0200*%
%ADD24C,0.0020*%
%ADD25R,0.0118X0.0236*%
%ADD26R,0.0236X0.0118*%
%ADD27R,0.0295X0.0571*%
%ADD28R,0.0200X0.0200*%
D10*
X001805Y011739D02*
X001805Y011889D01*
X001880Y011889D01*
X001905Y011864D01*
X001905Y011814D01*
X001880Y011789D01*
X001805Y011789D01*
X001855Y011789D02*
X001905Y011739D01*
X001952Y011764D02*
X001977Y011739D01*
X002027Y011739D01*
X002052Y011764D01*
X002052Y011789D01*
X002027Y011814D01*
X001977Y011814D01*
X001952Y011839D01*
X001952Y011864D01*
X001977Y011889D01*
X002027Y011889D01*
X002052Y011864D01*
X002100Y011889D02*
X002200Y011889D01*
X002150Y011889D02*
X002150Y011739D01*
X002247Y011739D02*
X002347Y011889D01*
X002394Y011864D02*
X002394Y011839D01*
X002419Y011814D01*
X002469Y011814D01*
X002494Y011789D01*
X002494Y011764D01*
X002469Y011739D01*
X002419Y011739D01*
X002394Y011764D01*
X002394Y011864D02*
X002419Y011889D01*
X002469Y011889D01*
X002494Y011864D01*
X002542Y011889D02*
X002617Y011889D01*
X002642Y011864D01*
X002642Y011839D01*
X002617Y011814D01*
X002542Y011814D01*
X002617Y011814D02*
X002642Y011789D01*
X002642Y011764D01*
X002617Y011739D01*
X002542Y011739D01*
X002542Y011889D01*
X002689Y011889D02*
X002689Y011739D01*
X002739Y011789D01*
X002789Y011739D01*
X002789Y011889D01*
X002836Y011889D02*
X002936Y011889D01*
X002984Y011889D02*
X003059Y011889D01*
X003084Y011864D01*
X003084Y011764D01*
X003059Y011739D01*
X002984Y011739D01*
X002984Y011889D01*
X002886Y011889D02*
X002886Y011739D01*
X002896Y012199D02*
X002946Y012249D01*
X002996Y012199D01*
X002996Y012349D01*
X003043Y012349D02*
X003143Y012349D01*
X003093Y012349D02*
X003093Y012199D01*
X003190Y012224D02*
X003215Y012199D01*
X003265Y012199D01*
X003290Y012224D01*
X003338Y012199D02*
X003338Y012349D01*
X003290Y012324D02*
X003265Y012349D01*
X003215Y012349D01*
X003190Y012324D01*
X003190Y012224D01*
X003338Y012249D02*
X003438Y012349D01*
X003363Y012274D02*
X003438Y012199D01*
X003304Y011889D02*
X003329Y011864D01*
X003329Y011764D01*
X003304Y011739D01*
X003254Y011739D01*
X003229Y011764D01*
X003229Y011864D01*
X003254Y011889D01*
X003304Y011889D01*
X003181Y011889D02*
X003131Y011889D01*
X003156Y011889D02*
X003156Y011739D01*
X003131Y011739D02*
X003181Y011739D01*
X002896Y012199D02*
X002896Y012349D01*
X002848Y012324D02*
X002848Y012299D01*
X002823Y012274D01*
X002748Y012274D01*
X002701Y012249D02*
X002701Y012224D01*
X002676Y012199D01*
X002626Y012199D01*
X002601Y012224D01*
X002626Y012274D02*
X002601Y012299D01*
X002601Y012324D01*
X002626Y012349D01*
X002676Y012349D01*
X002701Y012324D01*
X002748Y012349D02*
X002823Y012349D01*
X002848Y012324D01*
X002823Y012274D02*
X002848Y012249D01*
X002848Y012224D01*
X002823Y012199D01*
X002748Y012199D01*
X002748Y012349D01*
X002676Y012274D02*
X002701Y012249D01*
X002676Y012274D02*
X002626Y012274D01*
X002554Y012349D02*
X002454Y012199D01*
X002356Y012199D02*
X002356Y012349D01*
X002306Y012349D02*
X002406Y012349D01*
X002259Y012324D02*
X002234Y012349D01*
X002184Y012349D01*
X002159Y012324D01*
X002159Y012299D01*
X002184Y012274D01*
X002234Y012274D01*
X002259Y012249D01*
X002259Y012224D01*
X002234Y012199D01*
X002184Y012199D01*
X002159Y012224D01*
X002112Y012199D02*
X002012Y012199D01*
X002012Y012349D01*
X002112Y012349D01*
X002062Y012274D02*
X002012Y012274D01*
X001965Y012349D02*
X001864Y012349D01*
X001914Y012349D02*
X001914Y012199D01*
X006289Y015819D02*
X006289Y015969D01*
X006364Y015969D01*
X006389Y015944D01*
X006389Y015894D01*
X006364Y015869D01*
X006289Y015869D01*
X006437Y015819D02*
X006537Y015919D01*
X006537Y015944D01*
X006512Y015969D01*
X006462Y015969D01*
X006437Y015944D01*
X006437Y015819D02*
X006537Y015819D01*
X006584Y015819D02*
X006609Y015819D01*
X006609Y015844D01*
X006584Y015844D01*
X006584Y015819D01*
X006658Y015819D02*
X006658Y015844D01*
X006758Y015944D01*
X006758Y015969D01*
X006658Y015969D01*
X006674Y019199D02*
X006674Y019349D01*
X006749Y019349D01*
X006774Y019324D01*
X006774Y019274D01*
X006749Y019249D01*
X006674Y019249D01*
X006822Y019224D02*
X006847Y019199D01*
X006897Y019199D01*
X006922Y019224D01*
X006922Y019274D01*
X006897Y019299D01*
X006847Y019299D01*
X006822Y019274D01*
X006822Y019224D01*
X006969Y019224D02*
X006994Y019199D01*
X007019Y019224D01*
X007044Y019199D01*
X007069Y019224D01*
X007069Y019299D01*
X007116Y019274D02*
X007141Y019299D01*
X007191Y019299D01*
X007216Y019274D01*
X007216Y019249D01*
X007116Y019249D01*
X007116Y019224D02*
X007116Y019274D01*
X007116Y019224D02*
X007141Y019199D01*
X007191Y019199D01*
X007264Y019199D02*
X007264Y019299D01*
X007314Y019299D02*
X007339Y019299D01*
X007314Y019299D02*
X007264Y019249D01*
X007534Y019224D02*
X007559Y019199D01*
X007584Y019199D01*
X007609Y019224D01*
X007609Y019349D01*
X007584Y019349D02*
X007634Y019349D01*
X007681Y019324D02*
X007681Y019224D01*
X007706Y019199D01*
X007756Y019199D01*
X007781Y019224D01*
X007781Y019324D02*
X007756Y019349D01*
X007706Y019349D01*
X007681Y019324D01*
X007828Y019349D02*
X007928Y019349D01*
X007878Y019349D02*
X007878Y019199D01*
X006969Y019224D02*
X006969Y019299D01*
X006480Y019274D02*
X006455Y019249D01*
X006380Y019249D01*
X006332Y019249D02*
X006332Y019224D01*
X006307Y019199D01*
X006257Y019199D01*
X006232Y019224D01*
X006185Y019199D02*
X006185Y019349D01*
X006135Y019299D01*
X006085Y019349D01*
X006085Y019199D01*
X006232Y019299D02*
X006257Y019274D01*
X006307Y019274D01*
X006332Y019249D01*
X006380Y019199D02*
X006380Y019349D01*
X006455Y019349D01*
X006480Y019324D01*
X006480Y019274D01*
X006332Y019324D02*
X006307Y019349D01*
X006257Y019349D01*
X006232Y019324D01*
X006232Y019299D01*
X011545Y012432D02*
X011545Y012332D01*
X011545Y012285D02*
X011545Y012185D01*
X011695Y012185D01*
X011695Y012285D01*
X011765Y012285D02*
X011765Y012185D01*
X011765Y012235D02*
X011915Y012235D01*
X011903Y012209D02*
X011978Y012209D01*
X012003Y012184D01*
X012003Y012134D01*
X011978Y012109D01*
X011903Y012109D01*
X011915Y012112D02*
X011890Y012137D01*
X011790Y012137D01*
X011765Y012112D01*
X011765Y012062D01*
X011790Y012037D01*
X011890Y012037D01*
X011915Y012062D01*
X011915Y012112D01*
X011953Y012109D02*
X012003Y012059D01*
X012100Y012059D02*
X012100Y012209D01*
X012050Y012209D02*
X012150Y012209D01*
X012198Y012184D02*
X012198Y012159D01*
X012223Y012134D01*
X012273Y012134D01*
X012298Y012109D01*
X012298Y012084D01*
X012273Y012059D01*
X012223Y012059D01*
X012198Y012084D01*
X012198Y012184D02*
X012223Y012209D01*
X012273Y012209D01*
X012298Y012184D01*
X011903Y012209D02*
X011903Y012059D01*
X011890Y011990D02*
X011790Y011990D01*
X011765Y011965D01*
X011765Y011915D01*
X011790Y011890D01*
X011890Y011890D01*
X011915Y011915D01*
X011915Y011965D01*
X011890Y011990D01*
X011890Y011843D02*
X011865Y011843D01*
X011840Y011818D01*
X011840Y011743D01*
X011840Y011818D02*
X011815Y011843D01*
X011790Y011843D01*
X011765Y011818D01*
X011765Y011743D01*
X011915Y011743D01*
X011915Y011818D01*
X011890Y011843D01*
X011695Y011843D02*
X011645Y011793D01*
X011645Y011818D02*
X011645Y011743D01*
X011695Y011743D02*
X011545Y011743D01*
X011545Y011818D01*
X011570Y011843D01*
X011620Y011843D01*
X011645Y011818D01*
X011620Y011890D02*
X011620Y011940D01*
X011695Y011890D02*
X011695Y011990D01*
X011670Y012037D02*
X011695Y012062D01*
X011695Y012112D01*
X011670Y012137D01*
X011645Y012137D01*
X011620Y012112D01*
X011620Y012062D01*
X011595Y012037D01*
X011570Y012037D01*
X011545Y012062D01*
X011545Y012112D01*
X011570Y012137D01*
X011620Y012185D02*
X011620Y012235D01*
X011695Y012382D02*
X011545Y012382D01*
X011545Y011990D02*
X011545Y011890D01*
X011695Y011890D01*
X011790Y012332D02*
X011765Y012357D01*
X011765Y012407D01*
X011790Y012432D01*
X011890Y012332D01*
X011915Y012357D01*
X011915Y012407D01*
X011890Y012432D01*
X011790Y012432D01*
X011790Y012332D02*
X011890Y012332D01*
X011930Y012759D02*
X011980Y012759D01*
X012005Y012784D01*
X011930Y012759D02*
X011905Y012784D01*
X011905Y012884D01*
X011930Y012909D01*
X011980Y012909D01*
X012005Y012884D01*
X012052Y012909D02*
X012152Y012909D01*
X012102Y012909D02*
X012102Y012759D01*
X012200Y012784D02*
X012225Y012759D01*
X012275Y012759D01*
X012300Y012784D01*
X012300Y012809D01*
X012275Y012834D01*
X012225Y012834D01*
X012200Y012859D01*
X012200Y012884D01*
X012225Y012909D01*
X012275Y012909D01*
X012300Y012884D01*
X012272Y013539D02*
X012172Y013689D01*
X012125Y013664D02*
X012125Y013614D01*
X012100Y013589D01*
X012025Y013589D01*
X012025Y013539D02*
X012025Y013689D01*
X012100Y013689D01*
X012125Y013664D01*
X012075Y013589D02*
X012125Y013539D01*
X012172Y013539D02*
X012272Y013689D01*
X012292Y014259D02*
X012192Y014409D01*
X012145Y014409D02*
X012045Y014409D01*
X012095Y014409D02*
X012095Y014259D01*
X012192Y014259D02*
X012292Y014409D01*
D11*
X000470Y023444D02*
X000470Y000594D01*
X013670Y000594D01*
X013670Y023444D01*
X000470Y023444D01*
D12*
X001105Y021593D02*
X001105Y021400D01*
X001281Y021400D02*
X001281Y021593D01*
X001518Y018472D02*
X001710Y018472D01*
X001710Y018296D02*
X001518Y018296D01*
X001284Y017732D02*
X002084Y017732D01*
X002101Y017730D01*
X002118Y017726D01*
X002134Y017719D01*
X002148Y017709D01*
X002161Y017696D01*
X002171Y017682D01*
X002178Y017666D01*
X002182Y017649D01*
X002184Y017632D01*
X002184Y015932D01*
X002182Y015915D01*
X002178Y015898D01*
X002171Y015882D01*
X002161Y015868D01*
X002148Y015855D01*
X002134Y015845D01*
X002118Y015838D01*
X002101Y015834D01*
X002084Y015832D01*
X001284Y015832D01*
X001267Y015834D01*
X001250Y015838D01*
X001234Y015845D01*
X001220Y015855D01*
X001207Y015868D01*
X001197Y015882D01*
X001190Y015898D01*
X001186Y015915D01*
X001184Y015932D01*
X001184Y017632D01*
X001186Y017649D01*
X001190Y017666D01*
X001197Y017682D01*
X001207Y017696D01*
X001220Y017709D01*
X001234Y017719D01*
X001250Y017726D01*
X001267Y017730D01*
X001284Y017732D01*
X001684Y017282D02*
X001684Y016932D01*
X001684Y016882D01*
X001684Y016682D02*
X001684Y016632D01*
X001684Y016282D01*
X002726Y014830D02*
X002918Y014830D01*
X002918Y014654D02*
X002726Y014654D01*
X003080Y014467D02*
X003080Y014317D01*
X003080Y013617D01*
X003080Y013317D01*
X003080Y012617D01*
X003080Y012467D01*
X002080Y012467D01*
X002080Y012617D01*
X002080Y013317D01*
X002080Y013617D01*
X002080Y014317D01*
X002080Y014467D01*
X003080Y014467D01*
X003613Y014270D02*
X003613Y014077D01*
X003789Y014077D02*
X003789Y014270D01*
X004238Y015877D02*
X005878Y015877D01*
X005878Y017517D01*
X004238Y017517D01*
X004238Y015877D01*
X005970Y018134D02*
X005720Y018384D01*
X005720Y018884D01*
X005970Y019134D01*
X006470Y019134D01*
X006720Y018884D01*
X006720Y018384D01*
X006470Y018134D01*
X005970Y018134D01*
X006451Y017495D02*
X006451Y017302D01*
X006627Y017302D02*
X006627Y017495D01*
X006870Y017034D02*
X006370Y017034D01*
X006120Y016784D01*
X006120Y016284D01*
X006370Y016034D01*
X006870Y016034D01*
X007120Y016284D01*
X007120Y016784D01*
X006870Y017034D01*
X007197Y017277D02*
X007197Y017470D01*
X007373Y017470D02*
X007373Y017277D01*
X007470Y018134D02*
X006970Y018134D01*
X006720Y018384D01*
X006720Y018884D01*
X006970Y019134D01*
X007470Y019134D01*
X007720Y018884D01*
X007720Y018384D01*
X007470Y018134D01*
X006182Y019531D02*
X005990Y019531D01*
X005990Y019707D02*
X006182Y019707D01*
X006812Y020398D02*
X006812Y020591D01*
X006988Y020591D02*
X006988Y020398D01*
X007697Y021636D02*
X008249Y021636D01*
X008249Y022817D01*
X007697Y022817D01*
X007697Y021636D01*
X008357Y021557D02*
X008359Y021575D01*
X008365Y021593D01*
X008374Y021609D01*
X008386Y021622D01*
X008401Y021633D01*
X008418Y021641D01*
X008436Y021645D01*
X008454Y021645D01*
X008472Y021641D01*
X008489Y021633D01*
X008504Y021622D01*
X008516Y021609D01*
X008525Y021593D01*
X008531Y021575D01*
X008533Y021557D01*
X008531Y021539D01*
X008525Y021521D01*
X008516Y021505D01*
X008504Y021492D01*
X008489Y021481D01*
X008472Y021473D01*
X008454Y021469D01*
X008436Y021469D01*
X008418Y021473D01*
X008401Y021481D01*
X008386Y021492D01*
X008374Y021505D01*
X008365Y021521D01*
X008359Y021539D01*
X008357Y021557D01*
X009289Y021594D02*
X009289Y020794D01*
X009291Y020777D01*
X009295Y020760D01*
X009302Y020744D01*
X009312Y020730D01*
X009325Y020717D01*
X009339Y020707D01*
X009355Y020700D01*
X009372Y020696D01*
X009389Y020694D01*
X011089Y020694D01*
X011106Y020696D01*
X011123Y020700D01*
X011139Y020707D01*
X011153Y020717D01*
X011166Y020730D01*
X011176Y020744D01*
X011183Y020760D01*
X011187Y020777D01*
X011189Y020794D01*
X011189Y021594D01*
X011187Y021611D01*
X011183Y021628D01*
X011176Y021644D01*
X011166Y021658D01*
X011153Y021671D01*
X011139Y021681D01*
X011123Y021688D01*
X011106Y021692D01*
X011089Y021694D01*
X009389Y021694D01*
X009372Y021692D01*
X009355Y021688D01*
X009339Y021681D01*
X009325Y021671D01*
X009312Y021658D01*
X009302Y021644D01*
X009295Y021628D01*
X009291Y021611D01*
X009289Y021594D01*
X009739Y021194D02*
X010089Y021194D01*
X010139Y021194D01*
X010339Y021194D02*
X010389Y021194D01*
X010739Y021194D01*
X010236Y021872D02*
X010044Y021872D01*
X010044Y022048D02*
X010236Y022048D01*
X011505Y021068D02*
X011505Y020548D01*
X012625Y020548D01*
X012625Y021068D01*
X011505Y021068D01*
X011912Y021747D02*
X011912Y022867D01*
X012432Y022867D01*
X012432Y021747D01*
X011912Y021747D01*
X012926Y021116D02*
X012926Y020923D01*
X013102Y020923D02*
X013102Y021116D01*
X011220Y020078D02*
X011220Y019885D01*
X011044Y019885D02*
X011044Y020078D01*
X012630Y014614D02*
X012380Y014364D01*
X012380Y013864D01*
X012630Y013614D01*
X013130Y013614D01*
X013380Y013864D01*
X013380Y014364D01*
X013130Y014614D01*
X012630Y014614D01*
X012630Y013834D02*
X012380Y013584D01*
X012380Y013084D01*
X012630Y012834D01*
X013130Y012834D01*
X013380Y013084D01*
X013380Y013584D01*
X013130Y013834D01*
X012630Y013834D01*
X012630Y013094D02*
X012380Y012844D01*
X012380Y012344D01*
X012630Y012094D01*
X013130Y012094D01*
X013380Y012344D01*
X013380Y012844D01*
X013130Y013094D01*
X012630Y013094D01*
X012630Y012354D02*
X012380Y012104D01*
X012380Y011604D01*
X012630Y011354D01*
X013130Y011354D01*
X013380Y011604D01*
X013380Y012104D01*
X013130Y012354D01*
X012630Y012354D01*
X012670Y011694D02*
X012920Y011444D01*
X012920Y010944D01*
X012670Y010694D01*
X012170Y010694D01*
X011920Y010944D01*
X011920Y011444D01*
X012170Y011694D01*
X012670Y011694D01*
X012140Y011444D02*
X012140Y010944D01*
X011890Y010694D01*
X011390Y010694D01*
X011140Y010944D01*
X011140Y011444D01*
X011390Y011694D01*
X011890Y011694D01*
X012140Y011444D01*
X010209Y007946D02*
X010102Y007839D01*
X010102Y007306D01*
X009995Y007626D02*
X010209Y007626D01*
X009778Y007626D02*
X009778Y007412D01*
X009671Y007306D01*
X009457Y007306D01*
X009351Y007412D01*
X009351Y007626D01*
X009457Y007733D01*
X009671Y007733D01*
X009778Y007626D01*
X009565Y007003D02*
X009565Y006896D01*
X009565Y006683D02*
X009565Y006256D01*
X009458Y006256D02*
X009672Y006256D01*
X009565Y006683D02*
X009458Y006683D01*
X009241Y006683D02*
X009135Y006683D01*
X008921Y006469D01*
X008921Y006256D02*
X008921Y006683D01*
X008703Y006576D02*
X008703Y006469D01*
X008276Y006469D01*
X008276Y006362D02*
X008276Y006576D01*
X008383Y006683D01*
X008597Y006683D01*
X008703Y006576D01*
X008597Y006256D02*
X008383Y006256D01*
X008276Y006362D01*
X008059Y006469D02*
X007632Y006469D01*
X007632Y006362D02*
X007632Y006576D01*
X007739Y006683D01*
X007952Y006683D01*
X008059Y006576D01*
X008059Y006469D01*
X007952Y006256D02*
X007739Y006256D01*
X007632Y006362D01*
X007414Y006256D02*
X007414Y006576D01*
X007308Y006683D01*
X006987Y006683D01*
X006987Y006256D01*
X006771Y006256D02*
X006558Y006256D01*
X006664Y006256D02*
X006664Y006683D01*
X006558Y006683D01*
X006664Y006896D02*
X006664Y007003D01*
X006556Y007306D02*
X006343Y007306D01*
X006450Y007306D02*
X006450Y007946D01*
X006343Y007946D01*
X006020Y007946D02*
X006020Y007306D01*
X005913Y007306D02*
X006127Y007306D01*
X005696Y007412D02*
X005696Y007626D01*
X005589Y007733D01*
X005375Y007733D01*
X005269Y007626D01*
X005269Y007412D01*
X005375Y007306D01*
X005589Y007306D01*
X005696Y007412D01*
X005913Y007946D02*
X006020Y007946D01*
X006773Y007626D02*
X006773Y007412D01*
X006879Y007306D01*
X007093Y007306D01*
X007200Y007519D02*
X006773Y007519D01*
X006773Y007626D02*
X006879Y007733D01*
X007093Y007733D01*
X007200Y007626D01*
X007200Y007519D01*
X007417Y007412D02*
X007524Y007306D01*
X007844Y007306D01*
X007844Y007199D02*
X007844Y007733D01*
X007524Y007733D01*
X007417Y007626D01*
X007417Y007412D01*
X007631Y007092D02*
X007737Y007092D01*
X007844Y007199D01*
X008062Y007412D02*
X008062Y007626D01*
X008168Y007733D01*
X008382Y007733D01*
X008489Y007626D01*
X008489Y007519D01*
X008062Y007519D01*
X008062Y007412D02*
X008168Y007306D01*
X008382Y007306D01*
X009888Y006683D02*
X009888Y006256D01*
X009888Y006683D02*
X010208Y006683D01*
X010315Y006576D01*
X010315Y006256D01*
X010532Y006362D02*
X010532Y006576D01*
X010639Y006683D01*
X010959Y006683D01*
X010959Y006149D01*
X010853Y006042D01*
X010746Y006042D01*
X010639Y006256D02*
X010959Y006256D01*
X010639Y006256D02*
X010532Y006362D01*
X008307Y004054D02*
X008504Y003857D01*
X008504Y003463D01*
X008307Y003266D01*
X007914Y003266D01*
X007717Y003463D01*
X007717Y003857D01*
X007520Y004054D01*
X007126Y004054D01*
X006930Y003857D01*
X006930Y003463D01*
X006733Y003266D01*
X006339Y003266D01*
X006142Y003463D01*
X006142Y003857D01*
X005945Y004054D01*
X005552Y004054D01*
X005355Y003857D01*
X005355Y003463D01*
X005158Y003266D01*
X004764Y003266D01*
X004567Y003463D01*
X004567Y003857D01*
X004764Y004054D01*
X005158Y004054D01*
X005355Y003857D01*
X005355Y003463D02*
X005552Y003266D01*
X005945Y003266D01*
X006142Y003463D01*
X006142Y003857D02*
X006339Y004054D01*
X006733Y004054D01*
X006930Y003857D01*
X006930Y003463D02*
X007126Y003266D01*
X007520Y003266D01*
X007717Y003463D01*
X007717Y003857D02*
X007914Y004054D01*
X008307Y004054D01*
X006233Y006042D02*
X006340Y006149D01*
X006340Y006683D01*
X006020Y006683D01*
X005913Y006576D01*
X005913Y006362D01*
X006020Y006256D01*
X006340Y006256D01*
X006233Y006042D02*
X006127Y006042D01*
X005696Y006256D02*
X005696Y006576D01*
X005589Y006683D01*
X005269Y006683D01*
X005269Y006256D01*
X005051Y006256D02*
X004624Y006256D01*
X004624Y006896D01*
X005051Y006896D01*
X004838Y006576D02*
X004624Y006576D01*
X004731Y007306D02*
X004624Y007412D01*
X004624Y007839D01*
X004731Y007946D01*
X004944Y007946D01*
X005051Y007839D01*
X005051Y007412D02*
X004944Y007306D01*
X004731Y007306D01*
X004376Y010724D02*
X003856Y010724D01*
X003856Y011844D01*
X004376Y011844D01*
X004376Y010724D01*
X002600Y010944D02*
X002350Y010694D01*
X001850Y010694D01*
X001600Y010944D01*
X001600Y011444D01*
X001850Y011694D01*
X002350Y011694D01*
X002600Y011444D01*
X002600Y010944D01*
X001760Y011804D02*
X001510Y011554D01*
X001010Y011554D01*
X000760Y011804D01*
X000760Y012304D01*
X001010Y012554D01*
X001510Y012554D01*
X001760Y012304D01*
X001760Y011804D01*
X001277Y013096D02*
X001277Y013289D01*
X001101Y013289D02*
X001101Y013096D01*
X002130Y012967D02*
X002132Y013007D01*
X002137Y013046D01*
X002146Y013085D01*
X002158Y013123D01*
X002173Y013160D01*
X002192Y013195D01*
X002214Y013228D01*
X002238Y013260D01*
X002130Y012967D02*
X002132Y012927D01*
X002137Y012888D01*
X002146Y012849D01*
X002158Y012811D01*
X002173Y012774D01*
X002192Y012739D01*
X002214Y012705D01*
X002238Y012674D01*
X002238Y013260D02*
X002265Y013288D01*
X002294Y013314D01*
X002325Y013338D01*
X002357Y013358D01*
X002392Y013376D01*
X002428Y013391D01*
X002465Y013402D01*
X002503Y013410D01*
X002541Y013415D01*
X002580Y013417D01*
X003030Y012967D02*
X003028Y012927D01*
X003023Y012888D01*
X003014Y012849D01*
X003002Y012811D01*
X002987Y012774D01*
X002968Y012739D01*
X002946Y012705D01*
X002922Y012674D01*
X002895Y012646D01*
X002866Y012620D01*
X002835Y012596D01*
X002803Y012576D01*
X002768Y012558D01*
X002732Y012543D01*
X002695Y012532D01*
X002657Y012524D01*
X002619Y012519D01*
X002580Y012517D01*
X002541Y012519D01*
X002503Y012524D01*
X002465Y012532D01*
X002428Y012543D01*
X002392Y012558D01*
X002357Y012576D01*
X002325Y012596D01*
X002294Y012620D01*
X002265Y012646D01*
X002238Y012674D01*
X002230Y012967D02*
X002232Y013004D01*
X002238Y013040D01*
X002247Y013075D01*
X002260Y013109D01*
X002277Y013142D01*
X002297Y013173D01*
X002320Y013201D01*
X002346Y013227D01*
X002374Y013250D01*
X002405Y013270D01*
X002438Y013287D01*
X002472Y013300D01*
X002507Y013309D01*
X002543Y013315D01*
X002580Y013317D01*
X002922Y013260D02*
X002946Y013228D01*
X002968Y013195D01*
X002987Y013160D01*
X003002Y013123D01*
X003014Y013085D01*
X003023Y013046D01*
X003028Y013007D01*
X003030Y012967D01*
X002922Y013260D02*
X002895Y013288D01*
X002866Y013314D01*
X002835Y013338D01*
X002803Y013358D01*
X002768Y013376D01*
X002732Y013391D01*
X002695Y013402D01*
X002657Y013410D01*
X002619Y013415D01*
X002580Y013417D01*
X002580Y013167D02*
X002554Y013165D01*
X002528Y013160D01*
X002503Y013152D01*
X002480Y013140D01*
X002458Y013126D01*
X002439Y013108D01*
X002421Y013089D01*
X002407Y013067D01*
X002395Y013044D01*
X002387Y013019D01*
X002382Y012993D01*
X002380Y012967D01*
X002580Y012767D02*
X002606Y012769D01*
X002632Y012774D01*
X002657Y012782D01*
X002680Y012794D01*
X002702Y012808D01*
X002721Y012826D01*
X002739Y012845D01*
X002753Y012867D01*
X002765Y012890D01*
X002773Y012915D01*
X002778Y012941D01*
X002780Y012967D01*
X002930Y012967D02*
X002928Y012930D01*
X002922Y012894D01*
X002913Y012859D01*
X002900Y012825D01*
X002883Y012792D01*
X002863Y012761D01*
X002840Y012733D01*
X002814Y012707D01*
X002786Y012684D01*
X002755Y012664D01*
X002722Y012647D01*
X002688Y012634D01*
X002653Y012625D01*
X002617Y012619D01*
X002580Y012617D01*
X002238Y013674D02*
X002214Y013706D01*
X002192Y013739D01*
X002173Y013774D01*
X002158Y013811D01*
X002146Y013849D01*
X002137Y013888D01*
X002132Y013927D01*
X002130Y013967D01*
X002238Y014260D02*
X002265Y014288D01*
X002294Y014314D01*
X002325Y014338D01*
X002357Y014358D01*
X002392Y014376D01*
X002428Y014391D01*
X002465Y014402D01*
X002503Y014410D01*
X002541Y014415D01*
X002580Y014417D01*
X002619Y014415D01*
X002657Y014410D01*
X002695Y014402D01*
X002732Y014391D01*
X002768Y014376D01*
X002803Y014358D01*
X002835Y014338D01*
X002866Y014314D01*
X002895Y014288D01*
X002922Y014260D01*
X002922Y013674D02*
X002895Y013646D01*
X002866Y013620D01*
X002835Y013596D01*
X002803Y013576D01*
X002768Y013558D01*
X002732Y013543D01*
X002695Y013532D01*
X002657Y013524D01*
X002619Y013519D01*
X002580Y013517D01*
X002130Y013967D02*
X002132Y014007D01*
X002137Y014046D01*
X002146Y014085D01*
X002158Y014123D01*
X002173Y014160D01*
X002192Y014195D01*
X002214Y014229D01*
X002238Y014260D01*
X002238Y013674D02*
X002265Y013646D01*
X002294Y013620D01*
X002325Y013596D01*
X002357Y013576D01*
X002392Y013558D01*
X002428Y013543D01*
X002465Y013532D01*
X002503Y013524D01*
X002541Y013519D01*
X002580Y013517D01*
X003030Y013967D02*
X003028Y014007D01*
X003023Y014046D01*
X003014Y014085D01*
X003002Y014123D01*
X002987Y014160D01*
X002968Y014195D01*
X002946Y014229D01*
X002922Y014260D01*
X002580Y014317D02*
X002543Y014315D01*
X002507Y014309D01*
X002472Y014300D01*
X002438Y014287D01*
X002405Y014270D01*
X002374Y014250D01*
X002346Y014227D01*
X002320Y014201D01*
X002297Y014173D01*
X002277Y014142D01*
X002260Y014109D01*
X002247Y014075D01*
X002238Y014040D01*
X002232Y014004D01*
X002230Y013967D01*
X002922Y013674D02*
X002946Y013706D01*
X002968Y013739D01*
X002987Y013774D01*
X003002Y013811D01*
X003014Y013849D01*
X003023Y013888D01*
X003028Y013927D01*
X003030Y013967D01*
X002580Y014167D02*
X002554Y014165D01*
X002528Y014160D01*
X002503Y014152D01*
X002480Y014140D01*
X002458Y014126D01*
X002439Y014108D01*
X002421Y014089D01*
X002407Y014067D01*
X002395Y014044D01*
X002387Y014019D01*
X002382Y013993D01*
X002380Y013967D01*
X002580Y013767D02*
X002606Y013769D01*
X002632Y013774D01*
X002657Y013782D01*
X002680Y013794D01*
X002702Y013808D01*
X002721Y013826D01*
X002739Y013845D01*
X002753Y013867D01*
X002765Y013890D01*
X002773Y013915D01*
X002778Y013941D01*
X002780Y013967D01*
X002930Y013967D02*
X002928Y013930D01*
X002922Y013894D01*
X002913Y013859D01*
X002900Y013825D01*
X002883Y013792D01*
X002863Y013761D01*
X002840Y013733D01*
X002814Y013707D01*
X002786Y013684D01*
X002755Y013664D01*
X002722Y013647D01*
X002688Y013634D01*
X002653Y013625D01*
X002617Y013619D01*
X002580Y013617D01*
X008762Y012796D02*
X008954Y012796D01*
X008954Y012620D02*
X008762Y012620D01*
D13*
X007761Y014957D02*
X007345Y014957D01*
X007484Y015234D02*
X007345Y015373D01*
X007484Y015511D01*
X007899Y015511D01*
X007761Y015234D02*
X007484Y015234D01*
X007761Y015234D02*
X007899Y015096D01*
X007761Y014957D01*
X007070Y015096D02*
X007070Y015788D01*
X007070Y015096D02*
X006932Y014957D01*
X006655Y014957D01*
X006517Y015096D01*
X006517Y015788D01*
X006241Y015511D02*
X005964Y015511D01*
X006103Y015650D02*
X006103Y015096D01*
X006241Y014957D01*
X005689Y014957D02*
X005274Y014957D01*
X005135Y015096D01*
X005135Y015373D01*
X005274Y015511D01*
X005689Y015511D01*
X004860Y015373D02*
X004860Y015234D01*
X004307Y015234D01*
X004307Y015096D02*
X004307Y015373D01*
X004445Y015511D01*
X004722Y015511D01*
X004860Y015373D01*
X004722Y014957D02*
X004445Y014957D01*
X004307Y015096D01*
X004032Y014957D02*
X004032Y015373D01*
X003893Y015511D01*
X003478Y015511D01*
X003478Y014957D01*
X003203Y014957D02*
X003203Y015373D01*
X003065Y015511D01*
X002649Y015511D01*
X002649Y014957D01*
X002374Y015096D02*
X002374Y015373D01*
X002236Y015511D01*
X001959Y015511D01*
X001821Y015373D01*
X001821Y015096D01*
X001959Y014957D01*
X002236Y014957D01*
X002374Y015096D01*
X001546Y015096D02*
X001407Y014957D01*
X001130Y014957D01*
X000992Y015096D01*
X000992Y015650D01*
X001130Y015788D01*
X001407Y015788D01*
X001546Y015650D01*
D14*
X001577Y014776D02*
X001577Y014529D01*
X001453Y014406D01*
X001330Y014529D01*
X001330Y014776D01*
X001698Y014591D02*
X001760Y014652D01*
X001883Y014652D01*
X001945Y014591D01*
X001945Y014529D01*
X001698Y014529D01*
X001698Y014467D02*
X001698Y014591D01*
X001698Y014467D02*
X001760Y014406D01*
X001883Y014406D01*
X002067Y014406D02*
X002067Y014652D01*
X002067Y014529D02*
X002190Y014652D01*
X002252Y014652D01*
X002374Y014591D02*
X002435Y014652D01*
X002620Y014652D01*
X002742Y014652D02*
X002804Y014652D01*
X002804Y014406D01*
X002865Y014406D02*
X002742Y014406D01*
X002620Y014467D02*
X002559Y014529D01*
X002435Y014529D01*
X002374Y014591D01*
X002374Y014406D02*
X002559Y014406D01*
X002620Y014467D01*
X002804Y014776D02*
X002804Y014838D01*
X003049Y014652D02*
X002987Y014591D01*
X002987Y014467D01*
X003049Y014406D01*
X003173Y014406D01*
X003234Y014467D01*
X003234Y014591D01*
X003173Y014652D01*
X003049Y014652D01*
X003356Y014652D02*
X003356Y014406D01*
X003356Y014652D02*
X003541Y014652D01*
X003603Y014591D01*
X003603Y014406D01*
X004092Y014406D02*
X004339Y014652D01*
X004339Y014714D01*
X004278Y014776D01*
X004154Y014776D01*
X004092Y014714D01*
X004092Y014406D02*
X004339Y014406D01*
X004461Y014406D02*
X004522Y014406D01*
X004522Y014467D01*
X004461Y014467D01*
X004461Y014406D01*
X004623Y014495D02*
X004623Y014260D01*
X004858Y014260D01*
X004937Y014338D01*
X004937Y014495D01*
X004892Y014467D02*
X004892Y014714D01*
X004645Y014467D01*
X004707Y014406D01*
X004830Y014406D01*
X004892Y014467D01*
X004780Y014495D02*
X004780Y014260D01*
X004780Y014495D02*
X004701Y014573D01*
X004623Y014495D01*
X004645Y014467D02*
X004645Y014714D01*
X004707Y014776D01*
X004830Y014776D01*
X004892Y014714D01*
X004858Y014720D02*
X004623Y014720D01*
X004623Y015034D02*
X004937Y015034D01*
X004937Y014798D01*
X004858Y014720D01*
X004937Y015180D02*
X004545Y015180D01*
X004466Y015259D01*
X004466Y015337D01*
X004623Y015415D02*
X004623Y015180D01*
X004623Y015415D02*
X004701Y015494D01*
X004858Y015494D01*
X004937Y015415D01*
X004937Y015180D01*
X004937Y015722D02*
X004623Y015722D01*
X004623Y015644D02*
X004623Y015801D01*
X004701Y015948D02*
X004623Y016026D01*
X004623Y016261D01*
X004780Y016183D02*
X004780Y016026D01*
X004701Y015948D01*
X004780Y016183D02*
X004858Y016261D01*
X004937Y016183D01*
X004937Y015948D01*
X004937Y015801D02*
X004937Y015722D01*
X005093Y015722D02*
X005172Y015722D01*
X004858Y016408D02*
X004780Y016408D01*
X004780Y016722D01*
X004858Y016722D02*
X004701Y016722D01*
X004623Y016643D01*
X004623Y016486D01*
X004858Y016408D02*
X004937Y016486D01*
X004937Y016643D01*
X004858Y016722D01*
X004701Y016868D02*
X005015Y016868D01*
X005093Y016947D01*
X005093Y017182D01*
X004623Y017182D01*
X004623Y016947D01*
X004701Y016868D01*
X004701Y017334D02*
X004623Y017334D01*
X004623Y017412D01*
X004701Y017412D01*
X004701Y017334D01*
X004937Y014113D02*
X004937Y013956D01*
X005015Y014034D02*
X004701Y014034D01*
X004623Y013956D01*
X004701Y013806D02*
X004623Y013727D01*
X004623Y013571D01*
X004701Y013492D01*
X004858Y013492D01*
X004937Y013571D01*
X004937Y013727D01*
X004858Y013806D01*
X004701Y013806D01*
X004623Y013345D02*
X004937Y013345D01*
X004937Y013189D02*
X004937Y013110D01*
X004937Y013189D02*
X004780Y013345D01*
D15*
X004860Y012874D02*
X004570Y012874D01*
X004570Y012354D02*
X004870Y012354D01*
X005558Y017167D02*
X005579Y017169D01*
X005599Y017174D01*
X005618Y017183D01*
X005635Y017195D01*
X005650Y017210D01*
X005662Y017227D01*
X005671Y017246D01*
X005676Y017266D01*
X005678Y017287D01*
X005676Y017308D01*
X005671Y017328D01*
X005662Y017347D01*
X005650Y017364D01*
X005635Y017379D01*
X005618Y017391D01*
X005599Y017400D01*
X005579Y017405D01*
X005558Y017407D01*
X005537Y017405D01*
X005517Y017400D01*
X005498Y017391D01*
X005481Y017379D01*
X005466Y017364D01*
X005454Y017347D01*
X005445Y017328D01*
X005440Y017308D01*
X005438Y017287D01*
X005440Y017266D01*
X005445Y017246D01*
X005454Y017227D01*
X005466Y017210D01*
X005481Y017195D01*
X005498Y017183D01*
X005517Y017174D01*
X005537Y017169D01*
X005558Y017167D01*
X008040Y020622D02*
X008330Y020622D01*
X008330Y021142D02*
X008030Y021142D01*
X001560Y019668D02*
X001560Y019368D01*
X001040Y019368D02*
X001040Y019658D01*
D16*
X001300Y019801D03*
X001300Y019231D03*
D17*
X004178Y017577D02*
X004178Y017487D01*
X004178Y017577D02*
X004268Y017577D01*
X004178Y015907D02*
X004178Y015817D01*
X004268Y015817D01*
X005688Y017577D02*
X005938Y017577D01*
X005938Y017327D01*
X005938Y015907D02*
X005938Y015817D01*
X005848Y015817D01*
D18*
X001984Y016682D02*
X001684Y016682D01*
X001384Y016682D01*
X001384Y016882D02*
X001684Y016882D01*
X001984Y016882D01*
X010139Y020894D02*
X010139Y021194D01*
X010139Y021494D01*
X010339Y021494D02*
X010339Y021194D01*
X010339Y020894D01*
D19*
X011474Y020887D02*
X011474Y020493D01*
X011789Y020493D01*
X011947Y021084D02*
X012183Y021084D01*
X012093Y021717D02*
X012487Y021717D01*
X012487Y022032D01*
X012448Y022583D02*
X012448Y022898D01*
X012093Y022898D01*
X011896Y022425D02*
X011896Y022189D01*
X012656Y020887D02*
X012656Y020533D01*
X012341Y020533D01*
X013432Y019090D02*
X013432Y014759D01*
X007960Y014759D01*
X007960Y019090D01*
X013432Y019090D01*
X013349Y013161D02*
X013349Y010761D01*
X006349Y010761D01*
X006349Y013161D01*
X013349Y013161D01*
X005351Y019249D02*
X002851Y019249D01*
X002851Y023189D01*
X005351Y023189D01*
X005351Y019249D01*
X003670Y014193D02*
X003520Y014193D01*
X003445Y014118D01*
X003745Y014042D02*
X003445Y013742D01*
X003745Y013742D01*
X003745Y014042D02*
X003745Y014118D01*
X003670Y014193D01*
X003545Y013193D02*
X003545Y012742D01*
X003395Y012742D02*
X003695Y012742D01*
X003395Y013042D02*
X003545Y013193D01*
X004037Y011875D02*
X004392Y011875D01*
X004392Y011560D01*
X004431Y011009D02*
X004431Y010694D01*
X004037Y010694D01*
X003840Y011166D02*
X003840Y011402D01*
D20*
X003721Y011654D03*
X003721Y010914D03*
X004511Y011284D03*
X011777Y021937D03*
X011777Y022677D03*
X012567Y022307D03*
D21*
X012435Y021203D03*
X012065Y020413D03*
X011695Y021203D03*
D22*
X002030Y014092D03*
X002030Y013092D03*
D23*
X003130Y012967D03*
X003130Y013967D03*
D24*
X001870Y020104D02*
X001716Y020334D01*
X001639Y020296D02*
X001639Y020219D01*
X001601Y020181D01*
X001486Y020181D01*
X001563Y020181D02*
X001639Y020104D01*
X001716Y020104D02*
X001870Y020334D01*
X001639Y020296D02*
X001601Y020334D01*
X001486Y020334D01*
X001486Y020104D01*
X001543Y020604D02*
X001543Y020834D01*
X001466Y020834D02*
X001620Y020834D01*
X001696Y020796D02*
X001735Y020834D01*
X001811Y020834D01*
X001850Y020796D01*
X001811Y020719D02*
X001850Y020681D01*
X001850Y020643D01*
X001811Y020604D01*
X001735Y020604D01*
X001696Y020643D01*
X001735Y020719D02*
X001811Y020719D01*
X001735Y020719D02*
X001696Y020758D01*
X001696Y020796D01*
X001705Y021066D02*
X001552Y021066D01*
X001398Y021104D02*
X001398Y021334D01*
X001321Y021334D02*
X001475Y021334D01*
X001543Y021604D02*
X001543Y021834D01*
X001466Y021834D02*
X001620Y021834D01*
X001696Y021796D02*
X001696Y021758D01*
X001735Y021719D01*
X001811Y021719D01*
X001850Y021681D01*
X001850Y021643D01*
X001811Y021604D01*
X001735Y021604D01*
X001696Y021643D01*
X001696Y021796D02*
X001735Y021834D01*
X001811Y021834D01*
X001850Y021796D01*
X001840Y022104D02*
X001878Y022143D01*
X001878Y022296D01*
X001840Y022334D01*
X001763Y022334D01*
X001725Y022296D01*
X001725Y022143D01*
X001763Y022104D01*
X001840Y022104D01*
X001648Y022104D02*
X001571Y022104D01*
X001610Y022104D02*
X001610Y022334D01*
X001648Y022334D02*
X001571Y022334D01*
X001495Y022296D02*
X001495Y022219D01*
X001456Y022181D01*
X001341Y022181D01*
X001341Y022104D02*
X001341Y022334D01*
X001456Y022334D01*
X001495Y022296D01*
X001264Y022296D02*
X001226Y022334D01*
X001149Y022334D01*
X001111Y022296D01*
X001111Y022143D01*
X001149Y022104D01*
X001226Y022104D01*
X001264Y022143D01*
X001264Y022219D01*
X001188Y022219D01*
X001274Y021834D02*
X001236Y021796D01*
X001236Y021643D01*
X001274Y021604D01*
X001351Y021604D01*
X001389Y021643D01*
X001389Y021796D02*
X001351Y021834D01*
X001274Y021834D01*
X001206Y021334D02*
X001130Y021334D01*
X001091Y021296D01*
X001091Y021258D01*
X001130Y021219D01*
X001206Y021219D01*
X001245Y021181D01*
X001245Y021143D01*
X001206Y021104D01*
X001130Y021104D01*
X001091Y021143D01*
X001014Y021104D02*
X000938Y021181D01*
X000976Y021181D02*
X000861Y021181D01*
X000861Y021104D02*
X000861Y021334D01*
X000976Y021334D01*
X001014Y021296D01*
X001014Y021219D01*
X000976Y021181D01*
X001206Y021334D02*
X001245Y021296D01*
X001236Y020834D02*
X001351Y020834D01*
X001389Y020796D01*
X001389Y020719D01*
X001351Y020681D01*
X001236Y020681D01*
X001313Y020681D02*
X001389Y020604D01*
X001236Y020604D02*
X001236Y020834D01*
X001782Y021104D02*
X001897Y021104D01*
X001935Y021143D01*
X001935Y021181D01*
X001897Y021219D01*
X001782Y021219D01*
X001782Y021104D02*
X001782Y021334D01*
X001897Y021334D01*
X001935Y021296D01*
X001935Y021258D01*
X001897Y021219D01*
X006236Y021334D02*
X006389Y021334D01*
X006313Y021334D02*
X006313Y021104D01*
X006466Y021104D02*
X006620Y021334D01*
X006466Y021334D02*
X006620Y021104D01*
X006581Y020834D02*
X006466Y020834D01*
X006466Y020604D01*
X006389Y020604D02*
X006236Y020604D01*
X006313Y020604D02*
X006313Y020834D01*
X006236Y020758D01*
X006466Y020681D02*
X006581Y020681D01*
X006620Y020719D01*
X006620Y020796D01*
X006581Y020834D01*
X006696Y020834D02*
X006696Y020604D01*
X006696Y020681D02*
X006811Y020681D01*
X006850Y020719D01*
X006850Y020796D01*
X006811Y020834D01*
X006696Y020834D01*
X006927Y020796D02*
X006927Y020758D01*
X006965Y020719D01*
X007042Y020719D01*
X007080Y020681D01*
X007080Y020643D01*
X007042Y020604D01*
X006965Y020604D01*
X006927Y020643D01*
X006927Y020796D02*
X006965Y020834D01*
X007042Y020834D01*
X007080Y020796D01*
X007195Y020334D02*
X007157Y020296D01*
X007157Y020143D01*
X007195Y020104D01*
X007272Y020104D01*
X007310Y020143D01*
X007310Y020296D01*
X007272Y020334D01*
X007195Y020334D01*
X007387Y020334D02*
X007387Y020104D01*
X007540Y020104D02*
X007387Y020334D01*
X007540Y020334D02*
X007540Y020104D01*
X007080Y020066D02*
X006927Y020066D01*
X006850Y020143D02*
X006811Y020104D01*
X006735Y020104D01*
X006696Y020143D01*
X006696Y020296D01*
X006735Y020334D01*
X006811Y020334D01*
X006850Y020296D01*
X006620Y020296D02*
X006620Y020219D01*
X006581Y020181D01*
X006466Y020181D01*
X006466Y020104D02*
X006466Y020334D01*
X006581Y020334D01*
X006620Y020296D01*
X006543Y020181D02*
X006620Y020104D01*
X006389Y020334D02*
X006236Y020334D01*
X006236Y020104D01*
X006236Y020219D02*
X006313Y020219D01*
X006313Y021604D02*
X006389Y021681D01*
X006389Y021834D01*
X006466Y021796D02*
X006466Y021643D01*
X006505Y021604D01*
X006581Y021604D01*
X006620Y021643D01*
X006696Y021643D02*
X006696Y021796D01*
X006735Y021834D01*
X006811Y021834D01*
X006850Y021796D01*
X006850Y021643D02*
X006811Y021604D01*
X006735Y021604D01*
X006696Y021643D01*
X006620Y021796D02*
X006581Y021834D01*
X006505Y021834D01*
X006466Y021796D01*
X006236Y021834D02*
X006236Y021681D01*
X006313Y021604D01*
X006351Y022104D02*
X006389Y022143D01*
X006389Y022219D01*
X006313Y022219D01*
X006236Y022143D02*
X006274Y022104D01*
X006351Y022104D01*
X006466Y022104D02*
X006466Y022334D01*
X006620Y022104D01*
X006620Y022334D01*
X006696Y022334D02*
X006696Y022104D01*
X006811Y022104D01*
X006850Y022143D01*
X006850Y022296D01*
X006811Y022334D01*
X006696Y022334D01*
X006389Y022296D02*
X006351Y022334D01*
X006274Y022334D01*
X006236Y022296D01*
X006236Y022143D01*
X008249Y020126D02*
X008249Y020016D01*
X008470Y020016D01*
X008470Y020126D01*
X008433Y020163D01*
X008286Y020163D01*
X008249Y020126D01*
X008249Y019942D02*
X008470Y019942D01*
X008249Y019795D01*
X008470Y019795D01*
X008433Y019721D02*
X008359Y019721D01*
X008359Y019648D01*
X008286Y019721D02*
X008249Y019684D01*
X008249Y019611D01*
X008286Y019574D01*
X008433Y019574D01*
X008470Y019611D01*
X008470Y019684D01*
X008433Y019721D01*
X008413Y014242D02*
X008266Y014242D01*
X008230Y014205D01*
X008230Y014095D01*
X008450Y014095D01*
X008450Y014205D01*
X008413Y014242D01*
X008623Y014234D02*
X008623Y014087D01*
X008623Y014161D02*
X008844Y014161D01*
X008844Y014013D02*
X008844Y013866D01*
X008623Y013866D01*
X008623Y014013D01*
X008733Y013940D02*
X008733Y013866D01*
X008770Y013792D02*
X008807Y013792D01*
X008844Y013755D01*
X008844Y013682D01*
X008807Y013645D01*
X008733Y013682D02*
X008733Y013755D01*
X008770Y013792D01*
X008660Y013792D02*
X008623Y013755D01*
X008623Y013682D01*
X008660Y013645D01*
X008697Y013645D01*
X008733Y013682D01*
X008623Y013571D02*
X008623Y013424D01*
X008844Y013424D01*
X008844Y013571D01*
X008733Y013498D02*
X008733Y013424D01*
X008733Y013350D02*
X008660Y013350D01*
X008623Y013313D01*
X008623Y013203D01*
X008844Y013203D01*
X008770Y013203D02*
X008770Y013313D01*
X008733Y013350D01*
X008770Y013277D02*
X008844Y013350D01*
X009060Y013305D02*
X009097Y013342D01*
X009134Y013342D01*
X009170Y013305D01*
X009170Y013195D01*
X009060Y013195D02*
X009060Y013305D01*
X009060Y013195D02*
X009281Y013195D01*
X009281Y013305D01*
X009244Y013342D01*
X009207Y013342D01*
X009170Y013305D01*
X009097Y013416D02*
X009244Y013416D01*
X009281Y013453D01*
X009281Y013526D01*
X009244Y013563D01*
X009097Y013563D01*
X009060Y013526D01*
X009060Y013453D01*
X009097Y013416D01*
X009097Y013637D02*
X009244Y013637D01*
X009281Y013674D01*
X009281Y013747D01*
X009244Y013784D01*
X009097Y013784D01*
X009060Y013747D01*
X009060Y013674D01*
X009097Y013637D01*
X009060Y013858D02*
X009060Y014005D01*
X009060Y013932D02*
X009281Y013932D01*
X009244Y014079D02*
X009281Y014116D01*
X009281Y014189D01*
X009244Y014226D01*
X009097Y014226D01*
X009244Y014079D01*
X009097Y014079D01*
X009060Y014116D01*
X009060Y014189D01*
X009097Y014226D01*
X008450Y014021D02*
X008230Y014021D01*
X008230Y013874D02*
X008450Y014021D01*
X008450Y013874D02*
X008230Y013874D01*
X008266Y013800D02*
X008230Y013763D01*
X008230Y013690D01*
X008266Y013653D01*
X008413Y013653D01*
X008450Y013690D01*
X008450Y013763D01*
X008413Y013800D01*
X008340Y013800D01*
X008340Y013727D01*
X010277Y013692D02*
X010277Y013803D01*
X010314Y013839D01*
X010387Y013839D01*
X010424Y013803D01*
X010424Y013692D01*
X010497Y013692D02*
X010277Y013692D01*
X010424Y013766D02*
X010497Y013839D01*
X010497Y013987D02*
X010277Y013987D01*
X010277Y014060D02*
X010277Y013913D01*
X010314Y014134D02*
X010277Y014171D01*
X010277Y014245D01*
X010314Y014281D01*
X010387Y014245D02*
X010424Y014281D01*
X010460Y014281D01*
X010497Y014245D01*
X010497Y014171D01*
X010460Y014134D01*
X010387Y014171D02*
X010387Y014245D01*
X010387Y014171D02*
X010350Y014134D01*
X010314Y014134D01*
X010710Y014159D02*
X010747Y014123D01*
X010783Y014123D01*
X010820Y014159D01*
X010820Y014233D01*
X010857Y014269D01*
X010893Y014269D01*
X010930Y014233D01*
X010930Y014159D01*
X010893Y014123D01*
X010930Y013975D02*
X010710Y013975D01*
X010710Y013902D02*
X010710Y014048D01*
X010710Y014159D02*
X010710Y014233D01*
X010747Y014269D01*
X011072Y014230D02*
X011292Y014083D01*
X011292Y014009D02*
X011219Y013936D01*
X011219Y013972D02*
X011219Y013862D01*
X011292Y013862D02*
X011072Y013862D01*
X011072Y013972D01*
X011109Y014009D01*
X011182Y014009D01*
X011219Y013972D01*
X011072Y014083D02*
X011292Y014230D01*
X011454Y014258D02*
X011674Y014111D01*
X011674Y014258D02*
X011454Y014111D01*
X011454Y014037D02*
X011454Y013890D01*
X011454Y013963D02*
X011674Y013963D01*
X011824Y013988D02*
X011824Y013878D01*
X012044Y013878D01*
X012044Y013988D01*
X012008Y014025D01*
X011861Y014025D01*
X011824Y013988D01*
X011824Y014099D02*
X011824Y014209D01*
X011861Y014246D01*
X012008Y014246D01*
X012044Y014209D01*
X012044Y014099D01*
X011824Y014099D01*
X011824Y013804D02*
X011971Y013804D01*
X012044Y013730D01*
X011971Y013657D01*
X011824Y013657D01*
X012175Y013706D02*
X012211Y013669D01*
X012358Y013669D01*
X012395Y013706D01*
X012395Y013779D01*
X012358Y013816D01*
X012285Y013816D01*
X012285Y013742D01*
X012211Y013816D02*
X012175Y013779D01*
X012175Y013706D01*
X012175Y013890D02*
X012395Y014037D01*
X012175Y014037D01*
X012175Y014111D02*
X012175Y014221D01*
X012211Y014258D01*
X012358Y014258D01*
X012395Y014221D01*
X012395Y014111D01*
X012175Y014111D01*
X012175Y013890D02*
X012395Y013890D01*
X012580Y013913D02*
X012800Y014060D01*
X012580Y014060D01*
X012580Y014134D02*
X012580Y014245D01*
X012617Y014281D01*
X012764Y014281D01*
X012800Y014245D01*
X012800Y014134D01*
X012580Y014134D01*
X012580Y013913D02*
X012800Y013913D01*
X012764Y013839D02*
X012690Y013839D01*
X012690Y013766D01*
X012617Y013839D02*
X012580Y013803D01*
X012580Y013729D01*
X012617Y013692D01*
X012764Y013692D01*
X012800Y013729D01*
X012800Y013803D01*
X012764Y013839D01*
X012970Y013822D02*
X012970Y013749D01*
X013007Y013712D01*
X013153Y013712D01*
X013190Y013749D01*
X013190Y013822D01*
X013153Y013859D01*
X013080Y013859D01*
X013080Y013786D01*
X013007Y013859D02*
X012970Y013822D01*
X012970Y013933D02*
X013190Y014080D01*
X012970Y014080D01*
X012970Y014154D02*
X012970Y014264D01*
X013007Y014301D01*
X013153Y014301D01*
X013190Y014264D01*
X013190Y014154D01*
X012970Y014154D01*
X012970Y013933D02*
X013190Y013933D01*
X010930Y013791D02*
X010893Y013827D01*
X010930Y013791D02*
X010930Y013717D01*
X010893Y013681D01*
X010747Y013681D01*
X010710Y013717D01*
X010710Y013791D01*
X010747Y013827D01*
X012211Y019559D02*
X012175Y019595D01*
X012175Y019669D01*
X012211Y019705D01*
X012285Y019705D02*
X012285Y019632D01*
X012285Y019705D02*
X012358Y019705D01*
X012395Y019669D01*
X012395Y019595D01*
X012358Y019559D01*
X012211Y019559D01*
X012175Y019780D02*
X012395Y019926D01*
X012175Y019926D01*
X012175Y020001D02*
X012175Y020111D01*
X012211Y020147D01*
X012358Y020147D01*
X012395Y020111D01*
X012395Y020001D01*
X012175Y020001D01*
X012175Y019780D02*
X012395Y019780D01*
X012549Y019764D02*
X012769Y019911D01*
X012549Y019911D01*
X012549Y019985D02*
X012549Y020095D01*
X012585Y020132D01*
X012732Y020132D01*
X012769Y020095D01*
X012769Y019985D01*
X012549Y019985D01*
X012549Y019764D02*
X012769Y019764D01*
X012732Y019690D02*
X012769Y019653D01*
X012769Y019580D01*
X012732Y019543D01*
X012585Y019543D01*
X012549Y019580D01*
X012549Y019653D01*
X012585Y019690D01*
X012659Y019690D02*
X012659Y019616D01*
X012659Y019690D02*
X012732Y019690D01*
X012919Y019661D02*
X012919Y019587D01*
X012955Y019551D01*
X013102Y019551D01*
X013139Y019587D01*
X013139Y019661D01*
X013102Y019698D01*
X013029Y019698D01*
X013029Y019624D01*
X012955Y019698D02*
X012919Y019661D01*
X012919Y019772D02*
X013139Y019919D01*
X012919Y019919D01*
X012919Y019993D02*
X012919Y020103D01*
X012955Y020140D01*
X013102Y020140D01*
X013139Y020103D01*
X013139Y019993D01*
X012919Y019993D01*
X012919Y019772D02*
X013139Y019772D01*
D25*
X010301Y021958D03*
X009981Y021958D03*
X006245Y019621D03*
X005925Y019621D03*
X002983Y014740D03*
X002663Y014740D03*
X001775Y018382D03*
X001455Y018382D03*
X008699Y012706D03*
X009019Y012706D03*
D26*
X007287Y017214D03*
X007287Y017534D03*
X006541Y017559D03*
X006541Y017239D03*
X006898Y020333D03*
X006898Y020653D03*
X003703Y014334D03*
X003703Y014014D03*
X001187Y013351D03*
X001187Y013031D03*
X001195Y021337D03*
X001195Y021657D03*
X011130Y020140D03*
X011130Y019820D03*
X013012Y020858D03*
X013012Y021178D03*
D27*
X008468Y020883D03*
X007898Y020883D03*
X005002Y012614D03*
X004432Y012614D03*
D28*
X002100Y011194D03*
X001260Y012054D03*
X006220Y018634D03*
X007220Y018634D03*
X006620Y016534D03*
X011640Y011194D03*
X012420Y011194D03*
X012880Y011854D03*
X012880Y012594D03*
X012880Y013334D03*
X012880Y014114D03*
X008111Y003660D03*
X007323Y003660D03*
X006536Y003660D03*
X005748Y003660D03*
X004961Y003660D03*
M02*
