G75*
%MOIN*%
%OFA0B0*%
%FSLAX24Y24*%
%IPPOS*%
%LPD*%
%AMOC8*
5,1,8,0,0,1.08239X$1,22.5*
%
%ADD10C,0.0160*%
%ADD11C,0.0040*%
%ADD12C,0.0030*%
%ADD13C,0.0020*%
%ADD14C,0.0050*%
D10*
X000470Y000594D02*
X000470Y023444D01*
X013670Y023444D01*
X013670Y000594D01*
X000470Y000594D01*
D11*
X007607Y010943D02*
X007530Y011020D01*
X007530Y011173D01*
X007607Y011250D01*
X007990Y011250D01*
X007914Y011403D02*
X007990Y011480D01*
X007990Y011634D01*
X007914Y011710D01*
X007914Y011864D02*
X007837Y011864D01*
X007760Y011941D01*
X007760Y012171D01*
X007607Y012171D02*
X007914Y012171D01*
X007990Y012094D01*
X007990Y011941D01*
X007914Y011864D01*
X007760Y011634D02*
X007760Y011480D01*
X007837Y011403D01*
X007914Y011403D01*
X008067Y011557D02*
X007453Y011557D01*
X007530Y011634D02*
X007607Y011710D01*
X007683Y011710D01*
X007760Y011634D01*
X007607Y011864D02*
X007530Y011941D01*
X007530Y012094D01*
X007607Y012171D01*
X007530Y011634D02*
X007530Y011480D01*
X007607Y011403D01*
X007607Y010943D02*
X007990Y010943D01*
X010129Y011634D02*
X010129Y012095D01*
X010360Y011864D01*
X010053Y011864D01*
X010513Y011711D02*
X010590Y011634D01*
X010743Y011634D01*
X010820Y011711D01*
X010820Y012018D01*
X010743Y012095D01*
X010590Y012095D01*
X010513Y012018D01*
X011160Y011951D02*
X011160Y012104D01*
X011237Y012181D01*
X011237Y012335D02*
X011160Y012411D01*
X011160Y012565D01*
X011237Y012642D01*
X011313Y012642D01*
X011390Y012565D01*
X011390Y012335D01*
X011237Y012335D01*
X011390Y012335D02*
X011544Y012488D01*
X011620Y012642D01*
X011544Y012181D02*
X011620Y012104D01*
X011620Y011951D01*
X011544Y011874D01*
X011237Y011874D01*
X011160Y011951D01*
X005900Y018744D02*
X005976Y018821D01*
X005976Y019128D01*
X005900Y019204D01*
X005746Y019204D01*
X005669Y019128D01*
X005516Y018974D02*
X005516Y018821D01*
X005439Y018744D01*
X005286Y018744D01*
X005209Y018821D01*
X005209Y018974D01*
X005286Y019051D01*
X005439Y019051D01*
X005516Y018974D01*
X005669Y018821D02*
X005746Y018744D01*
X005900Y018744D01*
X005056Y018744D02*
X005056Y019051D01*
X004825Y019051D01*
X004749Y018974D01*
X004749Y018744D01*
X004595Y018744D02*
X004595Y019051D01*
X004365Y019051D01*
X004288Y018974D01*
X004288Y018744D01*
X004135Y018821D02*
X004135Y018974D01*
X004058Y019051D01*
X003905Y019051D01*
X003828Y018974D01*
X003828Y018897D01*
X004135Y018897D01*
X004135Y018821D02*
X004058Y018744D01*
X003905Y018744D01*
X003674Y018821D02*
X003674Y018974D01*
X003598Y019051D01*
X003368Y019051D01*
X003214Y019051D02*
X003061Y019051D01*
X003137Y019128D02*
X003137Y018821D01*
X003061Y018744D01*
X002907Y018821D02*
X002830Y018744D01*
X002677Y018744D01*
X002600Y018821D01*
X002600Y019204D01*
X002447Y018974D02*
X002370Y019051D01*
X002140Y019051D01*
X002217Y018897D02*
X002140Y018821D01*
X002217Y018744D01*
X002447Y018744D01*
X002370Y018897D02*
X002447Y018974D01*
X002370Y018897D02*
X002217Y018897D01*
X002907Y018821D02*
X002907Y019204D01*
X003368Y018744D02*
X003598Y018744D01*
X003674Y018821D01*
D12*
X005506Y020598D02*
X005445Y020660D01*
X005445Y020969D01*
X005630Y020969D01*
X005691Y020907D01*
X005691Y020784D01*
X005630Y020722D01*
X005445Y020722D01*
X005506Y020598D02*
X005568Y020598D01*
X005813Y020722D02*
X005813Y020907D01*
X005875Y020969D01*
X006060Y020969D01*
X006060Y020722D01*
X006182Y020722D02*
X006305Y020722D01*
X006244Y020722D02*
X006244Y020969D01*
X006305Y020969D01*
X006427Y020969D02*
X006489Y020969D01*
X006612Y020845D01*
X006734Y020845D02*
X006980Y020845D01*
X006980Y020784D02*
X006980Y020907D01*
X006919Y020969D01*
X006795Y020969D01*
X006734Y020907D01*
X006734Y020845D01*
X006795Y020722D02*
X006919Y020722D01*
X006980Y020784D01*
X007102Y020845D02*
X007349Y020845D01*
X007349Y020784D02*
X007349Y020907D01*
X007287Y020969D01*
X007164Y020969D01*
X007102Y020907D01*
X007102Y020845D01*
X007164Y020722D02*
X007287Y020722D01*
X007349Y020784D01*
X007470Y020722D02*
X007470Y020907D01*
X007532Y020969D01*
X007717Y020969D01*
X007717Y020722D01*
X007839Y020722D02*
X007963Y020722D01*
X007901Y020722D02*
X007901Y020969D01*
X007963Y020969D01*
X008084Y020969D02*
X008084Y020660D01*
X008146Y020598D01*
X008208Y020598D01*
X008269Y020722D02*
X008084Y020722D01*
X008084Y020969D02*
X008269Y020969D01*
X008331Y020907D01*
X008331Y020784D01*
X008269Y020722D01*
X008452Y020722D02*
X008452Y020907D01*
X008514Y020969D01*
X008699Y020969D01*
X008699Y020722D01*
X008821Y020722D02*
X009068Y020722D01*
X009068Y021092D01*
X008821Y021092D01*
X008944Y020907D02*
X009068Y020907D01*
X009006Y021322D02*
X008882Y021322D01*
X008821Y021384D01*
X008699Y021384D02*
X008638Y021322D01*
X008514Y021322D01*
X008452Y021384D01*
X008452Y021507D01*
X008514Y021569D01*
X008638Y021569D01*
X008699Y021507D01*
X008699Y021384D01*
X008821Y021630D02*
X008882Y021692D01*
X009006Y021692D01*
X009068Y021630D01*
X009068Y021384D01*
X009006Y021322D01*
X008331Y021322D02*
X008208Y021322D01*
X008269Y021322D02*
X008269Y021692D01*
X008331Y021692D01*
X008085Y021692D02*
X008024Y021692D01*
X008024Y021322D01*
X008085Y021322D02*
X007962Y021322D01*
X007840Y021384D02*
X007840Y021507D01*
X007778Y021569D01*
X007655Y021569D01*
X007593Y021507D01*
X007593Y021445D01*
X007840Y021445D01*
X007840Y021384D02*
X007778Y021322D01*
X007655Y021322D01*
X007472Y021384D02*
X007410Y021322D01*
X007225Y021322D01*
X007225Y021260D02*
X007225Y021569D01*
X007410Y021569D01*
X007472Y021507D01*
X007472Y021384D01*
X007348Y021198D02*
X007286Y021198D01*
X007225Y021260D01*
X007103Y021384D02*
X007103Y021507D01*
X007042Y021569D01*
X006918Y021569D01*
X006856Y021507D01*
X006856Y021445D01*
X007103Y021445D01*
X007103Y021384D02*
X007042Y021322D01*
X006918Y021322D01*
X006612Y020969D02*
X006612Y020722D01*
X006244Y021092D02*
X006244Y021154D01*
X006305Y021322D02*
X006181Y021322D01*
X006120Y021384D01*
X006120Y021507D01*
X006181Y021569D01*
X006305Y021569D01*
X006367Y021507D01*
X006367Y021384D01*
X006305Y021322D01*
X005998Y021507D02*
X005875Y021507D01*
X005937Y021630D02*
X005937Y021322D01*
X005937Y021630D02*
X005875Y021692D01*
X007901Y021154D02*
X007901Y021092D01*
D13*
X005753Y018569D02*
X005753Y018382D01*
X005659Y018289D01*
X005566Y018382D01*
X005566Y018569D01*
X005430Y018475D02*
X005476Y018429D01*
X005476Y018335D01*
X005430Y018289D01*
X005336Y018289D01*
X005289Y018382D02*
X005476Y018382D01*
X005430Y018475D02*
X005336Y018475D01*
X005289Y018429D01*
X005289Y018382D01*
X005200Y018382D02*
X005107Y018475D01*
X005060Y018475D01*
X004970Y018429D02*
X004923Y018382D01*
X004830Y018382D01*
X004783Y018335D01*
X004830Y018289D01*
X004970Y018289D01*
X004970Y018429D02*
X004923Y018475D01*
X004783Y018475D01*
X004694Y018475D02*
X004647Y018475D01*
X004647Y018289D01*
X004694Y018289D02*
X004600Y018289D01*
X004509Y018335D02*
X004463Y018289D01*
X004369Y018289D01*
X004323Y018335D01*
X004323Y018429D01*
X004369Y018475D01*
X004463Y018475D01*
X004509Y018429D01*
X004509Y018335D01*
X004647Y018569D02*
X004647Y018615D01*
X004233Y018475D02*
X004233Y018289D01*
X004233Y018475D02*
X004093Y018475D01*
X004046Y018429D01*
X004046Y018289D01*
X003681Y018289D02*
X003494Y018475D01*
X003494Y018522D01*
X003541Y018569D01*
X003634Y018569D01*
X003681Y018522D01*
X003681Y018289D02*
X003494Y018289D01*
X003405Y018289D02*
X003358Y018289D01*
X003358Y018335D01*
X003405Y018335D01*
X003405Y018289D01*
X003266Y018335D02*
X003266Y018522D01*
X003220Y018569D01*
X003126Y018569D01*
X003080Y018522D01*
X003266Y018335D01*
X003220Y018289D01*
X003126Y018289D01*
X003080Y018335D01*
X003080Y018522D01*
X005200Y018475D02*
X005200Y018289D01*
D14*
X005675Y014702D02*
X004257Y014702D01*
X004257Y013147D01*
X005675Y013147D01*
X005675Y014702D01*
X006442Y014702D01*
X006442Y011533D01*
X003490Y011533D01*
X003490Y014702D01*
X004257Y014702D01*
X008169Y011633D02*
X008169Y011279D01*
X008484Y011279D01*
X008642Y011830D02*
X008878Y011830D01*
X009351Y011633D02*
X009351Y011239D01*
X009036Y011239D01*
M02*
